<svg width="266" height="154" viewBox="0 0 266 154" fill="none" xmlns="http://www.w3.org/2000/svg">
<path d="M146.391 131.888C146.338 131.888 146.291 131.917 146.243 131.917H103.355C102.35 131.917 101.386 131.517 100.675 130.807C99.9647 130.096 99.5654 129.132 99.5654 128.127C99.5654 127.122 99.9647 126.158 100.675 125.447C101.386 124.736 102.35 124.337 103.355 124.337H146.132L146.244 124.313C154.052 124.314 161.688 122.02 168.204 117.718C174.719 113.415 179.827 107.293 182.892 100.112C185.957 92.9307 186.845 85.0075 185.444 77.3262C184.044 69.6449 180.417 62.5442 175.015 56.9067C169.613 51.2693 162.674 47.3437 155.059 45.6172C147.444 43.8907 139.49 44.4395 132.185 47.1958C124.88 49.9521 118.546 54.7939 113.969 61.1201C109.393 67.4463 106.776 74.9779 106.444 82.7788C106.394 83.7777 105.951 84.7164 105.212 85.3901C104.473 86.0639 103.497 86.4182 102.498 86.376C101.499 86.3338 100.557 85.8983 99.8771 85.1646C99.1974 84.4308 98.8352 83.4586 98.8694 82.459C99.2967 71.8979 103.253 61.7848 110.104 53.7368L107.83 51.4629C107.466 51.1138 107.174 50.6951 106.974 50.2319C106.773 49.7688 106.666 49.2704 106.661 48.7656C106.655 48.2608 106.751 47.7599 106.941 47.2925C107.132 46.825 107.414 46.4004 107.771 46.0435C108.128 45.6865 108.553 45.4045 109.02 45.2139C109.488 45.0232 109.988 44.9281 110.493 44.9336C110.998 44.9391 111.497 45.0453 111.96 45.2461C112.423 45.4469 112.841 45.7383 113.19 46.103L115.481 48.395C121.289 43.4383 128.208 39.957 135.649 38.2476C143.091 36.5381 150.835 36.6508 158.224 38.5762C165.612 40.5015 172.427 44.1825 178.088 49.3062C183.749 54.4298 188.089 60.8447 190.739 68.0054C193.389 75.166 194.271 82.861 193.31 90.4355C192.348 98.0101 189.572 105.241 185.217 111.512C180.862 117.784 175.057 122.911 168.296 126.458C161.535 130.005 154.017 131.867 146.381 131.886L146.391 131.888ZM163.702 67.0386H163.708C163.356 66.6866 162.939 66.4078 162.479 66.2173C162.019 66.0268 161.526 65.9287 161.028 65.9287C160.531 65.9287 160.038 66.0268 159.578 66.2173C159.118 66.4078 158.7 66.6866 158.348 67.0386L147.362 78.0186C146.999 77.9116 146.626 77.8367 146.249 77.7939C144.924 77.7939 143.629 78.1866 142.527 78.9229C141.425 79.6591 140.566 80.7054 140.059 81.9297C139.552 83.154 139.42 84.5011 139.678 85.8008C139.937 87.1005 140.575 88.2944 141.512 89.2314C142.449 90.1685 143.643 90.8064 144.942 91.0649C146.242 91.3235 147.589 91.1907 148.813 90.6836C150.038 90.1765 151.084 89.3181 151.82 88.2163C152.556 87.1145 152.949 85.8188 152.949 84.4937C152.908 84.1148 152.832 83.7406 152.724 83.375L163.704 72.395V72.3887C164.056 72.0376 164.336 71.6206 164.526 71.1616C164.717 70.7026 164.816 70.2105 164.816 69.7134C164.817 69.2163 164.719 68.7241 164.53 68.2646C164.34 67.8052 164.061 67.3875 163.71 67.0356L163.702 67.0386ZM140.09 29.5806H152.409C153.404 29.5644 154.352 29.1583 155.05 28.4492C155.748 27.7401 156.139 26.7853 156.139 25.7905C156.139 24.7958 155.748 23.8404 155.05 23.1313C154.352 22.4222 153.404 22.0162 152.409 22H140.085C139.091 22.0162 138.142 22.4222 137.445 23.1313C136.747 23.8404 136.356 24.7958 136.356 25.7905C136.356 26.7853 136.747 27.7401 137.445 28.4492C138.142 29.1583 139.091 29.5644 140.085 29.5806H140.09ZM137.384 112.967H137.378C137.38 112.469 137.282 111.975 137.092 111.515C136.902 111.055 136.623 110.636 136.271 110.284C135.919 109.932 135.501 109.653 135.04 109.463C134.58 109.273 134.086 109.176 133.588 109.177H86.4064C85.4013 109.177 84.4373 109.576 83.7265 110.287C83.0157 110.997 82.6164 111.962 82.6164 112.967C82.6164 113.972 83.0157 114.936 83.7265 115.646C84.4373 116.357 85.4013 116.757 86.4064 116.757H133.583C134.081 116.758 134.575 116.661 135.035 116.471C135.496 116.281 135.914 116.002 136.266 115.649C136.618 115.297 136.897 114.879 137.087 114.418C137.277 113.958 137.375 113.465 137.373 112.967H137.384ZM138.876 97.8057H138.87C138.872 97.3076 138.774 96.8144 138.584 96.354C138.394 95.8936 138.115 95.4753 137.763 95.123C137.411 94.7708 136.993 94.4914 136.532 94.3013C136.072 94.1111 135.578 94.0136 135.08 94.0146H76.7294C75.7348 94.0308 74.7863 94.4374 74.0886 95.1465C73.3909 95.8556 73 96.8104 73 97.8052C73 98.7999 73.3909 99.7548 74.0886 100.464C74.7863 101.173 75.7348 101.58 76.7294 101.596H135.075C135.573 101.597 136.067 101.5 136.527 101.31C136.988 101.12 137.406 100.841 137.759 100.489C138.111 100.137 138.39 99.7183 138.58 99.2578C138.77 98.7973 138.867 98.3038 138.865 97.8057H138.876Z" fill="white"/>
</svg>
