<svg width="121" height="111" viewBox="0 0 121 111" fill="none" xmlns="http://www.w3.org/2000/svg">
<path d="M73.3914 110.57C73.3384 110.57 73.2914 110.6 73.2434 110.6H30.3554C29.3502 110.6 28.3862 110.2 27.6755 109.489C26.9647 108.778 26.5654 107.815 26.5654 106.81C26.5654 105.804 26.9647 104.84 27.6755 104.129C28.3862 103.419 29.3502 103.02 30.3554 103.02H73.1324L73.2444 102.996C81.0523 102.997 88.6884 100.703 95.2039 96.4004C101.719 92.0978 106.827 85.9756 109.892 78.7944C112.957 71.6133 113.845 63.6901 112.444 56.0088C111.044 48.3275 107.417 41.2268 102.015 35.5894C96.6132 29.9519 89.6737 26.0263 82.0591 24.2998C74.4444 22.5733 66.4904 23.1221 59.1851 25.8784C51.8799 28.6347 45.5455 33.4766 40.9692 39.8027C36.3928 46.1289 33.7762 53.6606 33.4444 61.4614C33.3942 62.4603 32.9513 63.399 32.2121 64.0728C31.4729 64.7465 30.4974 65.1008 29.4982 65.0586C28.4989 65.0164 27.5568 64.5809 26.8771 63.8472C26.1974 63.1134 25.8352 62.1412 25.8694 61.1416C26.2967 50.5805 30.2525 40.4674 37.1044 32.4194L34.8304 30.1455C34.4657 29.7964 34.1744 29.3777 33.9736 28.9146C33.7728 28.4514 33.6665 27.953 33.6609 27.4482C33.6554 26.9435 33.7508 26.4425 33.9415 25.9751C34.1321 25.5077 34.4142 25.083 34.7711 24.7261C35.1281 24.3691 35.5528 24.0871 36.0202 23.8965C36.4876 23.7059 36.9884 23.6107 37.4932 23.6162C37.998 23.6217 38.4966 23.7279 38.9598 23.9287C39.4229 24.1295 39.8414 24.421 40.1904 24.7856L42.4814 27.0776C48.2891 22.1209 55.2079 18.6396 62.6494 16.9302C70.0909 15.2208 77.8352 15.3335 85.2238 17.2588C92.6124 19.1841 99.4269 22.8651 105.088 27.9888C110.749 33.1124 115.089 39.5273 117.739 46.688C120.389 53.8487 121.271 61.5436 120.31 69.1182C119.348 76.6927 116.572 83.9232 112.217 90.1948C107.862 96.4664 102.057 101.594 95.2961 105.141C88.5347 108.688 81.0167 110.55 73.3814 110.568L73.3914 110.57ZM90.7024 45.7212H90.7084C90.3565 45.3692 89.9387 45.0904 89.4788 44.8999C89.019 44.7094 88.5261 44.6113 88.0284 44.6113C87.5307 44.6113 87.0378 44.7094 86.578 44.8999C86.1182 45.0904 85.7003 45.3692 85.3484 45.7212L74.3624 56.7012C73.9986 56.5942 73.6262 56.5193 73.2494 56.4766C71.9243 56.4766 70.6289 56.8693 69.5271 57.6055C68.4253 58.3417 67.5665 59.388 67.0594 60.6123C66.5523 61.8366 66.4196 63.1837 66.6782 64.4834C66.9367 65.7831 67.5748 66.9771 68.5118 67.9141C69.4488 68.8511 70.6426 69.489 71.9423 69.7476C73.242 70.0061 74.5891 69.8733 75.8134 69.3662C77.0377 68.8591 78.084 68.0007 78.8203 66.8989C79.5565 65.7971 79.9494 64.5014 79.9494 63.1763C79.9075 62.7974 79.8322 62.4233 79.7244 62.0576L90.7044 51.0776V51.0713C91.0563 50.7202 91.3356 50.3033 91.5264 49.8442C91.7171 49.3852 91.8155 48.8931 91.8161 48.396C91.8167 47.8989 91.7193 47.4067 91.5296 46.9473C91.3399 46.4878 91.0615 46.0701 90.7104 45.7183L90.7024 45.7212ZM67.0904 8.26318H79.4094C80.4041 8.24703 81.3525 7.84093 82.0502 7.13184C82.7478 6.42274 83.1389 5.46792 83.1389 4.47314C83.1389 3.47837 82.7478 2.52306 82.0502 1.81396C81.3525 1.10487 80.4041 0.698773 79.4094 0.682617H67.0854C66.0907 0.698773 65.1423 1.10487 64.4446 1.81396C63.747 2.52306 63.356 3.47837 63.356 4.47314C63.356 5.46792 63.747 6.42274 64.4446 7.13184C65.1423 7.84093 66.0907 8.24703 67.0854 8.26318H67.0904ZM64.3844 91.6494H64.3784C64.3796 91.1514 64.2824 90.6581 64.0923 90.1978C63.9023 89.7374 63.6232 89.319 63.271 88.9668C62.9188 88.6146 62.5005 88.3356 62.0402 88.1455C61.5798 87.9555 61.0864 87.8582 60.5884 87.8594H13.4064C12.4013 87.8594 11.4373 88.2585 10.7265 88.9692C10.0157 89.68 9.61639 90.6442 9.61639 91.6494C9.61639 92.6546 10.0157 93.6183 10.7265 94.3291C11.4373 95.0399 12.4013 95.4395 13.4064 95.4395H60.5834C61.0815 95.4406 61.5748 95.3434 62.0352 95.1533C62.4955 94.9633 62.9138 94.6842 63.266 94.332C63.6182 93.9799 63.8973 93.5614 64.0873 93.1011C64.2774 92.6407 64.3746 92.1475 64.3734 91.6494H64.3844ZM65.8764 76.4883H65.8704C65.8716 75.9902 65.7744 75.497 65.5844 75.0366C65.3943 74.5762 65.1152 74.1579 64.7631 73.8057C64.4109 73.4534 63.9926 73.174 63.5322 72.9839C63.0719 72.7937 62.5785 72.6962 62.0804 72.6973H3.72943C2.73479 72.7134 1.7863 73.12 1.08862 73.8291C0.390948 74.5382 0 75.493 0 76.4878C0 77.4826 0.390948 78.4374 1.08862 79.1465C1.7863 79.8556 2.73479 80.2622 3.72943 80.2783H62.0754C62.5735 80.2798 63.067 80.1826 63.5275 79.9927C63.9879 79.8027 64.4064 79.5236 64.7586 79.1714C65.1108 78.8192 65.3899 78.4009 65.5799 77.9404C65.7698 77.4799 65.8669 76.9864 65.8654 76.4883H65.8764Z" fill="white"/>
</svg>
