<svg width="147" height="73" viewBox="0 0 147 73" fill="none" xmlns="http://www.w3.org/2000/svg">
<path d="M146.432 36.0713C146.418 45.633 142.613 54.7989 135.852 61.5601C129.091 68.3212 119.925 72.1259 110.363 72.1401C104.717 72.143 99.1515 70.8 94.1281 68.2227C89.1046 65.6454 84.7677 61.9082 81.477 57.3203C80.6981 56.2261 80.3814 54.8689 80.5952 53.543C80.8091 52.217 81.5364 51.0287 82.6198 50.2349C83.7031 49.441 85.0555 49.1057 86.3842 49.3013C87.713 49.4969 88.9113 50.2079 89.72 51.2803C92.0683 54.5663 95.1655 57.2457 98.7553 59.0967C102.345 60.9476 106.324 61.917 110.363 61.9243C117.192 61.8818 123.726 59.1391 128.54 54.2954C133.353 49.4517 136.055 42.9006 136.055 36.0718C136.055 29.243 133.353 22.6913 128.54 17.8477C123.726 13.004 117.192 10.2617 110.363 10.2192C105.584 10.2339 100.889 11.4784 96.7299 13.8335C92.5711 16.1886 89.0887 19.5749 86.618 23.666L68.581 53.7271V53.7329C65.1962 59.3329 60.4275 63.9679 54.7334 67.1919C49.0393 70.4159 42.6114 72.1207 36.068 72.1421C26.5022 72.1421 17.3281 68.3422 10.5641 61.5781C3.79999 54.8141 0 45.64 0 36.0742C0 26.5084 3.79999 17.3344 10.5641 10.5703C17.3281 3.80625 26.5022 0.00585938 36.068 0.00585938C41.714 0.00263158 47.2794 1.34522 52.3029 3.92236C57.3265 6.49951 61.6633 10.2373 64.954 14.8252C65.3616 15.3657 65.6577 15.9818 65.8252 16.6377C65.9927 17.2936 66.0281 17.9762 65.9295 18.646C65.8309 19.3157 65.6003 19.9592 65.2509 20.5391C64.9015 21.1189 64.4404 21.6233 63.8943 22.0234C63.3483 22.4236 62.7281 22.7112 62.0699 22.8696C61.4118 23.0281 60.7287 23.0546 60.0604 22.9468C59.392 22.839 58.7518 22.599 58.1768 22.2417C57.6018 21.8844 57.1036 21.4167 56.711 20.8652C54.3626 17.5794 51.2653 14.9001 47.6755 13.0493C44.0858 11.1985 40.1068 10.2294 36.068 10.2222C29.2678 10.3068 22.7749 13.0671 17.9961 17.9058C13.2173 22.7444 10.5376 29.2716 10.5376 36.0723C10.5376 42.8729 13.2173 49.3997 17.9961 54.2383C22.7749 59.0769 29.2678 61.8373 36.068 61.9219C40.8472 61.9074 45.5422 60.6631 49.701 58.3081C53.8597 55.9531 57.3422 52.5671 59.813 48.4761L77.85 18.415V18.4082C81.2349 12.8084 86.0037 8.17355 91.6978 4.94971C97.3919 1.72587 103.82 0.0212619 110.363 0C119.925 0.0142831 129.091 3.81892 135.852 10.5801C142.613 17.3412 146.418 26.5071 146.432 36.0688V36.0713Z" fill="white"/>
</svg>
