<svg width="266" height="154" viewBox="0 0 266 154" fill="none" xmlns="http://www.w3.org/2000/svg">
<path d="M206.432 77.0713C206.418 86.633 202.613 95.7989 195.852 102.56C189.091 109.321 179.925 113.126 170.363 113.14C164.717 113.143 159.152 111.8 154.128 109.223C149.105 106.645 144.768 102.908 141.477 98.3203C140.698 97.2261 140.381 95.8689 140.595 94.543C140.809 93.217 141.536 92.0287 142.62 91.2349C143.703 90.441 145.055 90.1057 146.384 90.3013C147.713 90.4969 148.911 91.2079 149.72 92.2803C152.068 95.5663 155.166 98.2457 158.755 100.097C162.345 101.948 166.324 102.917 170.363 102.924C177.192 102.882 183.726 100.139 188.54 95.2954C193.353 90.4517 196.055 83.9006 196.055 77.0718C196.055 70.243 193.353 63.6913 188.54 58.8477C183.726 54.004 177.192 51.2617 170.363 51.2192C165.584 51.2339 160.889 52.4784 156.73 54.8335C152.571 57.1886 149.089 60.5749 146.618 64.666L128.581 94.7271V94.7329C125.196 100.333 120.427 104.968 114.733 108.192C109.039 111.416 102.611 113.121 96.068 113.142C86.5022 113.142 77.3281 109.342 70.5641 102.578C63.8 95.8141 60 86.64 60 77.0742C60 67.5084 63.8 58.3344 70.5641 51.5703C77.3281 44.8063 86.5022 41.0059 96.068 41.0059C101.714 41.0026 107.279 42.3452 112.303 44.9224C117.326 47.4995 121.663 51.2373 124.954 55.8252C125.362 56.3657 125.658 56.9818 125.825 57.6377C125.993 58.2936 126.028 58.9762 125.93 59.646C125.831 60.3157 125.6 60.9592 125.251 61.5391C124.902 62.1189 124.44 62.6233 123.894 63.0234C123.348 63.4236 122.728 63.7112 122.07 63.8696C121.412 64.0281 120.729 64.0546 120.06 63.9468C119.392 63.839 118.752 63.599 118.177 63.2417C117.602 62.8844 117.104 62.4167 116.711 61.8652C114.363 58.5794 111.265 55.9001 107.676 54.0493C104.086 52.1985 100.107 51.2294 96.068 51.2222C89.2678 51.3068 82.7749 54.0671 77.9961 58.9058C73.2173 63.7444 70.5376 70.2716 70.5376 77.0723C70.5376 83.8729 73.2173 90.3997 77.9961 95.2383C82.7749 100.077 89.2678 102.837 96.068 102.922C100.847 102.907 105.542 101.663 109.701 99.3081C113.86 96.9531 117.342 93.5671 119.813 89.4761L137.85 59.415V59.4082C141.235 53.8084 146.004 49.1735 151.698 45.9497C157.392 42.7259 163.82 41.0213 170.363 41C179.925 41.0143 189.091 44.8189 195.852 51.5801C202.613 58.3412 206.418 67.5071 206.432 77.0688V77.0713Z" fill="white"/>
</svg>
