<svg width="266" height="154" viewBox="0 0 266 154" fill="none" xmlns="http://www.w3.org/2000/svg">
<path fill-rule="evenodd" clip-rule="evenodd" d="M104.486 85.9768V42.7946C104.487 41.4936 105.004 40.2458 105.924 39.3258C106.843 38.4059 108.091 37.8889 109.392 37.8886H172.206C173.507 37.8889 174.754 38.4059 175.674 39.3258C176.594 40.2458 177.111 41.4936 177.112 42.7946V105.608C177.111 106.909 176.594 108.157 175.674 109.077C174.754 109.997 173.507 110.514 172.206 110.514H129.024C128.243 110.514 127.494 110.825 126.942 111.377C126.389 111.929 126.079 112.678 126.079 113.458C126.079 114.239 126.389 114.988 126.942 115.541C127.494 116.093 128.243 116.403 129.024 116.403H172.206C175.068 116.402 177.813 115.265 179.838 113.24C181.862 111.216 182.999 108.471 183 105.608V42.7946C182.999 39.9321 181.861 37.1874 179.837 35.1633C177.813 33.1392 175.068 32.0012 172.206 32H109.392C106.53 32.0012 103.785 33.1392 101.761 35.1633C99.7366 37.1874 98.5989 39.9321 98.5977 42.7946V85.9768C98.5977 86.7577 98.9079 87.5068 99.46 88.059C100.012 88.6112 100.761 88.9211 101.542 88.9211C102.323 88.9211 103.072 88.6112 103.624 88.059C104.176 87.5068 104.486 86.7577 104.486 85.9768Z" fill="white"/>
<path d="M102.394 74.2334H83.9276C83.3154 74.2334 82.7283 74.4768 82.2954 74.9097C81.8625 75.3426 81.6193 75.9297 81.6193 76.5419C81.6193 77.1541 81.8625 77.7413 82.2954 78.1742C82.7283 78.6071 83.3154 78.8505 83.9276 78.8505H96.8167L61.6167 114.05V101.161C61.6167 100.549 61.3735 99.9617 60.9406 99.5288C60.5077 99.0959 59.9206 98.853 59.3084 98.853C58.6961 98.853 58.109 99.0959 57.6761 99.5288C57.2432 99.9617 57 100.549 57 101.161V119.628C57 119.931 57.0597 120.231 57.1757 120.511C57.2918 120.791 57.4618 121.046 57.6762 121.26C57.8905 121.474 58.145 121.644 58.4251 121.76C58.7051 121.876 59.0053 121.936 59.3084 121.936H77.7752C78.3874 121.936 78.9745 121.692 79.4074 121.259C79.8403 120.826 80.0835 120.239 80.0835 119.627C80.0835 119.015 79.8403 118.428 79.4074 117.995C78.9745 117.562 78.3874 117.319 77.7752 117.319H64.8861L100.087 82.1187V95.0079C100.087 95.6201 100.33 96.2073 100.763 96.6402C101.196 97.0731 101.783 97.316 102.395 97.316C103.008 97.316 103.595 97.0731 104.028 96.6402C104.461 96.2073 104.704 95.6201 104.704 95.0079V76.541C104.704 76.2378 104.644 75.9378 104.528 75.6577C104.412 75.3776 104.242 75.123 104.027 74.9088C103.813 74.6945 103.558 74.5245 103.278 74.4087C102.998 74.2928 102.698 74.2332 102.394 74.2334Z" fill="white"/>
</svg>
