<svg width="135" height="96" viewBox="0 0 135 96" fill="none" xmlns="http://www.w3.org/2000/svg">
<path fill-rule="evenodd" clip-rule="evenodd" d="M51.25 57.2891V11.457C51.2503 10.0761 51.7989 8.75183 52.7754 7.77539C53.7518 6.79895 55.0761 6.25027 56.457 6.25H123.125C124.506 6.25027 125.83 6.79895 126.807 7.77539C127.783 8.75183 128.332 10.0761 128.332 11.457V78.125C128.332 79.5059 127.783 80.8302 126.807 81.8066C125.83 82.7831 124.506 83.3318 123.125 83.332H77.293C76.4642 83.332 75.6694 83.6615 75.0833 84.2476C74.4973 84.8336 74.168 85.6282 74.168 86.457C74.168 87.2858 74.4973 88.0809 75.0833 88.667C75.6694 89.253 76.4642 89.582 77.293 89.582H123.125C126.163 89.581 129.077 88.374 131.225 86.2256C133.374 84.0772 134.581 81.1633 134.582 78.125V11.457C134.581 8.41885 133.373 5.50574 131.225 3.35742C129.077 1.2091 126.163 0.00132504 123.125 0H56.457C53.4188 0.00132504 50.5054 1.2091 48.3571 3.35742C46.2088 5.50574 45.0013 8.41885 45 11.457V57.2891C45 58.1179 45.3292 58.913 45.9153 59.499C46.5013 60.0851 47.2962 60.4141 48.125 60.4141C48.9538 60.4141 49.7487 60.0851 50.3347 59.499C50.9208 58.913 51.25 58.1179 51.25 57.2891Z" fill="white"/>
<path d="M49.0302 44.8252H29.4301C28.7803 44.8252 28.1572 45.0835 27.6977 45.543C27.2382 46.0024 26.9801 46.6256 26.9801 47.2754C26.9801 47.9252 27.2382 48.5483 27.6977 49.0078C28.1572 49.4673 28.7803 49.7256 29.4301 49.7256H43.1101L5.75012 87.0854V73.4053C5.75012 72.7555 5.492 72.1323 5.03253 71.6729C4.57307 71.2134 3.94989 70.9556 3.30011 70.9556C2.65033 70.9556 2.02715 71.2134 1.56769 71.6729C1.10822 72.1323 0.850098 72.7555 0.850098 73.4053V93.0054C0.850098 93.3271 0.913485 93.6457 1.03662 93.9429C1.15976 94.2401 1.34023 94.5099 1.56775 94.7373C1.79527 94.9647 2.06537 95.1451 2.36261 95.2681C2.65985 95.3911 2.97842 95.4547 3.30011 95.4546H22.9001C23.5499 95.4546 24.173 95.1963 24.6325 94.7368C25.092 94.2774 25.3501 93.6542 25.3501 93.0044C25.3501 92.3546 25.092 91.7314 24.6325 91.272C24.173 90.8125 23.5499 90.5542 22.9001 90.5542H9.22009L46.5811 53.1943V66.8745C46.5811 67.5243 46.8392 68.1475 47.2987 68.6069C47.7582 69.0664 48.3813 69.3242 49.0311 69.3242C49.6809 69.3242 50.3041 69.0664 50.7635 68.6069C51.223 68.1475 51.4811 67.5243 51.4811 66.8745V47.2744C51.4811 46.9526 51.4177 46.6342 51.2945 46.3369C51.1713 46.0397 50.9907 45.7694 50.7631 45.542C50.5355 45.3146 50.2653 45.1342 49.968 45.0112C49.6706 44.8883 49.3519 44.8249 49.0302 44.8252Z" fill="white"/>
</svg>
