<svg width="220" height="45" viewBox="0 0 220 45" fill="none" xmlns="http://www.w3.org/2000/svg">
<path d="M204.923 20.1897C204.923 13.5637 200.389 9.13379 194.795 9.13379C193.115 9.13366 191.451 9.4644 189.899 10.1073C188.346 10.7502 186.936 11.6927 185.748 12.8807C184.559 14.0688 183.617 15.4792 182.974 17.0315C182.331 18.5838 182 20.2475 182 21.9277V22.9857C182 24.5068 182.3 26.013 182.882 27.4182C183.464 28.8235 184.317 30.1003 185.393 31.1758C186.468 32.2513 187.745 33.1044 189.15 33.6864C190.556 34.2684 192.062 34.5679 193.583 34.5677H194.007C196.863 34.5374 199.624 33.5335 201.832 31.7218L201.491 29.4678C200.34 30.2308 198.986 30.63 197.605 30.6138C188.953 30.6138 189.43 20.2137 189.43 20.2137L204.923 20.1897ZM194.076 10.8278C194.076 10.8278 197.84 10.1948 198.012 17.7278L189.591 18.1577C189.667 16.3997 190.214 10.8278 194.076 10.8278Z" fill="white"/>
<path d="M219.828 35.141L205.46 25.5L207.778 35.145L205.46 44.791L219.828 35.141Z" fill="white"/>
<path d="M62.3529 12.8111V9.21113L52.3979 11.3361L54.9789 13.919V30.757L51.7119 34.022H65.6289L62.3529 30.757V15.2341C62.3529 15.2341 62.8529 13.4521 65.8649 13.4521C68.8769 13.4521 70.9549 17.1 70.9549 17.1L72.4809 9.42304C70.6451 8.97431 68.7197 9.05434 66.9275 9.65388C65.1352 10.2534 63.5492 11.3481 62.3529 12.8111Z" fill="white"/>
<path d="M114.762 30.6141C106.11 30.6141 106.587 20.2141 106.587 20.2141C106.587 20.2141 106.287 10.8301 112.307 10.8301C112.915 10.8143 113.521 10.8984 114.101 11.0791L119.417 16.4211L120.323 10.8212C120.323 10.8212 117.405 9.14014 111.951 9.14014C110.271 9.14014 108.607 9.47104 107.055 10.114C105.503 10.757 104.093 11.6994 102.905 12.8875C101.717 14.0755 100.775 15.4859 100.132 17.0381C99.4889 18.5903 99.1581 20.254 99.1582 21.9341V22.9921C99.1581 24.5131 99.4576 26.0194 100.04 27.4247C100.622 28.83 101.475 30.1069 102.55 31.1825C103.626 32.2581 104.902 33.1112 106.308 33.6934C107.713 34.2755 109.219 34.5751 110.74 34.5751H111.165C115.565 34.5751 120.032 31.9751 121.765 28.2261L120.602 27.6471C119.934 28.5692 119.056 29.3192 118.04 29.8351C117.025 30.351 115.901 30.618 114.762 30.6141Z" fill="white"/>
<path d="M139.574 28.8998C139.284 29.3723 138.881 29.7656 138.401 30.0448C137.922 30.324 137.381 30.4803 136.827 30.4998C134.913 30.4998 133.746 29.4318 133.746 26.7848V12.5117H139.176L139.46 11.3018L139.64 10.5377H133.747V3.25781L126.41 4.82678V10.5377H123.756L123.292 12.5117H126.41V26.9308C126.41 32.3438 129.01 34.5508 133.49 34.5508C136.812 34.5508 139.829 31.8288 140.838 29.4568L140.904 29.3027L139.675 28.7297L139.574 28.8998Z" fill="white"/>
<path d="M14.6631 0.270996H0.787109L4.62811 4.12695V30.162L0.787109 34.017H14.6631C24.4491 34.017 33.2281 29.564 33.2281 17.766V16.5229C33.2281 5.04295 24.5121 0.270996 14.6631 0.270996ZM22.5401 27.801C19.2531 32.353 12.4251 32.053 12.4251 32.053V2.23596C12.4251 2.23596 19.2531 1.93604 22.5401 6.48804C25.3691 10.407 25.2301 14.121 25.2301 16.809C25.2301 19.497 25.3691 23.883 22.5401 27.801Z" fill="white"/>
<path d="M96.0636 20.1908C96.0636 13.5638 91.5296 9.13379 85.9356 9.13379C82.5426 9.13405 79.2886 10.482 76.8895 12.8813C74.4904 15.2807 73.1426 18.5347 73.1426 21.9277V22.9857C73.1426 24.5068 73.4422 26.013 74.0243 27.4183C74.6064 28.8236 75.4596 30.1006 76.5352 31.1761C77.6108 32.2517 78.8876 33.1049 80.2929 33.687C81.6983 34.2691 83.2045 34.5687 84.7256 34.5687H85.1496C89.5496 34.5687 94.0166 31.9687 95.7496 28.2197L94.5866 27.6407C93.9191 28.5631 93.0419 29.3137 92.0274 29.8306C91.0129 30.3475 89.8901 30.6159 88.7516 30.6138C80.0986 30.6138 80.5766 20.2137 80.5766 20.2137L96.0636 20.1908ZM85.2166 10.8278C85.2166 10.8278 88.9806 10.1948 89.1526 17.7278L80.7316 18.1577C80.8076 16.3997 81.3546 10.8278 85.2166 10.8278Z" fill="white"/>
<path d="M167.485 13.0227L170.658 9.8418H156.158L159.346 13.0227L168.168 34.0167H170.373L173.033 27.5627L167.502 13.0558L167.485 13.0227Z" fill="white"/>
<path d="M173.4 9.8418L178.029 14.4718L182.658 9.8418H173.4Z" fill="white"/>
<path d="M46.5217 9.20605L36.5637 11.3311L39.1477 13.9139V30.752L35.8887 34.0179H49.7887L46.5217 30.752V9.20605Z" fill="white"/>
<path d="M153.444 9.20605L143.486 11.3311L146.07 13.9139V30.752L142.811 34.0179H156.711L153.445 30.752L153.444 9.20605Z" fill="white"/>
</svg>
