<svg width="189" height="57" viewBox="0 0 189 57" fill="none" xmlns="http://www.w3.org/2000/svg">
<path d="M56.0826 0H60.3919C62.7949 0 64.3036 2.60183 63.1021 4.68872L50.9422 25.8557C50.382 26.8223 49.3522 27.4276 48.2319 27.4276H44.1666C41.7725 27.4276 40.2728 24.8529 41.4382 22.766L53.3543 1.59001C53.9054 0.605287 54.9533 0 56.0826 0Z" fill="white"/>
<path d="M38.9258 12.6568C40.1273 14.7437 43.1357 14.7437 44.3372 12.6568L46.6409 8.67277L48.9446 4.68872C50.1462 2.60183 48.6465 0 46.2344 0H37.0286C34.6255 0 33.1168 2.60183 34.3184 4.68872L36.6221 8.67277L38.9258 12.6568Z" fill="white"/>
<path d="M37.0388 51.0152L34.8797 54.7463C33.6781 56.8242 30.6698 56.8332 29.4682 54.7463L17.2179 33.6336C16.6578 32.6669 16.6578 31.4744 17.2179 30.4987L19.2506 26.9754C20.4431 24.9066 23.4334 24.8885 24.653 26.9483L37.0208 47.8533C37.599 48.829 37.599 50.0305 37.0388 51.0062V51.0152Z" fill="white"/>
<path d="M34.6448 29.8301C32.2417 29.8301 30.733 32.4319 31.9346 34.5188L34.2383 38.5028L36.542 42.4869C37.7435 44.5738 40.7519 44.5738 41.9534 42.4869L44.2572 38.5028L46.5609 34.5188C47.7624 32.4319 46.2627 29.8301 43.8506 29.8301H39.2522H34.6539H34.6448Z" fill="white"/>
<path d="M2.58238 8.47402L0.423217 4.74292C-0.778323 2.65604 0.721344 0.0542048 3.12442 0.0542048L27.5347 0C28.6549 0 29.6848 0.596253 30.2449 1.56291L32.2776 5.08622C33.4701 7.15503 31.9975 9.74783 29.6035 9.77493L5.31972 10.0369C4.19045 10.046 3.14249 9.44971 2.58238 8.47402Z" fill="white"/>
<path d="M22.1143 17.0022C23.3159 14.9153 21.8162 12.3135 19.4041 12.3135H14.8057H10.2073C7.80425 12.3135 6.29555 14.9153 7.49709 17.0022L9.80079 20.9862L12.1045 24.9703C13.306 27.0572 16.3144 27.0572 17.5159 24.9703L19.8196 20.9862L22.1234 17.0022H22.1143Z" fill="white"/>
<path d="M73.301 33.1371V21.1397C73.301 17.4538 74.358 14.8068 76.472 13.1897C78.586 11.5816 82.0099 10.7686 86.7438 10.7686C91.2248 10.7686 94.459 11.5455 96.4465 13.0903C98.434 14.6442 99.4277 17.3183 99.4277 21.1307V27.8521H79.0106V32.4414C79.0106 34.5374 79.7424 36.0461 81.2059 36.9675C82.6694 37.889 84.937 38.3498 87.9905 38.3498C90.8815 38.3498 94.2964 37.8439 98.2352 36.8411V41.1775C94.3777 42.0176 90.7188 42.4332 87.2407 42.4332C77.9446 42.4332 73.292 39.3345 73.292 33.1371H73.301ZM93.7814 24.1481V19.3691C93.7814 17.5261 93.2213 16.2613 92.1191 15.5657C91.0079 14.8701 89.1108 14.5268 86.4367 14.5268C83.7626 14.5268 81.9557 14.8701 80.7813 15.5657C79.6069 16.2523 79.0196 17.5261 79.0196 19.3691V24.1481H93.7814Z" fill="white"/>
<path d="M104.279 11.4009H109.935V15.1049C110.522 12.214 113.846 10.7686 119.926 10.7686C123.82 10.7686 126.557 11.4732 128.129 12.8735C129.701 14.2738 130.487 16.4872 130.487 19.5046V41.8098H124.832V19.8117C124.832 19.0167 124.769 18.3663 124.642 17.8604C124.516 17.3544 124.263 16.8576 123.892 16.3517C123.052 15.3037 121.191 14.7797 118.3 14.7797C116.078 14.7797 114.37 14.9333 113.178 15.2495C111.985 15.5657 111.145 16.0806 110.666 16.7853C110.188 17.499 109.944 18.5018 109.944 19.8027V41.7918H104.288V11.4009H104.279Z" fill="white"/>
<path d="M134.118 37.9705L151.211 15.2226H134.751V11.3921H157.625V15.2226L140.532 37.9705H157.995V41.801H134.118V37.9705Z" fill="white"/>
<path d="M172.603 42.2437L160.85 11.3921H167.011L175.494 36.2089H175.62L183.281 11.3921H189L173.732 54.8734H167.824L172.603 42.2437Z" fill="white"/>
</svg>
