<svg width="220" height="48" viewBox="0 0 220 48" fill="none" xmlns="http://www.w3.org/2000/svg">
<path d="M47.5701 39.8L73.3141 7.53096C73.4756 7.31912 73.6847 7.14826 73.9244 7.03206C74.1641 6.91585 74.4277 6.8576 74.6941 6.86201H78.6681C78.7359 6.85275 78.805 6.85921 78.8698 6.88106C78.9347 6.90291 78.9937 6.93945 79.0421 6.98787C79.0905 7.03628 79.1272 7.09522 79.149 7.16011C79.1709 7.225 79.1773 7.29418 79.1681 7.36201V35.6379C79.1773 35.7057 79.1709 35.7749 79.149 35.8398C79.1272 35.9047 79.0905 35.9636 79.0421 36.012C78.9937 36.0605 78.9347 36.097 78.8698 36.1188C78.805 36.1407 78.7359 36.1472 78.6681 36.1379H74.6941C74.4277 36.1423 74.1641 36.0841 73.9244 35.9678C73.6847 35.8516 73.4756 35.6808 73.3141 35.4689L66.0781 26.015L54.5551 39.7149C54.3935 39.9266 54.1844 40.0973 53.9447 40.2133C53.705 40.3294 53.4414 40.3875 53.1751 40.383H47.8631C47.7956 40.3839 47.7292 40.3668 47.6704 40.3338C47.6116 40.3008 47.5625 40.2529 47.5281 40.1949C47.4879 40.1345 47.4701 40.062 47.4778 39.9898C47.4855 39.9177 47.5181 39.8506 47.5701 39.8ZM69.549 21.5L73.8581 27.0999V15.9L69.549 21.5Z" fill="white"/>
<path d="M100.4 6.86133H119.756C119.892 6.86133 120.022 6.91533 120.118 7.01135C120.214 7.10737 120.268 7.23762 120.268 7.37341V11.6614C120.268 11.7972 120.214 11.9274 120.118 12.0234C120.022 12.1195 119.892 12.1733 119.756 12.1733H105.756V18.8663H116.213C116.346 18.8663 116.473 18.919 116.567 19.0128C116.661 19.1066 116.713 19.2337 116.713 19.3663V23.6323C116.713 23.995 116.547 24.1764 116.213 24.1764H105.756V35.6373C105.756 35.9713 105.574 36.1373 105.212 36.1373H100.9C100.768 36.1373 100.641 36.0847 100.547 35.991C100.453 35.8972 100.4 35.7699 100.4 35.6373V6.85938V6.86133Z" fill="white"/>
<path d="M121.773 6.86133H126.081C126.444 6.86133 126.625 7.02799 126.625 7.36133V35.6373C126.625 35.9713 126.444 36.1373 126.081 36.1373H121.773C121.64 36.1373 121.513 36.0847 121.419 35.991C121.326 35.8972 121.273 35.7699 121.273 35.6373V7.36133C121.273 7.22872 121.326 7.10158 121.419 7.00781C121.513 6.91404 121.64 6.86133 121.773 6.86133Z" fill="white"/>
<path d="M130.014 35.6391V7.36315C130.014 7.23054 130.067 7.10328 130.161 7.00951C130.254 6.91574 130.382 6.86315 130.514 6.86315H134.487C134.754 6.85858 135.018 6.91673 135.258 7.03295C135.497 7.14916 135.707 7.32012 135.868 7.53209L150.926 27.1081V7.3651C150.917 7.29726 150.924 7.22821 150.945 7.16332C150.967 7.09843 151.004 7.03949 151.052 6.99108C151.101 6.94266 151.16 6.90612 151.224 6.88427C151.289 6.86241 151.358 6.85584 151.426 6.8651H155.734C155.802 6.85562 155.871 6.862 155.936 6.88378C156.001 6.90555 156.06 6.94213 156.109 6.99059C156.157 7.03905 156.194 7.09809 156.216 7.16307C156.237 7.22806 156.244 7.29722 156.234 7.3651V35.6411C156.244 35.7089 156.237 35.778 156.215 35.8429C156.193 35.9078 156.157 35.9667 156.108 36.0151C156.06 36.0635 156.001 36.1001 155.936 36.1219C155.871 36.1438 155.802 36.1504 155.734 36.1411H151.761C151.495 36.1457 151.231 36.0875 150.991 35.9713C150.751 35.8551 150.542 35.6841 150.38 35.4722L135.364 15.8951V35.6391C135.364 35.9731 135.182 36.1391 134.82 36.1391H130.512C130.38 36.1391 130.252 36.0864 130.159 35.9927C130.065 35.8989 130.012 35.7718 130.012 35.6391H130.014Z" fill="white"/>
<path d="M160.13 6.86133H164.438C164.8 6.86133 164.982 7.02833 164.982 7.36133V35.6373C164.982 35.9713 164.8 36.1373 164.438 36.1373H160.13C159.997 36.1373 159.87 36.0847 159.776 35.991C159.683 35.8972 159.63 35.7699 159.63 35.6373V7.36133C159.63 7.22872 159.683 7.10158 159.776 7.00781C159.87 6.91404 159.997 6.86133 160.13 6.86133Z" fill="white"/>
<path d="M166.906 7.27904C166.906 7.14643 166.959 7.01917 167.053 6.9254C167.147 6.83164 167.274 6.77904 167.406 6.77904H185.56C185.827 6.77463 186.09 6.83288 186.33 6.94909C186.57 7.06529 186.779 7.23615 186.94 7.44799L190.035 11.506C190.088 11.5569 190.122 11.6234 190.133 11.6955C190.145 11.7676 190.132 11.8415 190.098 11.906C190.063 11.9682 190.011 12.019 189.948 12.0524C189.885 12.0857 189.813 12.1001 189.742 12.094H180.415V35.56C180.425 35.6279 180.418 35.6969 180.396 35.7618C180.374 35.8267 180.338 35.8857 180.289 35.9341C180.241 35.9825 180.182 36.019 180.117 36.0409C180.052 36.0627 179.983 36.0693 179.915 36.06H175.606C175.538 36.0695 175.469 36.063 175.404 36.0412C175.339 36.0195 175.28 35.9829 175.232 35.9344C175.183 35.886 175.147 35.8269 175.125 35.762C175.103 35.697 175.097 35.6279 175.106 35.56V12.094H167.406C167.274 12.094 167.147 12.0413 167.053 11.9475C166.959 11.8537 166.906 11.7266 166.906 11.594V7.27904Z" fill="white"/>
<path d="M186.848 2.83616H192.161C192.427 2.83187 192.691 2.89019 192.931 3.00657C193.171 3.12295 193.38 3.29406 193.541 3.50608L203.632 18.6151L212.206 7.44614C212.368 7.23417 212.577 7.06309 212.817 6.94688C213.057 6.83066 213.321 6.77251 213.587 6.77708H218.899C218.973 6.77219 219.046 6.78949 219.109 6.82676C219.173 6.86403 219.223 6.91954 219.255 6.98606C219.29 7.04642 219.303 7.11708 219.291 7.18589C219.28 7.2547 219.245 7.31742 219.192 7.36314L206.309 24.1781V35.5552C206.309 35.6878 206.256 35.8149 206.163 35.9087C206.069 36.0024 205.942 36.0552 205.809 36.0552H201.5C201.138 36.0552 200.957 35.8885 200.957 35.5552V24.1781L186.557 3.4221C186.504 3.37629 186.47 3.31202 186.462 3.24229C186.454 3.17255 186.473 3.10252 186.515 3.04612C186.546 2.98404 186.594 2.93165 186.652 2.89463C186.711 2.85761 186.779 2.83742 186.848 2.83616Z" fill="white"/>
<path d="M81.8481 6.86133H118.474V12.1733H86.7001V18.8663H97.1571C97.2249 18.8571 97.294 18.8636 97.3589 18.8855C97.4238 18.9073 97.4827 18.9439 97.5311 18.9923C97.5795 19.0407 97.6161 19.0997 97.6379 19.1646C97.6598 19.2294 97.6664 19.2985 97.6571 19.3663V23.6323C97.6571 23.9953 97.4891 24.1764 97.1571 24.1764H86.7001V35.6373C86.7001 35.9713 86.5181 36.1373 86.1561 36.1373H81.8481C81.7155 36.1373 81.5884 36.0847 81.4946 35.991C81.4009 35.8972 81.3481 35.7699 81.3481 35.6373V7.36133C81.3481 7.22872 81.4009 7.10158 81.4946 7.00781C81.5884 6.91404 81.7155 6.86133 81.8481 6.86133Z" fill="white"/>
<path d="M6.36694 13.8998L41.202 39.5278C41.5009 39.7558 41.742 40.051 41.906 40.3893C42.07 40.7277 42.1522 41.0998 42.1459 41.4758V47.0759C42.1598 47.1721 42.1511 47.2702 42.1204 47.3625C42.0898 47.4548 42.038 47.5387 41.9693 47.6075C41.9006 47.6763 41.8168 47.7281 41.7245 47.7588C41.6323 47.7896 41.5342 47.7986 41.4379 47.7848H1.54595C1.44969 47.7986 1.35157 47.7896 1.25933 47.7588C1.1671 47.7281 1.08329 47.6763 1.01458 47.6075C0.945875 47.5387 0.89412 47.4548 0.86346 47.3625C0.832799 47.2702 0.82408 47.1721 0.837947 47.0759V41.4758C0.831587 41.0999 0.913593 40.7278 1.07739 40.3895C1.24118 40.0511 1.48218 39.7559 1.78094 39.5278L15.119 29.3188L6.48492 23.7538C6.18611 23.5259 5.94503 23.2309 5.78106 22.8928C5.6171 22.5546 5.53486 22.1826 5.54095 21.8068V14.3118C5.54018 14.2168 5.56435 14.1232 5.61102 14.0403C5.65769 13.9575 5.72523 13.8884 5.80694 13.8398C5.8925 13.7825 5.99547 13.7572 6.09783 13.7681C6.2002 13.7791 6.29545 13.8258 6.36694 13.8998ZM21.4919 34.2169L13.5839 40.2949H29.4L21.4919 34.2169Z" fill="white"/>
<path d="M36.616 33.958L1.78097 8.32991C1.48221 8.10175 1.24122 7.8067 1.07742 7.46834C0.913626 7.12998 0.83162 6.75778 0.83798 6.38191V0.775954C0.824071 0.679748 0.83277 0.581577 0.863432 0.489333C0.894093 0.397089 0.94588 0.313317 1.01462 0.244582C1.08335 0.175847 1.16712 0.124121 1.25937 0.0934592C1.35161 0.0627976 1.44978 0.0540372 1.54599 0.0679465H41.438C41.5341 0.0542525 41.6322 0.0630876 41.7243 0.0938254C41.8165 0.124563 41.9002 0.176385 41.9688 0.24507C42.0375 0.313756 42.0893 0.397433 42.12 0.489577C42.1508 0.581722 42.1597 0.679788 42.146 0.775954V6.38191C42.1522 6.75786 42.07 7.13009 41.906 7.46846C41.7421 7.80682 41.5009 8.10185 41.202 8.32991L27.865 18.5389L36.498 24.104C36.7966 24.3318 37.0377 24.6266 37.2016 24.9646C37.3656 25.3025 37.4479 25.6744 37.442 26.05V33.55C37.4431 33.645 37.4191 33.7385 37.3723 33.8212C37.3256 33.904 37.2579 33.9728 37.176 34.021C37.0902 34.078 36.9869 34.103 36.8845 34.0915C36.7821 34.08 36.687 34.0327 36.616 33.958ZM21.491 13.6409L29.399 7.56196H13.584L21.491 13.6409Z" fill="white"/>
</svg>
