<svg width="79" height="98" viewBox="0 0 79 98" fill="none" xmlns="http://www.w3.org/2000/svg">
<path d="M24.6713 28.1143V21.3398C24.6734 19.0115 25.599 16.7796 27.245 15.1328C28.891 13.4861 31.123 12.5593 33.4513 12.5562H45.2262C47.5546 12.5604 49.7863 13.4869 51.4327 15.1333C53.0791 16.7797 54.006 19.0115 54.0103 21.3398V28.1143H66.5742V21.3398C66.5673 15.6807 64.3156 10.2557 60.3131 6.25488C56.3106 2.25409 50.8844 0.00449857 45.2252 0H33.4642C27.8051 0.00449857 22.3788 2.25409 18.3763 6.25488C14.3739 10.2557 12.1221 15.6807 12.1152 21.3398V28.1143H24.6713Z" fill="white"/>
<path d="M72.2322 32.9229H6.45619C5.6228 32.9232 4.79766 33.0882 4.02796 33.4077C3.25827 33.7272 2.55911 34.1952 1.97047 34.7852C1.38183 35.3751 0.915252 36.0753 0.597422 36.8457C0.279592 37.6161 0.116728 38.4415 0.118174 39.2749V91.1831C0.118174 92.8641 0.785798 94.4763 1.97437 95.665C3.16295 96.8538 4.77515 97.5217 6.45619 97.522H72.2322C73.9132 97.5217 75.5253 96.8538 76.7139 95.665C77.9025 94.4763 78.5701 92.8641 78.5701 91.1831V39.2749C78.5715 38.4415 78.4088 37.6161 78.091 36.8457C77.7731 36.0753 77.3065 35.3751 76.7179 34.7852C76.1293 34.1952 75.4301 33.7272 74.6604 33.4077C73.8907 33.0882 73.0656 32.9232 72.2322 32.9229ZM48.9882 77.04C46.851 78.9171 44.1199 79.9795 41.2761 80.04V84.2031H36.5331V79.9399C34.0352 79.8182 31.6435 78.8933 29.7141 77.3022C28.0945 75.6831 27.1489 73.51 27.0681 71.2212H34.1001C34.1641 71.7434 34.3436 72.2448 34.6255 72.689C34.9074 73.1332 35.2848 73.5089 35.7301 73.7891C37.027 74.4313 38.4714 74.7172 39.9152 74.6172C41.0748 74.6689 42.2192 74.338 43.1721 73.6753C43.5693 73.3928 43.8911 73.0169 44.1093 72.5811C44.3274 72.1452 44.4351 71.6626 44.4231 71.1753C44.4267 70.745 44.3445 70.3181 44.1814 69.9199C44.0183 69.5218 43.7776 69.1601 43.4732 68.856C42.4527 67.9763 41.2585 67.3215 39.9682 66.9341C38.4808 66.4007 36.9928 65.8205 35.5042 65.1938C33.9836 64.571 32.5167 63.8246 31.1182 62.9619C29.9493 62.2332 28.9646 61.2444 28.2411 60.0723C27.4385 58.4315 27.1538 56.5852 27.4247 54.7788C27.6956 52.9724 28.5095 51.2911 29.7582 49.958C31.6365 48.2759 34.0086 47.2466 36.5202 47.0239V42.73H41.2631V46.8931C44.5064 47.1331 46.8981 47.9816 48.4381 49.439C49.2209 50.2073 49.84 51.1261 50.2582 52.1401C50.6763 53.1541 50.8848 54.2421 50.8711 55.3389H43.9441C44.0101 54.82 43.9276 54.2932 43.7062 53.8193C43.4848 53.3455 43.1335 52.9443 42.6931 52.6621C41.6287 51.9949 40.3861 51.6681 39.1311 51.7251C37.8424 51.6393 36.5561 51.925 35.4252 52.5488C35.0332 52.8079 34.7151 53.1643 34.502 53.583C34.2888 54.0017 34.1879 54.4686 34.2091 54.938C34.1523 55.7256 34.392 56.506 34.8811 57.126C35.6201 57.8726 36.5103 58.4525 37.4921 58.8262C38.3752 59.2562 39.2851 59.6287 40.2161 59.9419C41.1671 60.2559 42.1001 60.5829 43.0061 60.9229C43.9121 61.2629 44.8162 61.6381 45.7062 62.0391C46.5776 62.4428 47.4043 62.9366 48.1731 63.5122C49.2969 64.2761 50.2136 65.3069 50.8411 66.5122C51.3772 67.6804 51.6441 68.9541 51.6221 70.2393C51.6785 71.4933 51.4737 72.7454 51.0204 73.916C50.5671 75.0866 49.8754 76.15 48.9891 77.0391L48.9882 77.04Z" fill="white"/>
</svg>
