<svg width="368" height="368" viewBox="0 0 368 368" fill="none" xmlns="http://www.w3.org/2000/svg">
<path d="M120.578 119.05C120.187 119.049 119.805 118.933 119.48 118.716C119.155 118.498 118.902 118.189 118.752 117.828C118.602 117.467 118.563 117.069 118.639 116.686C118.716 116.302 118.904 115.95 119.18 115.673C135.856 98.9971 158.35 89.4406 181.929 89.0149C205.509 88.5891 228.333 97.3273 245.6 113.39C245.973 113.75 246.189 114.242 246.203 114.76C246.216 115.279 246.026 115.781 245.672 116.16C245.319 116.54 244.831 116.765 244.313 116.788C243.796 116.811 243.289 116.63 242.904 116.284C226.817 101.254 205.611 92.9128 183.596 92.9564C183.1 92.9564 182.603 92.9605 182.106 92.9689C159.504 93.3024 137.926 102.453 121.975 118.47C121.792 118.654 121.574 118.8 121.334 118.899C121.094 118.999 120.837 119.05 120.578 119.05Z" fill="black"/>
<path d="M244.813 99.3389L241.857 99.6298L243.305 114.184L228.678 114.564L228.758 117.533L246.572 117.067L244.813 99.3389Z" fill="black"/>
<path d="M247.042 249.855C247.433 249.856 247.815 249.972 248.14 250.189C248.465 250.407 248.719 250.716 248.869 251.077C249.018 251.438 249.058 251.836 248.981 252.22C248.905 252.603 248.717 252.956 248.441 253.233C231.765 269.908 209.271 279.465 185.691 279.891C162.112 280.316 139.287 271.578 122.02 255.515C121.83 255.338 121.677 255.126 121.569 254.889C121.461 254.653 121.401 254.398 121.392 254.138C121.383 253.878 121.425 253.62 121.516 253.376C121.606 253.133 121.744 252.91 121.921 252.72C122.098 252.53 122.311 252.376 122.547 252.269C122.784 252.161 123.039 252.1 123.299 252.091C123.558 252.082 123.817 252.124 124.06 252.215C124.304 252.306 124.527 252.444 124.717 252.621C140.803 267.652 162.009 275.993 184.025 275.949C184.521 275.949 185.015 275.949 185.515 275.937C208.118 275.603 229.696 266.452 245.647 250.435C245.83 250.252 246.047 250.106 246.287 250.007C246.526 249.907 246.782 249.856 247.042 249.855Z" fill="black"/>
<path d="M122.81 269.567L125.765 269.277L124.318 254.723L138.945 254.342L138.865 251.373L121.051 251.839L122.81 269.567Z" fill="black"/>
<path d="M121.05 247.879C121.05 248.27 120.934 248.652 120.716 248.978C120.499 249.303 120.19 249.557 119.828 249.706C119.467 249.856 119.069 249.895 118.685 249.818C118.302 249.742 117.949 249.553 117.673 249.277C100.997 232.601 91.4406 210.106 91.0149 186.527C90.5891 162.948 99.3271 140.123 115.39 122.856C115.748 122.472 116.243 122.246 116.768 122.228C117.292 122.209 117.802 122.4 118.186 122.758C118.57 123.115 118.796 123.611 118.814 124.135C118.833 124.66 118.642 125.17 118.285 125.554C103.254 141.64 94.9124 162.845 94.9562 184.861C94.9562 185.357 94.9562 185.852 94.9688 186.351C95.3047 208.953 104.458 230.53 120.477 246.479C120.846 246.851 121.052 247.355 121.05 247.879Z" fill="black"/>
<path d="M101.34 123.646L101.631 126.601L116.185 125.154L116.565 139.781L119.534 139.701L119.068 121.887L101.34 123.646Z" fill="black"/>
<path d="M246.57 122.486C246.57 122.095 246.686 121.712 246.904 121.387C247.121 121.062 247.43 120.808 247.791 120.659C248.152 120.509 248.55 120.469 248.934 120.546C249.317 120.622 249.67 120.81 249.946 121.087C266.623 137.762 276.179 160.257 276.605 183.836C277.031 207.415 268.293 230.24 252.23 247.507C252.053 247.697 251.841 247.851 251.604 247.958C251.368 248.066 251.113 248.127 250.853 248.136C250.593 248.145 250.335 248.103 250.091 248.012C249.848 247.921 249.625 247.783 249.435 247.606C249.245 247.429 249.091 247.217 248.983 246.98C248.876 246.744 248.815 246.489 248.806 246.229C248.797 245.97 248.839 245.711 248.93 245.467C249.021 245.224 249.159 245.001 249.336 244.811C264.364 228.725 272.704 207.52 272.661 185.506C272.661 185.01 272.66 184.516 272.648 184.016C272.315 161.413 263.164 139.835 247.147 123.884C246.963 123.7 246.818 123.482 246.719 123.242C246.62 123.002 246.569 122.745 246.57 122.486Z" fill="black"/>
<path d="M266.281 246.717L265.99 243.762L251.437 245.209L251.056 230.582L248.087 230.662L248.553 248.476L266.281 246.717Z" fill="black"/>
<path d="M223.087 220.365H145.996L155.601 215.838C155.841 215.724 156.058 215.569 156.245 215.38L218.21 153.437L223.323 148.324C224.648 146.996 225.393 145.197 225.393 143.321C225.393 141.445 224.648 139.645 223.323 138.317L220.049 135.08C219.393 134.421 218.613 133.898 217.754 133.541C216.895 133.184 215.974 133 215.043 133C214.113 133 213.192 133.184 212.333 133.541C211.474 133.898 210.694 134.421 210.038 135.08L204.945 140.173L142.98 202.13C142.792 202.317 142.637 202.535 142.522 202.774L133.616 221.684V221.702C133.567 221.802 133.529 221.907 133.502 222.015V222.05L133.448 222.328V222.381C133.406 222.473 133.387 222.575 133.394 222.676V222.766C133.394 222.859 133.412 222.949 133.412 223.042V223.096C133.427 223.202 133.451 223.306 133.483 223.408C133.483 223.427 133.502 223.427 133.502 223.445C133.538 223.538 133.574 223.628 133.616 223.721C133.616 223.739 133.634 223.739 133.634 223.757C133.688 223.85 133.749 223.941 133.799 224.016C133.818 224.033 133.818 224.052 133.836 224.07C133.893 224.158 133.961 224.239 134.038 224.311C134.047 224.321 134.059 224.327 134.073 224.329C134.119 224.376 134.168 224.419 134.221 224.458L134.275 224.512C134.315 224.547 134.358 224.579 134.404 224.605C134.421 224.623 134.439 224.623 134.458 224.642C134.493 224.659 134.551 224.695 134.587 224.713C134.604 224.731 134.623 224.731 134.641 224.749C134.695 224.766 134.734 224.803 134.788 224.821C134.806 224.821 134.824 224.838 134.843 224.838L135.007 224.892C135.017 224.891 135.027 224.892 135.036 224.895C135.046 224.898 135.054 224.904 135.061 224.911C135.114 224.931 135.17 224.943 135.226 224.946C135.252 224.943 135.277 224.95 135.298 224.964C135.352 224.964 135.392 224.983 135.446 224.983C135.517 224.983 135.593 225 135.646 225H223.038C223.645 224.994 224.226 224.75 224.655 224.321C225.085 223.892 225.329 223.311 225.335 222.704C225.341 222.097 225.109 221.511 224.688 221.073C224.267 220.635 223.691 220.38 223.084 220.362L223.087 220.365ZM150.56 201.068L200.915 150.719L207.648 157.452L157.312 207.819C157.198 207.309 156.913 206.852 156.505 206.524C156.097 206.197 155.59 206.017 155.066 206.016H152.384V203.328C152.375 202.802 152.191 202.295 151.861 201.885C151.531 201.476 151.074 201.188 150.563 201.068H150.56ZM206.581 145.07L213.316 151.804L210.922 154.197L204.188 147.463L206.581 145.07ZM213.316 138.337C213.545 138.108 213.818 137.927 214.117 137.804C214.417 137.681 214.738 137.618 215.062 137.619C215.715 137.62 216.342 137.878 216.808 138.337L220.045 141.592C220.504 142.054 220.762 142.679 220.762 143.331C220.762 143.983 220.504 144.608 220.045 145.07L216.568 148.549L209.833 141.815L213.316 138.337ZM146.291 205.63H147.764V208.319C147.765 208.928 148.008 209.513 148.439 209.944C148.87 210.375 149.455 210.617 150.064 210.618H152.752V212.091L142.651 216.856L141.53 215.735L146.291 205.63Z" fill="url(#paint0_linear_163_71)"/>
<defs>
<linearGradient id="paint0_linear_163_71" x1="133.393" y1="179" x2="225.393" y2="179" gradientUnits="userSpaceOnUse">
<stop stop-color="#00FFA6"/>
<stop offset="1" stop-color="#5199FF"/>
</linearGradient>
</defs>
</svg>
