<svg width="368" height="228" viewBox="0 0 368 228" fill="none" xmlns="http://www.w3.org/2000/svg">
<path d="M218.777 184.229L258.653 154.486H322.911V39.1591H172.767V154.486H217.243L218.777 184.229ZM214.122 194.138L212.343 159.645H167.607V34H328.07V159.645H260.365L214.122 194.138Z" fill="black"/>
<path d="M254.078 117.979H241.603V130.453H254.078V117.979Z" fill="url(#paint0_linear_163_48)"/>
<path d="M254.078 58.666H241.603V108.58H254.078V58.666Z" fill="url(#paint1_linear_163_48)"/>
<path d="M254.078 117.979H241.603V130.453H254.078V117.979Z" fill="url(#paint2_linear_163_48)"/>
<path d="M254.078 58.666H241.603V108.58H254.078V58.666Z" fill="url(#paint3_linear_163_48)"/>
<path d="M78 69.2412H146" stroke="black" stroke-width="5" stroke-miterlimit="10"/>
<path d="M40 98.2412H108" stroke="black" stroke-width="5" stroke-miterlimit="10"/>
<path d="M78 128.241H146" stroke="black" stroke-width="5" stroke-miterlimit="10"/>
<defs>
<linearGradient id="paint0_linear_163_48" x1="241.603" y1="124.216" x2="254.078" y2="124.216" gradientUnits="userSpaceOnUse">
<stop stop-color="#00FFA6"/>
<stop offset="1" stop-color="#5199FF"/>
</linearGradient>
<linearGradient id="paint1_linear_163_48" x1="241.603" y1="83.6228" x2="254.078" y2="83.6228" gradientUnits="userSpaceOnUse">
<stop stop-color="#00FFA6"/>
<stop offset="1" stop-color="#5199FF"/>
</linearGradient>
<linearGradient id="paint2_linear_163_48" x1="247.84" y1="58.6725" x2="247.84" y2="130.453" gradientUnits="userSpaceOnUse">
<stop stop-color="#00FFA6"/>
<stop offset="1" stop-color="#5199FF"/>
</linearGradient>
<linearGradient id="paint3_linear_163_48" x1="247.84" y1="58.666" x2="247.84" y2="130.442" gradientUnits="userSpaceOnUse">
<stop stop-color="#00FFA6"/>
<stop offset="1" stop-color="#5199FF"/>
</linearGradient>
</defs>
</svg>
