<svg width="368" height="368" viewBox="0 0 368 368" fill="none" xmlns="http://www.w3.org/2000/svg">
<path d="M184.212 141.704L197.998 169.53L228.824 173.991L206.517 195.651L211.784 226.234L184.212 211.794L156.639 226.234L161.904 195.651L139.596 173.991L170.423 169.53L184.21 141.704M184.21 128.728L179.04 139.161L166.595 164.279L138.768 168.307L127.209 169.98L135.573 178.101L155.709 197.653L150.956 225.261L148.981 236.728L159.319 231.314L184.21 218.279L209.099 231.314L219.437 236.728L217.462 225.261L212.709 197.653L232.846 178.101L241.209 169.98L229.652 168.307L201.823 164.279L189.378 139.161L184.21 128.728Z" fill="url(#paint0_linear_163_53)"/>
<path d="M235.994 94H132.494C113.443 94 98 109.443 98 128.494V239.869C98 258.919 113.443 274.362 132.494 274.362H235.994C255.044 274.362 270.487 258.919 270.487 239.869V128.494C270.487 109.443 255.044 94 235.994 94Z" stroke="black" stroke-width="4.502" stroke-miterlimit="10"/>
<defs>
<linearGradient id="paint0_linear_163_53" x1="127.209" y1="182.728" x2="241.209" y2="182.728" gradientUnits="userSpaceOnUse">
<stop stop-color="#00FFA6"/>
<stop offset="1" stop-color="#5199FF"/>
</linearGradient>
</defs>
</svg>
