<svg width="368" height="228" viewBox="0 0 368 228" fill="none" xmlns="http://www.w3.org/2000/svg">
<path d="M120.578 49.05C120.187 49.0495 119.805 48.9332 119.48 48.7157C119.155 48.4982 118.902 48.1892 118.752 47.8279C118.602 47.4666 118.563 47.0691 118.639 46.6856C118.716 46.302 118.904 45.9496 119.18 45.6728C135.856 28.9971 158.35 19.4406 181.929 19.0149C205.509 18.5891 228.333 27.3273 245.6 43.3901C245.973 43.7504 246.189 44.2424 246.203 44.7605C246.216 45.2785 246.026 45.7813 245.672 46.1605C245.319 46.5396 244.831 46.7649 244.313 46.788C243.796 46.811 243.289 46.6298 242.904 46.2836C226.817 31.2536 205.611 22.9128 183.596 22.9564C183.1 22.9564 182.603 22.9605 182.106 22.9689C159.504 23.3024 137.926 32.4532 121.975 48.47C121.792 48.6538 121.574 48.7997 121.334 48.8992C121.094 48.9987 120.837 49.0499 120.578 49.05Z" fill="black"/>
<path d="M244.813 29.3389L241.857 29.6298L243.305 44.1835L228.678 44.564L228.758 47.5333L246.572 47.0669L244.813 29.3389Z" fill="black"/>
<path d="M247.042 179.855C247.433 179.856 247.815 179.972 248.14 180.189C248.465 180.407 248.719 180.716 248.869 181.077C249.018 181.438 249.058 181.836 248.981 182.22C248.905 182.603 248.717 182.956 248.441 183.233C231.765 199.908 209.271 209.465 185.691 209.891C162.112 210.316 139.287 201.578 122.02 185.515C121.83 185.338 121.677 185.126 121.569 184.889C121.461 184.653 121.401 184.398 121.392 184.138C121.383 183.878 121.425 183.62 121.516 183.376C121.606 183.133 121.744 182.91 121.921 182.72C122.098 182.53 122.311 182.376 122.547 182.269C122.784 182.161 123.039 182.1 123.299 182.091C123.558 182.082 123.817 182.124 124.06 182.215C124.304 182.306 124.527 182.444 124.717 182.621C140.803 197.652 162.009 205.993 184.025 205.949C184.521 205.949 185.015 205.949 185.515 205.937C208.118 205.603 229.696 196.452 245.647 180.435C245.83 180.252 246.047 180.106 246.287 180.007C246.526 179.907 246.782 179.856 247.042 179.855Z" fill="black"/>
<path d="M122.81 199.567L125.765 199.277L124.318 184.723L138.945 184.342L138.865 181.373L121.051 181.839L122.81 199.567Z" fill="black"/>
<path d="M121.05 177.879C121.05 178.27 120.934 178.652 120.716 178.978C120.499 179.303 120.19 179.557 119.828 179.706C119.467 179.856 119.069 179.895 118.685 179.818C118.302 179.742 117.949 179.553 117.673 179.277C100.997 162.601 91.4406 140.106 91.0149 116.527C90.5891 92.9479 99.3271 70.1231 115.39 52.8562C115.748 52.4723 116.243 52.2463 116.768 52.2278C117.292 52.2093 117.802 52.4 118.186 52.7577C118.57 53.1154 118.796 53.6109 118.814 54.1353C118.833 54.6597 118.642 55.1699 118.285 55.5538C103.254 71.6395 94.9124 92.8454 94.9562 114.861C94.9562 115.357 94.9562 115.852 94.9688 116.351C95.3047 138.953 104.458 160.53 120.477 176.479C120.846 176.851 121.052 177.355 121.05 177.879Z" fill="black"/>
<path d="M101.34 53.6457L101.631 56.6012L116.185 55.1537L116.565 69.7809L119.534 69.7007L119.068 51.8867L101.34 53.6457Z" fill="black"/>
<path d="M246.57 52.4859C246.57 52.0948 246.686 51.7125 246.904 51.3872C247.121 51.062 247.43 50.8084 247.791 50.6587C248.152 50.5089 248.55 50.4695 248.934 50.5457C249.317 50.6218 249.67 50.8103 249.946 51.0867C266.623 67.7622 276.179 90.2566 276.605 113.836C277.031 137.415 268.293 160.24 252.23 177.507C252.053 177.697 251.841 177.851 251.604 177.958C251.368 178.066 251.113 178.127 250.853 178.136C250.593 178.145 250.335 178.103 250.091 178.012C249.848 177.921 249.625 177.783 249.435 177.606C249.245 177.429 249.091 177.217 248.983 176.98C248.876 176.744 248.815 176.489 248.806 176.229C248.797 175.97 248.839 175.711 248.93 175.467C249.021 175.224 249.159 175.001 249.336 174.811C264.364 158.725 272.704 137.52 272.661 115.506C272.661 115.01 272.66 114.516 272.648 114.016C272.315 91.4133 263.164 69.8353 247.147 53.8839C246.963 53.7004 246.818 53.4824 246.719 53.2424C246.62 53.0025 246.569 52.7454 246.57 52.4859Z" fill="black"/>
<path d="M266.281 176.717L265.99 173.762L251.437 175.209L251.056 160.582L248.087 160.662L248.553 178.476L266.281 176.717Z" fill="black"/>
<path d="M223.087 150.365H145.996L155.601 145.838C155.841 145.724 156.058 145.569 156.245 145.38L218.21 83.4365L223.323 78.3244C224.648 76.9965 225.393 75.1969 225.393 73.3207C225.393 71.4446 224.648 69.6452 223.323 68.3173L220.049 65.0803C219.393 64.421 218.613 63.8979 217.754 63.5409C216.895 63.1839 215.974 63 215.043 63C214.113 63 213.192 63.1839 212.333 63.5409C211.474 63.8979 210.694 64.421 210.038 65.0803L204.945 70.1731L142.98 132.13C142.792 132.317 142.637 132.535 142.522 132.774L133.616 151.684V151.702C133.567 151.802 133.529 151.907 133.502 152.015V152.05L133.448 152.328V152.381C133.406 152.473 133.387 152.575 133.394 152.676V152.766C133.394 152.859 133.412 152.949 133.412 153.042V153.096C133.427 153.202 133.451 153.306 133.483 153.408C133.483 153.427 133.502 153.427 133.502 153.445C133.538 153.538 133.574 153.628 133.616 153.721C133.616 153.739 133.634 153.739 133.634 153.757C133.688 153.85 133.749 153.941 133.799 154.016C133.818 154.033 133.818 154.052 133.836 154.07C133.893 154.158 133.961 154.239 134.038 154.311C134.047 154.321 134.059 154.327 134.073 154.329C134.119 154.376 134.168 154.419 134.221 154.458L134.275 154.512C134.315 154.547 134.358 154.579 134.404 154.605C134.421 154.623 134.439 154.623 134.458 154.642C134.493 154.659 134.551 154.695 134.587 154.713C134.604 154.731 134.623 154.731 134.641 154.749C134.695 154.766 134.734 154.803 134.788 154.821C134.806 154.821 134.824 154.838 134.843 154.838L135.007 154.892C135.017 154.891 135.027 154.892 135.036 154.895C135.046 154.898 135.054 154.904 135.061 154.911C135.114 154.931 135.17 154.943 135.226 154.946C135.252 154.943 135.277 154.95 135.298 154.964C135.352 154.964 135.392 154.983 135.446 154.983C135.517 154.983 135.593 155 135.646 155H223.038C223.645 154.994 224.226 154.75 224.655 154.321C225.085 153.892 225.329 153.311 225.335 152.704C225.341 152.097 225.109 151.511 224.688 151.073C224.267 150.635 223.691 150.38 223.084 150.362L223.087 150.365ZM150.56 131.068L200.915 80.7186L207.648 87.452L157.312 137.819C157.198 137.309 156.913 136.852 156.505 136.524C156.097 136.197 155.59 136.017 155.066 136.016H152.384V133.328C152.375 132.802 152.191 132.295 151.861 131.885C151.531 131.476 151.074 131.188 150.563 131.068H150.56ZM206.581 75.0703L213.316 81.804L210.922 84.1969L204.188 77.4634L206.581 75.0703ZM213.316 68.3366C213.545 68.1081 213.818 67.9273 214.117 67.8041C214.417 67.6809 214.738 67.6179 215.062 67.6188C215.715 67.6203 216.342 67.878 216.808 68.3366L220.045 71.5918C220.504 72.0542 220.762 72.6794 220.762 73.3311C220.762 73.9827 220.504 74.6079 220.045 75.0703L216.568 78.5489L209.833 71.8151L213.316 68.3366ZM146.291 135.63H147.764V138.319C147.765 138.928 148.008 139.513 148.439 139.944C148.87 140.375 149.455 140.617 150.064 140.618H152.752V142.091L142.651 146.856L141.53 145.735L146.291 135.63Z" fill="url(#paint0_linear_163_71)"/>
<defs>
<linearGradient id="paint0_linear_163_71" x1="133.393" y1="109" x2="225.393" y2="109" gradientUnits="userSpaceOnUse">
<stop stop-color="#00FFA6"/>
<stop offset="1" stop-color="#5199FF"/>
</linearGradient>
</defs>
</svg>
