<svg width="122" height="109" viewBox="0 0 122 109" fill="none" xmlns="http://www.w3.org/2000/svg">
<path d="M23.7132 43.9397H3.38718C2.94104 43.9351 2.4985 44.0195 2.08545 44.1882C1.6724 44.3569 1.29716 44.6066 0.981721 44.9221C0.666286 45.2376 0.416988 45.613 0.248445 46.0261C0.0799023 46.4392 -0.00449585 46.8817 0.000184528 47.3278V101.528C-0.00449585 101.974 0.0799023 102.416 0.248445 102.829C0.416988 103.242 0.666286 103.618 0.981721 103.933C1.29716 104.249 1.6724 104.499 2.08545 104.667C2.4985 104.836 2.94104 104.92 3.38718 104.916H23.7132C24.1594 104.92 24.6021 104.836 25.0152 104.667C25.4284 104.499 25.8038 104.249 26.1193 103.934C26.4348 103.618 26.6842 103.243 26.8528 102.83C27.0215 102.417 27.1059 101.974 27.1012 101.528L27.0962 47.3278C27.1018 46.8818 27.0182 46.4389 26.8503 46.0256C26.6823 45.6123 26.4334 45.2368 26.1182 44.9211C25.803 44.6054 25.4279 44.3563 25.0148 44.1877C24.6018 44.0191 24.1593 43.9347 23.7132 43.9397Z" fill="white"/>
<path d="M121.71 50.3588C121.71 44.8378 117.922 39.2587 110.683 39.2587H77.866C82.552 30.8727 83.933 19.0806 80.673 10.4496C78.281 4.10365 73.702 0.39889 67.787 0.0228905L67.687 0.0131248C65.8344 -0.0996215 64.0113 0.517444 62.6082 1.73236C61.205 2.94728 60.3334 4.66345 60.18 6.51312C59.335 15.0751 55.586 30.2129 50.212 35.5869C45.687 40.1119 41.812 42.0099 35.393 45.1489C34.466 45.6029 33.45 46.1008 32.376 46.6328C32.396 46.8668 32.406 47.097 32.406 47.333V100.978C33.182 101.242 33.948 101.506 34.7 101.764C45.3 105.415 54.459 108.569 68.459 108.569H94.99C102.229 108.569 106.017 102.98 106.017 97.4687C106.02 95.8228 105.682 94.1944 105.026 92.685C107.379 92.2881 109.527 91.0998 111.113 89.3168C112.919 87.2205 113.897 84.5375 113.866 81.7709C113.868 80.1289 113.532 78.5041 112.88 76.997C118.694 75.991 121.72 71.0027 121.72 66.0727C119.786 63.9157 118.716 61.1213 118.714 58.2246C118.713 55.3278 119.779 52.5325 121.71 50.373V50.3588Z" fill="white"/>
</svg>
