<svg width="227" height="48" viewBox="0 0 227 48" fill="none" xmlns="http://www.w3.org/2000/svg">
<path d="M80.6577 29.085C80.6742 30.0852 80.4898 31.0787 80.1151 32.0063C79.7405 32.934 79.1834 33.7766 78.4768 34.4849C77.748 35.2243 76.8801 35.8125 75.9231 36.2153C74.9661 36.6181 73.939 36.8277 72.9008 36.832H60.7247C59.3579 36.8323 58.0161 36.4642 56.8403 35.7671C55.6646 35.07 54.6982 34.0696 54.0427 32.8701L53.9428 32.6797L54.1317 32.5801L58.4558 30.2139L58.6448 30.1138L58.7448 30.3037C58.9386 30.6594 59.2246 30.9566 59.5729 31.1636C59.9211 31.3705 60.3187 31.4798 60.7238 31.48H72.9747C73.5425 31.4852 74.0924 31.2807 74.5188 30.9058C74.9452 30.5308 75.2183 30.0116 75.2858 29.4478C75.3177 29.1351 75.283 28.8192 75.1838 28.521C75.0847 28.2228 74.9235 27.9491 74.7108 27.7178C74.5002 27.4858 74.2435 27.3004 73.9572 27.1733C73.6708 27.0463 73.361 26.9805 73.0477 26.98H60.8698C59.8318 26.9755 58.805 26.7656 57.8484 26.3628C56.8918 25.96 56.0243 25.3721 55.2958 24.6328C54.5895 23.9244 54.0325 23.0814 53.6578 22.1538C53.2832 21.2263 53.0986 20.2331 53.1147 19.2329C53.159 17.2412 53.9791 15.3454 55.4003 13.9492C56.8215 12.5531 58.7315 11.7667 60.7238 11.7578H73.0477C74.4145 11.7581 75.7561 12.1262 76.9318 12.8232C78.1074 13.5203 79.0738 14.5206 79.7297 15.7197L79.8297 15.9097L79.6407 16.0098L75.3147 18.376L75.1257 18.4761L75.0258 18.2861C74.8326 17.9305 74.5469 17.6334 74.1989 17.4268C73.8509 17.2201 73.4534 17.1112 73.0487 17.1118H60.7998C60.2323 17.106 59.6825 17.3099 59.2557 17.6841C58.829 18.0583 58.5552 18.5767 58.4868 19.1401C58.4552 19.4532 58.4901 19.7693 58.5896 20.0679C58.6891 20.3664 58.8506 20.6405 59.0637 20.8721C59.2743 21.104 59.531 21.2894 59.8174 21.4165C60.1037 21.5436 60.4135 21.6094 60.7268 21.6099H73.0508C75.0427 21.6193 76.9522 22.4056 78.3729 23.8018C79.7937 25.1979 80.6134 27.0935 80.6577 29.085Z" fill="black"/>
<path d="M112.013 20.5898V27.9897C112.01 30.3338 111.077 32.5814 109.42 34.2388C107.762 35.8962 105.515 36.8284 103.171 36.8311H93.0408V33.751L93.1028 33.686L95.2548 31.5347L95.3187 31.4717H103.171C104.094 31.4706 104.979 31.1035 105.631 30.4507C106.284 29.7979 106.651 28.9128 106.652 27.9897V20.5898C106.651 19.667 106.284 18.782 105.631 18.1294C104.978 17.4768 104.094 17.1099 103.171 17.1089H89.8268V46.689H84.4678V11.748H103.168C105.512 11.7499 107.761 12.6816 109.419 14.3394C111.077 15.9971 112.01 18.2451 112.013 20.5898Z" fill="black"/>
<path d="M134.524 11.748H124.665C122.32 11.7504 120.072 12.6827 118.414 14.3403C116.756 15.998 115.824 18.2453 115.821 20.5898V27.9897C115.824 30.3341 116.757 32.5814 118.415 34.2388C120.073 35.8962 122.32 36.8287 124.665 36.8311H134.524C136.868 36.8287 139.115 35.8962 140.773 34.2388C142.431 32.5813 143.363 30.3339 143.366 27.9897V20.5898C143.363 18.2455 142.431 15.998 140.773 14.3403C139.116 12.6827 136.868 11.7504 134.524 11.748ZM121.182 20.5898C121.183 19.6667 121.551 18.782 122.203 18.1294C122.856 17.4768 123.742 17.1097 124.665 17.1089H134.524C135.447 17.1097 136.332 17.4768 136.985 18.1294C137.638 18.782 138.005 19.6667 138.007 20.5898V27.9897C138.006 28.9132 137.639 29.7988 136.986 30.4517C136.333 31.1045 135.447 31.4711 134.524 31.4717H124.665C123.741 31.4709 122.856 31.104 122.203 30.4512C121.55 29.7984 121.183 28.9131 121.182 27.9897V20.5898Z" fill="black"/>
<path d="M167.326 11.748V14.833L167.259 14.896L165.043 17.0469L164.978 17.1099H152.535V36.8281H147.174V11.748H167.326Z" fill="black"/>
<path d="M185.7 11.7476V17.1084H176.5V27.1265C176.501 28.2774 176.958 29.381 177.772 30.1948C178.586 31.0087 179.69 31.4662 180.841 31.4673H183.429L185.705 33.7432V36.8262H180.843C178.271 36.823 175.806 35.8003 173.987 33.9819C172.169 32.1635 171.146 29.6981 171.143 27.1265V6.81641H176.502V11.7476H185.7Z" fill="black"/>
<path d="M194.875 6.81641H189.514V12.1774H194.875V6.81641Z" fill="black"/>
<path d="M194.875 16.6777H189.514V36.8267H194.875V16.6777Z" fill="black"/>
<path d="M217.385 11.748H207.526C205.182 11.7504 202.935 12.6827 201.277 14.3403C199.619 15.998 198.687 18.2455 198.685 20.5898V27.9897C198.687 30.3339 199.62 32.5813 201.277 34.2388C202.935 35.8962 205.182 36.8287 207.526 36.8311H217.385C219.73 36.8287 221.978 35.8962 223.635 34.2388C225.293 32.5814 226.226 30.3341 226.229 27.9897V20.5898C226.227 18.2453 225.294 15.998 223.636 14.3403C221.978 12.6827 219.73 11.7504 217.385 11.748ZM204.043 20.5898C204.045 19.6667 204.412 18.782 205.065 18.1294C205.718 17.4768 206.603 17.1097 207.526 17.1089H217.385C218.309 17.1097 219.194 17.4768 219.847 18.1294C220.5 18.782 220.867 19.6667 220.869 20.5898V27.9897C220.867 28.9131 220.5 29.7984 219.847 30.4512C219.194 31.104 218.309 31.4709 217.385 31.4717H207.526C206.603 31.4709 205.718 31.104 205.065 30.4512C204.412 29.7984 204.045 28.9131 204.043 27.9897V20.5898Z" fill="black"/>
<path d="M27.7247 15.5565C29.8615 13.4314 32.6295 12.0556 35.6138 11.6361C35.7428 11.6181 35.8708 11.6033 35.9998 11.5893C36.5414 11.5222 37.0871 11.4932 37.6328 11.5023C37.9128 11.5023 38.1917 11.5193 38.4707 11.5443C38.5897 11.5523 38.7078 11.5622 38.8258 11.5722C41.5813 11.8445 44.1371 13.1317 45.997 15.183C47.8568 17.2343 48.8878 19.9034 48.8898 22.6723C48.893 25.7758 47.8703 28.7933 45.9807 31.2553C45.908 31.3487 45.8288 31.437 45.7438 31.5194L32.5847 44.6781L32.1798 45.0355C30.1285 46.5843 27.6911 47.5394 25.1338 47.7973C25.1031 47.8032 25.072 47.8068 25.0408 47.8075C24.2738 47.8955 23.4998 47.9057 22.7307 47.8383C19.8163 47.645 17.0348 46.5472 14.7738 44.6981C14.4131 44.4015 14.0637 44.0854 13.7257 43.7494L6.94581 36.9071C7.36281 37.3321 10.3958 38.0693 13.0338 37.9413C14.9529 37.8281 16.8315 37.3419 18.5647 36.5102L19.7648 37.7103C20.1979 38.1457 20.7013 38.5051 21.2538 38.7733C21.9676 39.1202 22.7472 39.3104 23.5405 39.3314C24.3339 39.3525 25.1226 39.2039 25.8538 38.8954C26.5121 38.618 27.1102 38.2151 27.6148 37.7094L38.7278 26.5961C41.0508 24.2841 41.1657 22.3322 39.9967 20.7152C39.9677 20.6742 39.9387 20.6341 39.9077 20.5941C39.8767 20.5541 39.8667 20.5415 39.8447 20.5155C39.5393 20.1397 39.1575 19.8327 38.7246 19.6156C38.2917 19.3986 37.8176 19.2762 37.3337 19.2562C36.8515 19.233 36.3697 19.3104 35.9191 19.4838C35.4685 19.6572 35.0591 19.9225 34.7168 20.2631L21.7588 33.1161C19.622 35.2414 16.8541 36.6174 13.8698 37.0375C13.7408 37.0545 13.6128 37.0694 13.4838 37.0834C12.9422 37.1514 12.3964 37.1804 11.8507 37.1703C11.5707 37.1703 11.2917 37.1533 11.0117 37.1293C10.8937 37.1213 10.7757 37.1115 10.6577 37.1005C7.90217 36.8283 5.34622 35.5415 3.48634 33.4901C1.62646 31.4388 0.595485 28.7693 0.593759 26.0004C0.590282 22.8965 1.61307 19.8786 3.50282 17.4164C3.57584 17.3232 3.65495 17.2349 3.73975 17.1522L16.8988 3.99306L17.3037 3.6371C19.3547 2.08777 21.7922 1.13255 24.3497 0.875384C24.3804 0.8693 24.4115 0.865392 24.4428 0.864154C25.2098 0.776894 25.9837 0.766747 26.7528 0.833392C29.6674 1.02681 32.4489 2.12495 34.7097 3.97451C35.0704 4.27051 35.4194 4.58626 35.7567 4.92226L42.5377 11.7645C42.1207 11.3405 39.0877 10.6034 36.4497 10.7304C34.5305 10.8439 32.6519 11.3305 30.9187 12.1625L29.7188 10.9623C28.6778 9.92138 27.2659 9.33681 25.7937 9.33681C24.3216 9.33681 22.9098 9.92138 21.8688 10.9623L10.7557 22.0741C8.43275 24.3861 8.31782 26.3394 9.48682 27.9564C9.51583 27.9964 9.54481 28.0365 9.57581 28.0775L9.6388 28.1561C9.9441 28.5321 10.3259 28.839 10.7588 29.056C11.1917 29.2731 11.6659 29.3957 12.1498 29.4154C12.6321 29.4386 13.114 29.361 13.5646 29.1874C14.0152 29.0138 14.4246 28.7478 14.7667 28.4071L27.7247 15.5565Z" fill="black"/>
</svg>
