<svg width="266" height="154" viewBox="0 0 266 154" fill="none" xmlns="http://www.w3.org/2000/svg">
<path d="M134.601 23H87V70.6014H134.601V23Z" fill="white"/>
<path d="M111.593 131.555C124.299 131.555 134.6 121.254 134.6 108.548C134.6 95.8416 124.299 85.541 111.593 85.541C98.8865 85.541 88.5859 95.8416 88.5859 108.548C88.5859 121.254 98.8865 131.555 111.593 131.555Z" fill="white"/>
<path d="M167.974 23L175.708 38.669L193 41.1823L180.487 53.3789L183.441 70.6013L167.975 62.4703L152.509 70.6013L155.463 53.3789L142.95 41.1823L160.242 38.669L167.974 23Z" fill="white"/>
<path d="M168.454 87.9375L180.355 108.55L192.256 129.161H144.654L156.555 108.55L168.454 87.9375Z" fill="white"/>
</svg>
