<svg width="113" height="117" viewBox="0 0 113 117" fill="none" xmlns="http://www.w3.org/2000/svg">
<path d="M50.6471 0.735352H-0.00390625V51.3864H50.6471V0.735352Z" fill="white"/>
<path d="M26.1651 116.245C39.6856 116.245 50.6461 105.285 50.6461 91.7642C50.6461 78.2437 39.6856 67.2832 26.1651 67.2832C12.6446 67.2832 1.68408 78.2437 1.68408 91.7642C1.68408 105.285 12.6446 116.245 26.1651 116.245Z" fill="white"/>
<path d="M86.1582 0.735352L94.3872 17.4082L112.787 20.0825L99.4733 33.0605L102.616 51.3862L86.1593 42.7344L69.7023 51.3862L72.8452 33.0605L59.5312 20.0825L77.9313 17.4082L86.1582 0.735352Z" fill="white"/>
<path d="M86.6692 69.832L99.3323 91.7651L111.995 113.697H61.3442L74.0072 91.7651L86.6692 69.832Z" fill="white"/>
</svg>
