<svg width="315" height="127" viewBox="0 0 315 127" fill="none" xmlns="http://www.w3.org/2000/svg">
<path d="M94.7399 79.7398L120.48 47.4698C120.84 47.0198 121.3 46.7998 121.86 46.7998H125.83C126.16 46.7998 126.33 46.9698 126.33 47.2998V75.5798C126.33 75.9098 126.16 76.0798 125.83 76.0798H121.86C121.3 76.0798 120.84 75.8598 120.48 75.4098L113.24 65.9598L101.72 79.6598C101.36 80.1098 100.9 80.3298 100.34 80.3298H95.0299C94.8899 80.3298 94.78 80.2698 94.7 80.1398C94.62 80.0098 94.6299 79.8798 94.7399 79.7398ZM116.72 61.4398L121.03 67.0498V55.8398L116.72 61.4498V61.4398Z" fill="white"/>
<path d="M147.57 46.8003H166.93C167.21 46.8003 167.44 47.0303 167.44 47.3103V51.6003C167.44 51.8803 167.21 52.1103 166.93 52.1103H152.93V58.8003H163.39C163.67 58.8003 163.89 59.0203 163.89 59.3003V63.5703C163.89 63.9303 163.72 64.1103 163.39 64.1103H152.93V75.5703C152.93 75.9003 152.75 76.0703 152.39 76.0703H148.08C147.94 76.0703 147.82 76.0203 147.72 75.9203C147.62 75.8203 147.57 75.7003 147.57 75.5603V46.7803V46.8003Z" fill="white"/>
<path d="M168.94 46.8003H173.25C173.61 46.8003 173.79 46.9703 173.79 47.3003V75.5803C173.79 75.9103 173.61 76.0803 173.25 76.0803H168.94C168.8 76.0803 168.68 76.0303 168.58 75.9303C168.48 75.8303 168.43 75.7103 168.43 75.5703V47.2903C168.43 47.1503 168.48 47.0303 168.58 46.9303C168.68 46.8303 168.8 46.7803 168.94 46.7803V46.8003Z" fill="white"/>
<path d="M177.18 75.58V47.3C177.18 47.16 177.23 47.04 177.33 46.94C177.43 46.84 177.55 46.79 177.69 46.79H181.66C182.22 46.79 182.68 47.01 183.04 47.46L198.1 67.04V47.3C198.1 46.96 198.27 46.8 198.6 46.8H202.91C203.25 46.8 203.41 46.97 203.41 47.3V75.58C203.41 75.91 203.24 76.08 202.91 76.08H198.94C198.38 76.08 197.92 75.86 197.56 75.41L182.54 55.83V75.57C182.54 75.9 182.36 76.07 182 76.07H177.69C177.55 76.07 177.43 76.02 177.33 75.92C177.23 75.82 177.18 75.7 177.18 75.56V75.58Z" fill="white"/>
<path d="M207.3 46.8003H211.61C211.97 46.8003 212.15 46.9703 212.15 47.3003V75.5803C212.15 75.9103 211.97 76.0803 211.61 76.0803H207.3C207.16 76.0803 207.04 76.0303 206.94 75.9303C206.84 75.8303 206.79 75.7103 206.79 75.5703V47.2903C206.79 47.1503 206.84 47.0303 206.94 46.9303C207.04 46.8303 207.16 46.7803 207.3 46.7803V46.8003Z" fill="white"/>
<path d="M214.07 47.22C214.07 47.08 214.12 46.96 214.22 46.86C214.32 46.76 214.44 46.71 214.58 46.71H232.73C233.29 46.71 233.75 46.93 234.11 47.38L237.21 51.44C237.32 51.58 237.34 51.71 237.27 51.84C237.2 51.97 237.08 52.03 236.91 52.03H227.58V75.5C227.58 75.83 227.41 76 227.08 76H222.77C222.44 76 222.27 75.83 222.27 75.5V52.03H214.57C214.43 52.03 214.31 51.98 214.21 51.88C214.11 51.78 214.06 51.66 214.06 51.52V47.21L214.07 47.22Z" fill="white"/>
<path d="M234.02 42.7803H239.33C239.89 42.7803 240.35 43.0003 240.71 43.4503L250.8 58.5603L259.37 47.3903C259.73 46.9403 260.19 46.7203 260.75 46.7203H266.06C266.23 46.7203 266.35 46.7903 266.42 46.9303C266.49 47.0703 266.47 47.2003 266.36 47.3103L253.48 64.1203V75.5003C253.48 75.6403 253.43 75.7603 253.33 75.8603C253.23 75.9603 253.11 76.0103 252.97 76.0103H248.66C248.3 76.0103 248.12 75.8403 248.12 75.5103V64.1303L233.72 43.3703C233.61 43.2603 233.59 43.1303 233.68 42.9903C233.76 42.8503 233.87 42.7803 234.01 42.7803H234.02Z" fill="white"/>
<path d="M129.02 46.8005H165.649V52.1105H133.88V58.8005H144.339C144.669 58.8005 144.839 58.9705 144.839 59.3005V63.5705C144.839 63.9305 144.669 64.1105 144.339 64.1105H133.88V75.5705C133.88 75.9005 133.699 76.0705 133.339 76.0705H129.029C128.889 76.0705 128.769 76.0205 128.669 75.9205C128.569 75.8205 128.52 75.7005 128.52 75.5605V47.2805C128.52 47.1405 128.569 47.0205 128.669 46.9205C128.769 46.8205 128.889 46.7705 129.029 46.7705L129.02 46.8005Z" fill="white"/>
<path d="M53.54 53.8403L88.37 79.4703C89 79.9803 89.31 80.6303 89.31 81.4203V87.0303C89.31 87.5003 89.07 87.7403 88.6 87.7403H48.71C48.24 87.7403 48 87.5003 48 87.0303V81.4203C48 80.6303 48.31 79.9803 48.94 79.4703L62.28 69.2603L53.65 63.7003C53.02 63.1903 52.71 62.5403 52.71 61.7503V54.2503C52.71 54.0503 52.8 53.9003 52.98 53.7803C53.16 53.6603 53.34 53.6803 53.54 53.8403ZM68.66 74.1603L60.75 80.2403H76.57L68.66 74.1603Z" fill="white"/>
<path d="M83.7797 73.9L48.9498 48.27C48.3198 47.76 48.0098 47.11 48.0098 46.32V40.71C48.0098 40.24 48.2497 40 48.7197 40H88.6097C89.0797 40 89.3198 40.24 89.3198 40.71V46.32C89.3198 47.11 89.0098 47.76 88.3798 48.27L75.0397 58.48L83.6697 64.04C84.2997 64.55 84.6097 65.2 84.6097 65.99V73.49C84.6097 73.69 84.5197 73.84 84.3397 73.96C84.1597 74.08 83.9797 74.06 83.7797 73.9ZM68.6597 53.58L76.5698 47.5H60.7498L68.6597 53.58Z" fill="white"/>
</svg>
