<svg width="306" height="255" viewBox="0 0 306 255" fill="none" xmlns="http://www.w3.org/2000/svg">
<path d="M144.047 5.3636C148.022 -1.56392 157.985 -1.5639 161.96 5.36362L225.391 115.915C227.229 119.117 227.229 123.058 225.391 126.26L161.96 236.812C157.985 243.739 148.022 243.739 144.047 236.812L80.6163 126.26C78.779 123.058 78.779 119.117 80.6164 115.915L144.047 5.3636Z" fill="#FAFAFA"/>
<path d="M227.806 136.64C231.784 129.728 241.728 129.728 245.706 136.64L304.44 238.705C308.417 245.617 303.445 254.257 295.49 254.257H178.022C170.067 254.257 165.095 245.617 169.072 238.705L227.806 136.64Z" fill="#FAFAFA"/>
<path d="M60.3017 136.64C64.2794 129.728 74.2238 129.728 78.2015 136.64L136.935 238.705C140.913 245.617 135.941 254.257 127.985 254.257H10.5178C2.56237 254.257 -2.40979 245.617 1.56794 238.705L60.3017 136.64Z" fill="#FAFAFA"/>
</svg>
