<svg width="156" height="42" viewBox="0 0 156 42" fill="none" xmlns="http://www.w3.org/2000/svg">
<path d="M0.893173 2H22.0152C31.9402 2 38.2953 5.93393 38.2953 12.1069C38.2953 16.4069 34.6033 19.6069 28.4303 21.0649C36.6613 22.0929 41.0792 25.5428 41.0792 30.4448C41.0792 36.7388 34.5422 40.7329 23.5282 40.7329H0.893173V40.0669C0.888815 39.6827 0.908914 39.2987 0.953232 38.917L1.55919 38.8569C3.73719 38.6149 5.0692 34.9221 5.0692 29.5361V13.1958C5.0692 7.8088 3.73719 4.11798 1.55919 3.87598L0.953232 3.81494C0.908863 3.43327 0.888764 3.04926 0.893173 2.66504V2ZM20.5022 20.3999C25.6462 20.3999 28.8533 17.1919 28.8533 12.1079C28.8533 7.44791 26.1912 4.42188 22.0152 4.42188H14.5713V20.3999H20.5022ZM14.5713 38.314H22.5592C28.1272 38.314 31.1532 35.2268 31.1532 30.4458C31.1532 25.6648 27.1592 22.6387 19.8962 22.6387H14.5713V38.314Z" fill="black"/>
<path d="M58.9932 25.1796V20.4588C58.9932 17.3728 58.1451 15.3758 56.8141 15.3758C54.1511 15.3758 52.8802 18.276 53.4252 22.517C52.0477 22.9216 50.6233 23.1452 49.1881 23.182C47.7146 23.1331 46.2522 22.9098 44.8312 22.517C44.0442 16.828 49.9151 12.6519 58.7511 12.9549C64.3791 13.1359 68.0101 16.6459 68.0101 22.4549V32.9256C68.0101 35.5256 68.4941 37.2259 70.3711 37.2259C70.8729 37.291 71.3828 37.2046 71.8355 36.9784C72.2881 36.7522 72.6629 36.3963 72.9121 35.9559L73.8201 37.1048C72.3681 39.7678 69.9472 41.4628 64.5612 41.4628C62.1402 41.4628 60.2611 40.3729 59.5981 38.4969C57.1146 40.1411 54.223 41.0626 51.2461 41.1595C50.2739 41.1862 49.3063 41.0184 48.3999 40.6659C47.4935 40.3134 46.6667 39.7833 45.968 39.1068C45.2693 38.4303 44.7129 37.621 44.3313 36.7264C43.9497 35.8319 43.7508 34.8703 43.7461 33.8978C43.7421 26.8138 53.6672 25.4216 58.9932 25.1796ZM56.5111 36.8597C57.4184 36.8608 58.3048 36.5866 59.0531 36.0736L58.9932 26.8739C55.6642 26.8739 52.2751 28.4468 52.2751 32.5018C52.2484 33.0709 52.3386 33.6395 52.5404 34.1722C52.7422 34.705 53.0513 35.1905 53.4484 35.599C53.8455 36.0075 54.3222 36.3304 54.849 36.5472C55.3758 36.7641 55.9415 36.8703 56.5111 36.8597Z" fill="black"/>
<path d="M73.5182 40.7324V40.0664C73.5138 39.6822 73.5339 39.2982 73.5782 38.9165L74.1233 38.8564C76.3023 38.6144 77.6942 34.9216 77.6942 29.5356V16.2212C77.6942 8.65619 77.0883 7.20334 74.1233 5.56934L73.5782 5.26953C73.5413 5.07159 73.5211 4.87077 73.5182 4.66943L84.5322 0.191406H86.2323V25.5493L87.6242 24.3394C93.7372 19.0134 96.9442 15.3216 96.1572 15.0186C95.8572 14.8976 95.9153 14.7766 95.9153 13.8086V13.1426H105.841V14.9585L105.114 15.0186C103.114 15.2006 98.9412 17.6185 93.9142 21.3735L100.934 30.7544C104.626 35.4744 108.257 38.6823 110.434 38.8643L111.16 38.9243V40.7393H93.4883V40.0664C93.4838 39.6822 93.5041 39.2981 93.5492 38.9165L93.8492 38.8564C95.1202 38.6144 93.3642 34.8566 89.2492 29.5356C88.2202 28.2046 87.2492 26.8735 86.2232 25.5415V29.5356C86.2232 34.9216 87.6152 38.6144 89.7332 38.8564L90.3332 38.9165C90.3782 39.2981 90.3986 39.6822 90.3943 40.0664V40.7314L73.5182 40.7324Z" fill="black"/>
<path d="M115.579 11.3801C112.917 11.3801 111.04 9.32323 111.04 6.48023C110.987 5.84925 111.07 5.21397 111.284 4.61793C111.498 4.02189 111.837 3.47905 112.279 3.02564C112.721 2.57224 113.255 2.21884 113.846 1.99C114.436 1.76115 115.069 1.66192 115.701 1.69898C119.332 1.69898 121.208 5.1483 121.208 8.4773C121.208 14.4693 117.94 19.5521 112.735 21.5501L112.372 20.5212C115.458 19.3712 117.698 15.6214 117.335 11.0794C116.767 11.2624 116.176 11.3635 115.579 11.3801Z" fill="black"/>
<path d="M123.326 28.8662C123.326 19.0662 129.015 12.8296 137.912 12.8296C139.574 12.8515 141.185 13.4023 142.512 14.4023C142.391 8.41034 141.725 6.95841 139.002 5.56641L138.402 5.2666C138.36 5.06948 138.339 4.86815 138.341 4.6665L149.295 0.188477H150.995V24.7593C150.995 32.2593 151.595 33.7166 154.566 35.3506L155.11 35.6504C155.153 35.8475 155.173 36.0488 155.171 36.2505L144.217 40.7285H142.517V36.6133C140.157 39.3373 137.252 41.0312 134.649 41.0312C127.684 41.0353 123.326 36.3152 123.326 28.8662ZM139.304 35.6455C140.417 35.6772 141.52 35.4271 142.511 34.9185V18.0342C141.973 17.1872 141.232 16.4888 140.354 16.0024C139.477 15.5161 138.491 15.2576 137.488 15.2505C134.28 15.2505 132.223 19.2446 132.223 25.5386C132.223 31.7156 135.007 35.6494 139.3 35.6494L139.304 35.6455Z" fill="black"/>
</svg>
