<svg width="315" height="127" viewBox="0 0 315 127" fill="none" xmlns="http://www.w3.org/2000/svg">
<path d="M84 45.7305H104.11C113.56 45.7305 119.61 49.4805 119.61 55.3505C119.61 59.4405 116.1 62.4905 110.22 63.8805C118.06 64.8605 122.26 68.1405 122.26 72.8105C122.26 78.8005 116.04 82.6005 105.55 82.6005H84V81.9705C84 81.2805 84.0601 80.8805 84.0601 80.8805L84.64 80.8205C86.71 80.5905 87.98 77.0705 87.98 71.9505V56.3905C87.98 51.2605 86.71 47.7505 84.64 47.5205L84.0601 47.4605C84.0601 47.4605 84 47.0605 84 46.3705V45.7405V45.7305ZM102.67 63.2405C107.57 63.2405 110.62 60.1905 110.62 55.3505C110.62 50.9105 108.09 48.0305 104.11 48.0305H97.02V63.2405H102.67ZM97.02 80.2905H104.62C109.92 80.2905 112.8 77.3505 112.8 72.8005C112.8 68.2505 109 65.3705 102.08 65.3705H97.01V80.2905H97.02Z" fill="white"/>
<path d="M139.31 67.8002V63.3102C139.31 60.3702 138.5 58.4702 137.24 58.4702C134.71 58.4702 133.5 61.2402 134.01 65.2702C132.45 65.6702 131.24 65.9002 129.98 65.9002C128.72 65.9002 127.5 65.6702 125.83 65.2702C125.08 59.8502 130.67 55.8802 139.08 56.1702C144.44 56.3402 147.89 59.6802 147.89 65.2102V75.1802C147.89 77.6602 148.35 79.2702 150.14 79.2702C151.47 79.2702 152.16 78.8102 152.56 78.0602L153.42 79.1502C152.04 81.6802 149.73 83.3002 144.61 83.3002C142.31 83.3002 140.52 82.2602 139.89 80.4802C137.93 81.7502 134.99 83.0102 131.94 83.0102C127.62 83.0102 124.8 79.6702 124.8 76.1002C124.8 69.3602 134.25 68.0302 139.32 67.8002H139.31ZM136.95 78.9202C137.76 78.9202 138.62 78.6902 139.37 78.1702L139.31 69.4102C136.14 69.4102 132.91 70.9102 132.91 74.7702C132.91 77.4202 134.87 78.9202 136.94 78.9202H136.95Z" fill="white"/>
<path d="M153.14 82.6095V81.9795C153.14 81.2895 153.2 80.8895 153.2 80.8895L153.72 80.8295C155.79 80.5995 157.12 77.0795 157.12 71.9595V59.2895C157.12 52.0895 156.54 50.7095 153.72 49.1495L153.2 48.8595C153.2 48.8595 153.14 48.5695 153.14 48.2795L163.63 44.0195H165.24V68.1595L166.57 67.0095C172.39 61.9395 175.44 58.4295 174.69 58.1395C174.4 58.0195 174.46 57.9095 174.46 56.9895V56.3595H183.91V58.0895L183.22 58.1495C181.32 58.3195 177.34 60.6295 172.56 64.1995L179.24 73.1295C182.75 77.6195 186.21 80.6795 188.29 80.8495L188.98 80.9095V82.6395H172.16V82.0095C172.16 81.3195 172.22 80.9195 172.22 80.9195L172.51 80.8595C173.72 80.6295 172.05 77.0595 168.13 71.9895C167.15 70.7195 166.23 69.4595 165.25 68.1895V71.9895C165.25 77.1195 166.58 80.6295 168.59 80.8595L169.17 80.9195C169.17 80.9195 169.23 81.3195 169.23 82.0095V82.6395H153.16L153.14 82.6095Z" fill="white"/>
<path d="M193.18 54.6604C190.65 54.6604 188.86 52.7004 188.86 49.9904C188.86 47.2804 190.59 45.4404 193.3 45.4404C196.76 45.4404 198.54 48.7204 198.54 51.8904C198.54 57.5904 195.43 62.4304 190.47 64.3304L190.12 63.3504C193.06 62.2604 195.19 58.6804 194.84 54.3604C194.26 54.5304 193.69 54.6504 193.17 54.6504L193.18 54.6604Z" fill="white"/>
<path d="M200.55 71.31C200.55 61.98 205.97 56.04 214.43 56.04C216.04 56.04 217.54 56.62 218.81 57.54C218.69 51.84 218.06 50.45 215.47 49.13L214.89 48.84C214.89 48.84 214.83 48.61 214.83 48.26L225.26 44H226.87V67.39C226.87 74.53 227.45 75.92 230.27 77.47L230.79 77.76C230.79 77.76 230.85 77.99 230.85 78.34L220.42 82.6H218.81V78.68C216.56 81.27 213.8 82.89 211.32 82.89C204.69 82.89 200.55 78.4 200.55 71.31ZM215.76 77.76C217.03 77.76 218.12 77.47 218.81 77.07V61C217.72 59.39 216.04 58.35 214.03 58.35C210.98 58.35 209.02 62.15 209.02 68.14C209.02 74.13 211.67 77.76 215.76 77.76Z" fill="white"/>
</svg>
