<svg width="191" height="54" viewBox="0 0 191 54" fill="none" xmlns="http://www.w3.org/2000/svg">
<path d="M73.4746 42.1553V6.52539H79.3167V21.9453C80.8487 19.3113 84.0096 17.7314 87.6006 17.7314C94.3536 17.7314 98.4727 22.9992 98.4727 30.4692C98.4727 37.7492 94.0187 42.7783 87.2177 42.7783C83.6747 42.7783 80.6576 41.1973 79.2686 38.4673L78.8856 42.1553H73.4746ZM86.0206 37.4146C90.1396 37.4146 92.5826 34.4445 92.5826 30.2305C92.5826 26.0165 90.1396 22.9995 86.0206 22.9995C81.9986 22.9995 79.3646 25.9685 79.3646 30.2305C79.3646 34.4925 81.9996 37.4146 86.0206 37.4146Z" fill="black"/>
<path d="M117.961 23.8136H115.806C111.591 23.8136 108.958 26.0648 108.958 30.6618V42.1554H103.116V18.5456H108.623L108.958 21.9933C109.5 20.7631 110.406 19.7281 111.552 19.0265C112.699 18.3249 114.033 17.9903 115.376 18.0675C116.248 18.0699 117.116 18.1821 117.961 18.4015V23.8136Z" fill="black"/>
<path d="M121.264 10.2136C121.264 9.51475 121.47 8.83149 121.858 8.24977C122.245 7.66804 122.796 7.21369 123.441 6.9441C124.085 6.67451 124.796 6.60173 125.482 6.73463C126.168 6.86753 126.799 7.20032 127.297 7.69117C127.794 8.18202 128.136 8.80914 128.278 9.49342C128.42 10.1777 128.356 10.8885 128.096 11.5369C127.835 12.1852 127.388 12.7418 126.811 13.137C126.235 13.5321 125.555 13.7481 124.856 13.7576C124.386 13.7635 123.921 13.6761 123.485 13.5007C123.05 13.3253 122.654 13.0653 122.32 12.7356C121.985 12.406 121.72 12.0133 121.539 11.5803C121.358 11.1474 121.264 10.683 121.264 10.2136ZM121.934 18.4988H127.777V42.1555H121.934V18.4988Z" fill="black"/>
<path d="M133.138 10.2136C133.138 9.51475 133.344 8.83149 133.732 8.24977C134.119 7.66804 134.67 7.21369 135.315 6.9441C135.959 6.67451 136.67 6.60173 137.356 6.73463C138.042 6.86753 138.673 7.20032 139.171 7.69117C139.668 8.18202 140.01 8.80914 140.152 9.49342C140.294 10.1777 140.23 10.8885 139.969 11.5369C139.709 12.1852 139.262 12.7418 138.685 13.137C138.109 13.5321 137.428 13.7481 136.73 13.7576C136.26 13.7635 135.795 13.6761 135.359 13.5007C134.924 13.3253 134.528 13.0653 134.194 12.7356C133.859 12.406 133.594 12.0133 133.413 11.5803C133.232 11.1474 133.138 10.683 133.138 10.2136ZM133.81 18.4988H139.652V42.1555H133.81V18.4988Z" fill="black"/>
<path d="M144.439 42.1558V37.3677L156.219 23.3838H144.439V18.5H163.546V23.3359L151.574 37.2681H163.546V42.1528L144.439 42.1558Z" fill="black"/>
<path d="M166.276 48.2368H169.776C172.076 48.2368 173.51 47.71 174.516 44.937L175.187 43.1641L165.657 18.502H171.834L177.916 35.7417L184.333 18.502H190.367L178.779 47.4258C177.006 51.8318 174.516 53.6519 170.637 53.6519C169.168 53.6628 167.704 53.4861 166.28 53.126L166.276 48.2368Z" fill="black"/>
<path d="M34.132 27.3193C34.098 31.7013 32.3333 35.8924 29.2227 38.979C26.1121 42.0656 21.9076 43.7974 17.5255 43.7974C13.1433 43.7974 8.93882 42.0656 5.82819 38.979C2.71756 35.8924 0.95295 31.7013 0.918945 27.3193C0.918945 27.1793 0.91895 27.0394 0.92395 26.8994C0.92895 26.7594 0.934932 26.5886 0.942932 26.4336C0.947932 26.3226 0.955928 26.2116 0.963928 26.1016C0.984928 25.7826 1.01896 25.4663 1.06396 25.1523C1.07796 25.0313 1.09593 24.9095 1.11493 24.7915C1.13393 24.6735 1.15392 24.5303 1.17792 24.4033C1.21992 24.1663 1.26695 23.9293 1.31995 23.6943C1.34395 23.5943 1.36792 23.4834 1.39392 23.3784C1.41992 23.2734 1.44096 23.1786 1.46796 23.0786C1.4727 23.0589 1.47872 23.0394 1.48596 23.0205C1.50696 22.9315 1.53394 22.8415 1.55994 22.7515C1.64694 22.4405 1.74497 22.1326 1.85297 21.8296C1.88697 21.7296 1.92394 21.6293 1.96094 21.5293C2.07094 21.2293 2.19296 20.9292 2.32196 20.6382C2.36396 20.5382 2.40892 20.4466 2.45392 20.3486C2.49892 20.2506 2.54294 20.1565 2.59094 20.0615C2.68294 19.8615 2.78293 19.6744 2.88293 19.4844C2.93093 19.3974 2.97794 19.3106 3.02594 19.2266C3.08894 19.1126 3.15195 19.0026 3.22595 18.8916C3.26795 18.8176 3.30993 18.7434 3.35693 18.6694C3.52093 18.4014 3.69196 18.1375 3.87396 17.8765C3.93496 17.7895 3.99497 17.7022 4.05597 17.6182C4.11697 17.5342 4.17992 17.4492 4.24292 17.3652C4.43592 17.1092 4.63296 16.8583 4.84296 16.6133C4.90896 16.5373 4.97497 16.4602 5.04297 16.3872C5.31897 16.0705 5.60692 15.7646 5.90692 15.4692C6.05692 15.3242 6.20691 15.1796 6.36292 15.0376C6.36734 15.0352 6.37116 15.0315 6.37396 15.0273C6.52696 14.8923 6.68195 14.7554 6.83795 14.6274C6.91695 14.5594 6.99796 14.4932 7.07996 14.4272C7.24396 14.2952 7.40996 14.1666 7.57996 14.0396C7.66396 13.9766 7.74796 13.9135 7.83496 13.8525C7.92196 13.7915 8.00693 13.7284 8.09393 13.6704C8.18093 13.6124 8.29392 13.5314 8.39392 13.4624C8.46592 13.4154 8.53892 13.3623 8.61292 13.3203C8.87992 13.1483 9.15092 12.9885 9.42792 12.8325C9.51992 12.7795 9.61196 12.7322 9.70496 12.6792C9.98362 12.5292 10.2683 12.3871 10.559 12.2524C10.648 12.2134 10.735 12.1703 10.825 12.1313C10.8475 12.1229 10.8695 12.1134 10.8909 12.1025C10.9749 12.0685 11.0589 12.0314 11.1439 12.0024C11.4359 11.8784 11.7369 11.7622 12.0439 11.6562C12.1439 11.6223 12.2359 11.5906 12.3309 11.5566C12.9995 11.3342 13.682 11.156 14.374 11.0234C14.53 10.9924 14.6849 10.9634 14.8409 10.9414C14.9089 10.9284 14.975 10.9182 15.041 10.9072C15.162 10.8892 15.283 10.8734 15.405 10.8574C15.4194 10.8544 15.4341 10.8528 15.4489 10.8525C15.5779 10.8335 15.7099 10.8206 15.8419 10.8076C15.9419 10.7976 16.042 10.7863 16.137 10.7783C16.337 10.7623 16.5299 10.7493 16.7249 10.7393C16.8309 10.7333 16.9389 10.7315 17.0469 10.7285C17.1179 10.7285 17.1919 10.7285 17.2629 10.7285C17.3549 10.7285 17.4469 10.7285 17.5399 10.7285C21.9389 10.7328 26.1566 12.4818 29.2672 15.5923C32.3779 18.7028 34.1275 22.9203 34.132 27.3193Z" fill="black"/>
<path d="M63.9185 30.274C63.9183 33.3717 62.8692 36.3779 60.9423 38.8033C59.0153 41.2287 56.3239 42.9304 53.3065 43.6309C53.2855 43.6309 53.2644 43.6411 53.2434 43.6441C52.3822 43.8242 51.5053 43.9184 50.6254 43.9258H30.5054C33.8173 41.3403 36.2809 37.8243 37.5802 33.8287C38.8795 29.833 38.955 25.54 37.7972 21.501C36.6394 17.4621 34.3011 13.8612 31.0823 11.1607C27.8635 8.46017 23.9111 6.78309 19.7324 6.34478C22.0093 3.47717 25.1906 1.46547 28.7574 0.63775C28.7647 0.639106 28.7721 0.639106 28.7794 0.63775C29.4247 0.460127 30.0794 0.318747 30.7404 0.213922C33.1753 -0.168035 35.6631 -0.0374528 38.0447 0.597223C40.4262 1.2319 42.649 2.35693 44.5709 3.89996C46.4928 5.44298 48.0714 7.37004 49.2057 9.55816C50.3401 11.7463 51.0052 14.1471 51.1584 16.607C54.4354 16.8322 57.5224 18.2274 59.8568 20.5381C62.1913 22.8489 63.6178 25.9213 63.8764 29.1959C63.8764 29.2069 63.8764 29.2152 63.8764 29.2252C63.9044 29.5698 63.9185 29.9193 63.9185 30.274Z" fill="black"/>
</svg>
