<svg width="315" height="127" viewBox="0 0 315 127" fill="none" xmlns="http://www.w3.org/2000/svg">
<path d="M134.56 79.1525V43.5225H140.4V58.9425C141.93 56.3125 145.09 54.7325 148.68 54.7325C155.43 54.7325 159.55 60.0025 159.55 67.4725C159.55 74.9425 155.1 79.7825 148.29 79.7825C144.75 79.7825 141.73 78.2025 140.34 75.4725L139.96 79.1625H134.55L134.56 79.1525ZM147.11 74.4125C151.23 74.4125 153.67 71.4425 153.67 67.2325C153.67 63.0225 151.23 60.0025 147.11 60.0025C142.99 60.0025 140.45 62.9725 140.45 67.2325C140.45 71.4925 143.08 74.4125 147.11 74.4125Z" fill="white"/>
<path d="M179.05 60.8125H176.9C172.69 60.8125 170.05 63.0625 170.05 67.6625V79.1525H164.21V55.5425H169.72L170.05 58.9925C171.06 56.6425 173.31 55.0625 176.47 55.0625C177.28 55.0625 178.1 55.1625 179.06 55.3925V60.8025L179.05 60.8125Z" fill="white"/>
<path d="M182.35 47.2129C182.35 45.2529 183.929 43.7129 185.939 43.7129C187.949 43.7129 189.439 45.2429 189.439 47.2129C189.439 49.1829 187.859 50.7529 185.939 50.7529C183.929 50.7529 182.35 49.1729 182.35 47.2129ZM183.02 55.4929H188.86V79.1529H183.02V55.4929Z" fill="white"/>
<path d="M194.229 47.2129C194.229 45.2529 195.81 43.7129 197.82 43.7129C199.83 43.7129 201.32 45.2429 201.32 47.2129C201.32 49.1829 199.74 50.7529 197.82 50.7529C195.81 50.7529 194.229 49.1729 194.229 47.2129ZM194.899 55.4929H200.74V79.1529H194.899V55.4929Z" fill="white"/>
<path d="M205.529 79.1529V74.3629L217.309 60.3829H205.529V55.5029H224.639V60.3429L212.669 74.2829H224.639V79.1629H205.529V79.1529Z" fill="white"/>
<path d="M227.36 85.2329H230.86C233.16 85.2329 234.59 84.7029 235.6 81.9329L236.27 80.1629L226.74 55.5029H232.92L239 72.7429L245.42 55.5029H251.45L239.86 84.4229C238.09 88.8329 235.6 90.6529 231.72 90.6529C230.09 90.6529 228.66 90.4629 227.36 90.1229V85.2429V85.2329Z" fill="white"/>
<path d="M95.22 64.3227C95.22 73.4927 87.78 80.9327 78.61 80.9327C69.44 80.9327 62 73.4927 62 64.3227C62 64.1827 62 64.0427 62 63.9027C62 63.7427 62.01 63.5927 62.02 63.4327C62.02 63.3227 62.03 63.2127 62.04 63.1027C62.06 62.7827 62.1 62.4627 62.14 62.1527C62.15 62.0327 62.1701 61.9127 62.1901 61.7927C62.2101 61.6627 62.23 61.5327 62.25 61.4027C62.29 61.1627 62.34 60.9327 62.39 60.6927C62.41 60.5827 62.44 60.4827 62.46 60.3727C62.48 60.2727 62.51 60.1727 62.53 60.0727C62.53 60.0527 62.54 60.0327 62.55 60.0127C62.57 59.9227 62.6 59.8327 62.62 59.7427C62.71 59.4327 62.8 59.1227 62.91 58.8227C62.94 58.7227 62.98 58.6227 63.02 58.5227C63.13 58.2227 63.25 57.9227 63.38 57.6327C63.42 57.5327 63.47 57.4427 63.51 57.3427C63.55 57.2527 63.6 57.1527 63.65 57.0527C63.74 56.8527 63.8401 56.6627 63.9401 56.4727C63.9901 56.3827 64.0301 56.3027 64.0801 56.2127C64.1401 56.1027 64.21 55.9927 64.28 55.8827C64.32 55.8127 64.36 55.7327 64.41 55.6627C64.57 55.3927 64.7401 55.1327 64.9301 54.8727C64.9901 54.7827 65.05 54.7027 65.11 54.6127C65.17 54.5227 65.23 54.4427 65.3 54.3627C65.49 54.1027 65.69 53.8527 65.9 53.6127C65.97 53.5327 66.03 53.4627 66.1 53.3827C66.38 53.0627 66.66 52.7627 66.96 52.4627C67.11 52.3227 67.26 52.1727 67.42 52.0327C67.42 52.0327 67.4201 52.0327 67.4301 52.0227C67.5801 51.8927 67.74 51.7527 67.89 51.6227C67.97 51.5527 68.05 51.4927 68.13 51.4227C68.29 51.2927 68.46 51.1627 68.63 51.0327C68.71 50.9727 68.8 50.9027 68.89 50.8427C68.97 50.7827 69.06 50.7227 69.15 50.6627C69.25 50.5927 69.35 50.5227 69.46 50.4527C69.53 50.4027 69.6001 50.3627 69.6801 50.3127C69.9501 50.1427 70.22 49.9827 70.49 49.8227C70.58 49.7727 70.67 49.7227 70.77 49.6727C71.05 49.5227 71.33 49.3827 71.62 49.2427C71.71 49.2027 71.8 49.1627 71.89 49.1227C71.91 49.1227 71.93 49.1027 71.96 49.0927C72.04 49.0627 72.13 49.0227 72.21 48.9827C72.5 48.8627 72.8 48.7427 73.11 48.6327C73.2 48.6027 73.3 48.5627 73.4 48.5327C74.06 48.3127 74.7401 48.1327 75.4401 48.0027C75.6001 47.9727 75.75 47.9427 75.91 47.9227C75.98 47.9127 76.04 47.9027 76.11 47.8927C76.23 47.8727 76.35 47.8627 76.47 47.8427C76.48 47.8427 76.5 47.8427 76.51 47.8427C76.64 47.8227 76.77 47.8127 76.9 47.8027C77 47.7927 77.1001 47.7827 77.2001 47.7727C77.4001 47.7527 77.59 47.7427 77.79 47.7327C77.9 47.7327 78 47.7327 78.11 47.7227C78.18 47.7227 78.2501 47.7227 78.3301 47.7227C78.4201 47.7227 78.51 47.7227 78.61 47.7227C87.78 47.7227 95.22 55.1627 95.22 64.3327V64.3227Z" fill="white"/>
<path d="M125.01 67.2722C125.01 73.7822 120.48 79.2222 114.4 80.6322C114.38 80.6322 114.36 80.6422 114.34 80.6422C113.49 80.8222 112.61 80.9122 111.72 80.9222H91.6C96.53 77.0622 99.71 71.0522 99.71 64.3122C99.71 53.4322 91.4201 44.4422 80.8301 43.3422C83.0701 40.5222 86.23 38.4722 89.86 37.6322C89.86 37.6322 89.87 37.6322 89.88 37.6322C90.52 37.4522 91.18 37.3122 91.84 37.2122C96.85 36.4322 101.96 37.8222 105.86 41.0522C109.64 44.1722 111.95 48.7222 112.25 53.6022C119.02 54.0622 124.44 59.4422 124.97 66.1922C124.97 66.2022 124.97 66.2122 124.97 66.2222C125 66.5722 125.01 66.9222 125.01 67.2722Z" fill="white"/>
</svg>
