<svg width="315" height="127" viewBox="0 0 315 127" fill="none" xmlns="http://www.w3.org/2000/svg">
<path d="M75.38 49.5399C75.44 49.4999 75.48 49.4299 75.48 49.3599V31.1899C75.48 31.0399 75.32 30.9499 75.19 31.0299L35.09 55.5499C35.03 55.5799 35 55.6399 35 55.7099V80.1599C35 80.2599 35.08 80.3399 35.18 80.3399H50.74V95.9199C50.74 96.0099 50.81 96.0799 50.9 96.0799H75.3C75.4 96.0799 75.48 95.9999 75.48 95.8999V80.5199C75.48 80.4199 75.4 80.3399 75.3 80.3399H50.74V64.5999L75.38 49.5399Z" fill="white"/>
<path d="M107.58 69.47C107.62 69.65 107.49 69.69 107.36 69.69H102.38C102.25 69.69 102.12 69.6 102.07 69.47C101.32 67.53 99.8698 66.38 97.3098 66.38C93.6098 66.38 91.8398 69.38 91.8398 73.3C91.8398 77.22 93.5998 80.22 97.3098 80.22C100.26 80.22 101.41 79.07 102.16 77.13C102.2 77 102.34 76.91 102.47 76.91H107.45C107.58 76.91 107.71 76.95 107.67 77.13C106.74 82.16 102.87 84.89 97.3098 84.89C90.4298 84.89 86.5098 80.17 86.5098 73.3C86.5098 66.43 90.4298 61.71 97.3098 61.71C102.91 61.71 106.83 64.75 107.58 69.47Z" fill="white"/>
<path d="M109.62 84.4499C109.49 84.4499 109.4 84.3599 109.4 84.2299V53.6399C109.4 53.5099 109.49 53.4199 109.62 53.4199H114.47C114.6 53.4199 114.69 53.5099 114.69 53.6399V84.2299C114.69 84.3599 114.6 84.4499 114.47 84.4499H109.62Z" fill="white"/>
<path d="M137.49 75.3297H122.15C122.02 75.3297 121.93 75.4197 121.93 75.5497C121.93 77.9697 124.05 80.0497 127.18 80.0497C129.12 80.0497 130.71 79.5697 131.46 78.0697C131.5 77.9797 131.59 77.8497 131.81 77.8497H136.97C137.1 77.8497 137.23 77.9397 137.19 78.0697C136.22 82.3497 132.21 84.8997 127.18 84.8997C120.74 84.8997 116.42 80.1797 116.42 73.3097C116.42 66.4397 120.74 61.7197 127.18 61.7197C133.62 61.7197 137.94 66.4397 137.94 73.3097C137.9 74.1897 137.85 74.5897 137.72 75.1197C137.68 75.2497 137.63 75.3397 137.5 75.3397L137.49 75.3297ZM132.11 70.9197C132.24 70.9197 132.29 70.8797 132.29 70.7397C132.29 68.9797 130.79 66.5497 127.18 66.5497C123.57 66.5497 121.93 69.0197 121.93 70.7397C121.93 70.8697 121.97 70.9197 122.11 70.9197H132.12H132.11Z" fill="white"/>
<path d="M147.69 84.8902C141.7 84.8902 138.96 81.8002 138.96 77.7902C138.96 74.0002 142.18 70.6502 148.61 70.6502H152.75C153.63 70.6502 154.07 70.1202 154.07 69.6802C154.07 68.7502 153.76 66.5502 149.44 66.5502C146.09 66.5502 145.12 67.9602 144.99 69.4602C144.99 69.5902 144.9 69.6802 144.77 69.6802H139.97C139.84 69.6802 139.75 69.5902 139.75 69.4602C139.75 64.2602 144.25 61.7002 149.45 61.7002C155.53 61.7002 159.37 64.5702 159.37 70.0802V78.6302C159.37 79.5102 160.03 80.0402 160.96 80.0402H161.62C161.75 80.0402 161.84 80.1302 161.84 80.2602V84.2302C161.84 84.3602 161.75 84.4502 161.62 84.4502H159.37C157.08 84.4502 155.89 83.5702 155.05 82.3302C154.96 82.2002 154.79 82.2002 154.65 82.3302C153.5 83.4802 151.17 84.8902 147.68 84.8902H147.69ZM154.08 75.2802C154.08 75.1502 153.99 75.0602 153.86 75.0602H148.83C144.91 75.0602 144.25 76.6502 144.25 77.7902C144.25 78.7202 145.04 80.0402 147.69 80.0402C152.23 80.0402 154.08 77.4802 154.08 75.2802Z" fill="white"/>
<path d="M173.62 66.78C170.18 66.78 168.77 69.12 168.77 71.76V84.24C168.77 84.37 168.68 84.46 168.55 84.46H163.66C163.57 84.46 163.48 84.37 163.48 84.24V62.38C163.48 62.25 163.57 62.16 163.66 62.16H167.89C168.15 62.16 168.24 62.25 168.33 62.42L168.77 63.74C168.86 63.92 169.03 63.96 169.17 63.83C170.49 62.51 171.99 61.71 174.06 61.71H176.48C176.61 61.71 176.7 61.8 176.7 61.93V66.56C176.7 66.69 176.61 66.78 176.48 66.78H173.61H173.62Z" fill="white"/>
<path d="M195.3 72.0199C195.3 68.1399 193.54 64.3899 188.42 64.3499C183.48 64.3499 181.54 66.6899 181.54 71.9799V84.2299C181.54 84.3599 181.45 84.4499 181.32 84.4499H178.68C178.55 84.4499 178.46 84.3599 178.46 84.2299V53.6399C178.46 53.5099 178.55 53.4199 178.68 53.4199H181.32C181.45 53.4199 181.54 53.5099 181.54 53.6399V64.3499C181.54 64.5699 181.8 64.6099 181.94 64.4799C182.69 63.7299 184.54 61.6999 188.42 61.6999C195.16 61.7399 198.38 66.3699 198.38 72.0199V84.2299C198.38 84.3599 198.29 84.4499 198.16 84.4499H195.52C195.39 84.4499 195.3 84.3599 195.3 84.2299V72.0199Z" fill="white"/>
<path d="M210.9 84.8902C203.98 84.8902 199.97 80.1702 199.97 73.3002C199.97 66.4302 203.98 61.6602 210.9 61.6602C217.82 61.6602 221.83 66.4202 221.83 73.3002C221.83 80.1802 217.77 84.8902 210.9 84.8902ZM210.9 64.3502C206.01 64.3502 203.05 68.0102 203.05 73.3002C203.05 78.5902 206 82.2502 210.9 82.2502C215.8 82.2502 218.75 78.5902 218.75 73.3002C218.75 68.0102 215.8 64.3502 210.9 64.3502Z" fill="white"/>
<path d="M238.35 72.0199C238.35 68.0099 237.47 64.3499 232.4 64.3499C227.64 64.3499 226.54 68.0499 226.54 72.0199V84.2299C226.54 84.3599 226.45 84.4499 226.32 84.4499H223.68C223.55 84.4499 223.46 84.3599 223.46 84.2299V62.3699C223.46 62.2399 223.55 62.1499 223.68 62.1499H225.84C225.97 62.1499 226.06 62.1899 226.1 62.3699L226.54 64.7899C226.58 65.0499 226.85 65.0999 226.98 64.8799C227.33 64.3999 229.01 61.7099 232.84 61.7099C237.69 61.7099 239.41 63.9999 240.25 65.3699C240.38 65.5899 240.6 65.5499 240.69 65.3699C242.28 62.6799 244.44 61.6699 247.79 61.6699C254.09 61.6699 256.39 65.4599 256.39 72.0299V84.2399C256.39 84.3699 256.3 84.4599 256.17 84.4599H253.52C253.39 84.4599 253.3 84.3699 253.3 84.2399V72.0299C253.3 68.1099 252.15 64.2699 247.35 64.2699C242.55 64.2699 241.44 68.0199 241.44 72.0299V84.2399C241.44 84.3699 241.35 84.4599 241.22 84.4599H238.58C238.45 84.4599 238.36 84.3699 238.36 84.2399V72.0299L238.35 72.0199Z" fill="white"/>
<path d="M261.53 74.4502C261.4 74.4502 261.31 74.5402 261.31 74.6702C261.31 78.5102 264.04 82.2502 268.67 82.2502C272.24 82.2502 274.22 80.4402 275.06 78.8102C275.15 78.6302 275.28 78.5902 275.41 78.5902H278.23C278.36 78.5902 278.54 78.6302 278.49 78.8102C277.17 82.8202 273.42 84.8902 268.66 84.8902C262.27 84.8902 257.95 80.1702 257.95 73.3002C257.95 66.4302 262.05 61.6602 268.66 61.6602C275.27 61.6602 279.24 66.4202 279.24 73.3002C279.24 73.6102 279.2 74.0902 279.15 74.2302C279.11 74.3602 279.02 74.4502 278.89 74.4502H261.52H261.53ZM268.67 64.3102C263.64 64.3102 261.31 68.9402 261.31 71.5802C261.31 71.7102 261.4 71.8002 261.53 71.8002H275.68C275.81 71.8002 275.9 71.7102 275.9 71.5802C275.9 68.4102 273.83 64.3102 268.67 64.3102Z" fill="white"/>
</svg>
