<svg width="193" height="161" viewBox="0 0 193 161" fill="none" xmlns="http://www.w3.org/2000/svg">
<path d="M55.0529 154.629C42.0608 154.572 29.1004 153.341 16.3299 150.951C15.0909 150.725 14.1128 150.546 13.7748 150.52C13.4599 150.496 13.1676 150.347 12.9622 150.107C12.7569 149.867 12.6553 149.555 12.6799 149.24C12.7044 148.925 12.853 148.633 13.0931 148.428C13.3331 148.222 13.645 148.121 13.9599 148.145C14.4199 148.181 15.2998 148.345 16.7598 148.608C29.3754 150.969 42.1785 152.186 55.0129 152.243C101.794 152.243 139.44 134.462 163.181 100.467C189.381 62.9503 191.119 22.2743 189.823 1.36732C189.809 1.05552 189.918 0.750778 190.127 0.518692C190.336 0.286606 190.627 0.145723 190.939 0.126327C191.25 0.106932 191.557 0.210586 191.793 0.414993C192.029 0.619401 192.175 0.908216 192.2 1.21931C193.515 22.4373 191.748 63.7193 165.133 101.831C140.922 136.495 102.599 154.627 55.0529 154.629Z" fill="url(#paint0_linear_1_196)"/>
<path d="M13.0641 160.808C12.6771 160.808 12.217 160.599 11.864 159.8C10.815 157.4 5.38599 152.339 1.87 149.613L0 148.162L2.27905 147.525C6.95963 146.21 11.2688 143.821 14.864 140.548L15.364 140.092C15.4774 139.976 15.6134 139.884 15.7635 139.823C15.9137 139.761 16.075 139.731 16.2373 139.734C16.3996 139.736 16.5595 139.772 16.7074 139.839C16.8553 139.906 16.9879 140.003 17.0972 140.123C17.2064 140.243 17.29 140.384 17.3427 140.538C17.3953 140.691 17.4162 140.854 17.4037 141.016C17.3912 141.178 17.3457 141.335 17.2701 141.479C17.1945 141.623 17.0904 141.749 16.9641 141.851L16.4641 142.307C13.1556 145.319 9.28012 147.641 5.06409 149.137C6.39609 150.251 7.88104 151.576 9.26404 152.937C8.69704 151.48 8.26404 150.381 8.26404 150.381C8.20464 150.235 8.17484 150.079 8.17639 149.921C8.17794 149.763 8.21081 149.607 8.27307 149.463C8.33533 149.318 8.42572 149.187 8.53906 149.077C8.6524 148.967 8.78648 148.881 8.93335 148.824C9.08022 148.766 9.23698 148.738 9.39465 148.742C9.55233 148.746 9.70773 148.781 9.85181 148.845C9.99589 148.909 10.1258 149.001 10.234 149.116C10.3422 149.231 10.4265 149.366 10.4821 149.513C10.4821 149.513 11.382 151.805 12.292 154.158C12.772 155.396 13.2561 156.65 13.6161 157.597C14.3531 159.535 14.629 160.26 13.535 160.711C13.3855 160.773 13.2258 160.806 13.0641 160.808Z" fill="url(#paint1_linear_1_196)"/>
<defs>
<linearGradient id="paint0_linear_1_196" x1="2219.43" y1="-2650.26" x2="2344.83" y2="-2843.84" gradientUnits="userSpaceOnUse">
<stop stop-color="#00FFA6"/>
<stop offset="1" stop-color="#5199FF"/>
</linearGradient>
<linearGradient id="paint1_linear_1_196" x1="11074.1" y1="-4398.79" x2="11091.9" y2="-4398.79" gradientUnits="userSpaceOnUse">
<stop offset="0.162" stop-color="#00FFA6"/>
<stop offset="0.793" stop-color="#5199FF"/>
</linearGradient>
</defs>
</svg>
