<svg width="315" height="127" viewBox="0 0 315 127" fill="none" xmlns="http://www.w3.org/2000/svg">
<path d="M251.14 63.9204C251.14 57.2904 246.61 52.8604 241.01 52.8604C233.94 52.8604 228.22 58.5904 228.22 65.6504V66.7104C228.22 73.1104 233.41 78.2904 239.8 78.2904H240.22C243.05 78.2904 245.9 77.2104 248.04 75.4404L247.7 73.1904C246.63 73.9004 245.34 74.3404 243.81 74.3404C235.16 74.3404 235.64 63.9404 235.64 63.9404L251.13 63.9204H251.14ZM240.29 54.5604C240.29 54.5604 244.05 53.9304 244.23 61.4604L235.81 61.8904C235.89 60.1304 236.43 54.5604 240.3 54.5604H240.29Z" fill="white"/>
<path d="M266.05 78.8705L251.68 69.2305L254 78.8705L251.68 88.5205L266.05 78.8705Z" fill="white"/>
<path d="M108.57 56.5397V52.9297L98.6099 55.0497L101.19 57.6297V74.4697L97.9199 77.7397H111.84L108.56 74.4697V58.9497C108.56 58.9497 109.06 57.1697 112.07 57.1697C115.08 57.1697 117.16 60.8197 117.16 60.8197L118.69 53.1397C118.69 53.1397 112.88 51.3997 108.56 56.5297L108.57 56.5397Z" fill="white"/>
<path d="M160.98 74.3499C152.33 74.3499 152.81 63.9499 152.81 63.9499C152.81 63.9499 152.51 54.5699 158.53 54.5699C159.1 54.5499 159.7 54.6299 160.32 54.8199L165.64 60.1599L166.55 54.5599C166.55 54.5599 163.63 52.8799 158.18 52.8799C151.11 52.8799 145.39 58.6099 145.39 65.6699V66.7299C145.39 73.1299 150.58 78.3099 156.97 78.3099H157.39C161.79 78.3099 166.26 75.7099 167.99 71.9599L166.83 71.3799C165.47 73.1099 163.59 74.3499 160.99 74.3499H160.98Z" fill="white"/>
<path d="M185.79 72.63C185.43 73.23 184.45 74.24 183.04 74.24C181.13 74.24 179.96 73.17 179.96 70.52V56.25H185.39L185.67 55.04L185.85 54.28H179.96V47L172.62 48.57V54.28H169.97L169.51 56.25H172.63V70.67C172.63 76.08 175.23 78.29 179.71 78.29C183.03 78.29 186.05 75.57 187.06 73.2L187.13 73.05L185.9 72.48L185.8 72.65L185.79 72.63Z" fill="white"/>
<path d="M60.88 44H47L50.84 47.86V73.89L47 77.75H60.88C70.67 77.75 79.44 73.3 79.44 61.5V60.26C79.44 48.78 70.72 44.01 60.88 44.01V44ZM68.76 71.53C65.47 76.08 58.64 75.78 58.64 75.78V45.96C58.64 45.96 65.47 45.66 68.76 50.21C71.59 54.13 71.45 57.84 71.45 60.53C71.45 63.22 71.59 67.6 68.76 71.52V71.53Z" fill="white"/>
<path d="M142.28 63.9204C142.28 57.2904 137.75 52.8604 132.15 52.8604C125.08 52.8604 119.36 58.5904 119.36 65.6504V66.7104C119.36 73.1104 124.55 78.2904 130.94 78.2904H131.36C135.76 78.2904 140.23 75.6904 141.96 71.9404L140.8 71.3604C139.44 73.0904 137.56 74.3304 134.97 74.3304C126.32 74.3304 126.79 63.9304 126.79 63.9304L142.28 63.9104V63.9204ZM131.43 54.5604C131.43 54.5604 135.19 53.9304 135.37 61.4604L126.95 61.8904C127.03 60.1304 127.57 54.5604 131.44 54.5604H131.43Z" fill="white"/>
<path d="M213.7 56.7603L216.88 53.5703H202.37L205.56 56.7603L214.38 77.7503H216.59L219.25 71.3003L213.72 56.7903L213.7 56.7603Z" fill="white"/>
<path d="M219.62 53.5703L224.24 58.2003L228.87 53.5703H219.62Z" fill="white"/>
<path d="M92.7404 52.9404L82.7803 55.0604L85.3704 57.6504V74.4804L82.1104 77.7504H85.3704H92.7404H96.0103L92.7404 74.4804V52.9404Z" fill="white"/>
<path d="M199.66 52.9404L189.7 55.0604L192.29 57.6504V74.4804L189.03 77.7504H192.29H199.66H202.93L199.66 74.4804V52.9404Z" fill="white"/>
</svg>
