<svg width="315" height="127" viewBox="0 0 315 127" fill="none" xmlns="http://www.w3.org/2000/svg">
<path d="M118.083 36H122.392C124.795 36 126.304 38.6018 125.102 40.6887L112.942 61.8557C112.382 62.8223 111.352 63.4276 110.232 63.4276H106.167C103.773 63.4276 102.273 60.8529 103.438 58.766L115.354 37.59C115.905 36.6053 116.953 36 118.083 36Z" fill="white"/>
<path d="M100.926 48.6568C102.127 50.7437 105.136 50.7437 106.337 48.6568L108.641 44.6728L110.945 40.6887C112.146 38.6018 110.647 36 108.234 36H99.0286C96.6255 36 95.1168 38.6018 96.3184 40.6887L98.6221 44.6728L100.926 48.6568Z" fill="white"/>
<path d="M99.0388 87.0147L96.8797 90.7458C95.6781 92.8237 92.6698 92.8327 91.4682 90.7458L79.2179 69.6331C78.6578 68.6664 78.6578 67.4739 79.2179 66.4982L81.2506 62.9749C82.4431 60.9061 85.4334 60.888 86.653 62.9478L99.0208 83.8528C99.599 84.8285 99.599 86.03 99.0388 87.0057V87.0147Z" fill="white"/>
<path d="M96.6448 65.8301C94.2417 65.8301 92.733 68.4319 93.9346 70.5188L96.2383 74.5028L98.542 78.4869C99.7435 80.5738 102.752 80.5738 103.953 78.4869L106.257 74.5028L108.561 70.5188C109.762 68.4319 108.263 65.8301 105.851 65.8301H101.252H96.6539H96.6448Z" fill="white"/>
<path d="M64.5824 44.474L62.4232 40.7429C61.2217 38.656 62.7213 36.0542 65.1244 36.0542L89.5347 36C90.6549 36 91.6848 36.5963 92.2449 37.5629L94.2776 41.0862C95.4701 43.155 93.9975 45.7478 91.6035 45.7749L67.3197 46.0369C66.1905 46.046 65.1425 45.4497 64.5824 44.474Z" fill="white"/>
<path d="M84.1143 53.0022C85.3159 50.9153 83.8162 48.3135 81.4041 48.3135H76.8057H72.2073C69.8042 48.3135 68.2955 50.9153 69.4971 53.0022L71.8008 56.9862L74.1045 60.9703C75.306 63.0572 78.3144 63.0572 79.5159 60.9703L81.8196 56.9862L84.1234 53.0022H84.1143Z" fill="white"/>
<path d="M135.301 69.1371V57.1397C135.301 53.4538 136.358 50.8068 138.472 49.1897C140.586 47.5816 144.01 46.7686 148.744 46.7686C153.225 46.7686 156.459 47.5455 158.446 49.0903C160.434 50.6442 161.428 53.3183 161.428 57.1307V63.8521H141.011V68.4414C141.011 70.5374 141.742 72.0461 143.206 72.9675C144.669 73.889 146.937 74.3498 149.991 74.3498C152.881 74.3498 156.296 73.8439 160.235 72.8411V77.1775C156.378 78.0176 152.719 78.4332 149.241 78.4332C139.945 78.4332 135.292 75.3345 135.292 69.1371H135.301ZM155.781 60.1481V55.3691C155.781 53.5261 155.221 52.2613 154.119 51.5657C153.008 50.8701 151.111 50.5268 148.437 50.5268C145.763 50.5268 143.956 50.8701 142.781 51.5657C141.607 52.2523 141.02 53.5261 141.02 55.3691V60.1481H155.781Z" fill="white"/>
<path d="M166.279 47.4009H171.935V51.1049C172.522 48.214 175.846 46.7686 181.926 46.7686C185.82 46.7686 188.557 47.4732 190.129 48.8735C191.701 50.2738 192.487 52.4872 192.487 55.5046V77.8098H186.832V55.8117C186.832 55.0167 186.769 54.3663 186.642 53.8604C186.516 53.3544 186.263 52.8576 185.892 52.3517C185.052 51.3037 183.191 50.7797 180.3 50.7797C178.078 50.7797 176.37 50.9333 175.178 51.2495C173.985 51.5657 173.145 52.0806 172.666 52.7853C172.188 53.499 171.944 54.5018 171.944 55.8027V77.7918H166.288V47.4009H166.279Z" fill="white"/>
<path d="M196.118 73.971L213.211 51.2231H196.751V47.3926H219.625V51.2231L202.532 73.971H219.995V77.8015H196.118V73.971Z" fill="white"/>
<path d="M234.603 78.2442L222.85 47.3926H229.011L237.494 72.2094H237.62L245.281 47.3926H251L235.732 90.8739H229.824L234.603 78.2442Z" fill="white"/>
</svg>
