<svg width="174" height="53" viewBox="0 0 174 53" fill="none" xmlns="http://www.w3.org/2000/svg">
<path d="M51.622 0.91211H55.57C56.0721 0.911911 56.5655 1.04369 57.0005 1.29443C57.4355 1.54517 57.7968 1.90576 58.0483 2.34033C58.2998 2.7749 58.4325 3.26793 58.4332 3.77002C58.4339 4.27211 58.3024 4.76546 58.0521 5.20068L46.9161 24.5767C46.6654 25.0133 46.3038 25.3763 45.868 25.6284C45.4322 25.8806 44.9376 26.013 44.4341 26.0127H40.7131C40.2133 26.0129 39.722 25.8824 39.2884 25.6338C38.8548 25.3852 38.4939 25.0272 38.2416 24.5957C37.9892 24.1642 37.8543 23.6741 37.8502 23.1743C37.8461 22.6745 37.9729 22.1826 38.2181 21.7471L49.1281 2.37012C49.3772 1.92774 49.7393 1.55944 50.1776 1.30322C50.6159 1.04701 51.1144 0.912102 51.622 0.91211Z" fill="#221F20"/>
<path d="M35.9215 12.5039C36.1728 12.9389 36.5342 13.3001 36.9694 13.5513C37.4045 13.8024 37.8981 13.9346 38.4005 13.9346C38.9029 13.9346 39.3965 13.8024 39.8317 13.5513C40.2668 13.3001 40.6282 12.9389 40.8795 12.5039L42.9855 8.85498L45.0925 5.20605C45.344 4.77092 45.4763 4.27698 45.4764 3.77441C45.4765 3.27184 45.3444 2.77802 45.0931 2.34277C44.8419 1.90753 44.4803 1.54614 44.045 1.29492C43.6098 1.04371 43.1161 0.911932 42.6135 0.91211H34.1875C33.685 0.91206 33.1912 1.0442 32.756 1.29541C32.3207 1.54662 31.9593 1.90809 31.708 2.34326C31.4567 2.77843 31.3243 3.27188 31.3242 3.77441C31.3241 4.27695 31.4563 4.77079 31.7075 5.20605L33.8145 8.85498L35.9215 12.5039Z" fill="#221F20"/>
<path d="M34.1901 47.6182L32.2161 51.0376C31.9645 51.472 31.6033 51.8324 31.1685 52.083C30.7336 52.3337 30.2406 52.4654 29.7386 52.4654C29.2367 52.4654 28.7437 52.3337 28.3088 52.083C27.874 51.8324 27.5126 51.472 27.2611 51.0376L16.0491 31.7056C15.7969 31.2698 15.6641 30.7751 15.6641 30.2715C15.6641 29.768 15.7969 29.2733 16.0491 28.8374L17.9102 25.6143C18.1601 25.1814 18.519 24.8219 18.9512 24.5708C19.3834 24.3198 19.8738 24.1863 20.3737 24.1836C20.8735 24.181 21.3653 24.3092 21.8002 24.5557C22.235 24.8022 22.5977 25.1582 22.8522 25.5884L34.1781 44.7246C34.4371 45.1624 34.5748 45.6613 34.5769 46.17C34.579 46.6786 34.4454 47.1783 34.1901 47.6182Z" fill="#221F20"/>
<path d="M32 28.2246C31.4975 28.2247 31.0039 28.3571 30.5688 28.6084C30.1337 28.8597 29.7725 29.2206 29.5212 29.6558C29.27 30.0909 29.1377 30.5845 29.1377 31.0869C29.1377 31.5894 29.2699 32.0834 29.521 32.5186L31.6281 36.1675L33.735 39.8164C33.9863 40.2514 34.3477 40.6126 34.7828 40.8638C35.218 41.1149 35.7116 41.2471 36.214 41.2471C36.7164 41.2471 37.21 41.1149 37.6451 40.8638C38.0803 40.6126 38.4417 40.2514 38.693 39.8164L40.799 36.1675L42.906 32.5186C43.1575 32.0834 43.2899 31.5895 43.29 31.0869C43.2901 30.5843 43.1579 30.0905 42.9066 29.6553C42.6553 29.22 42.2939 28.8586 41.8586 28.6074C41.4234 28.3562 40.9296 28.2244 40.427 28.2246H32Z" fill="#221F20"/>
<path d="M2.64221 8.67286L0.668214 5.25392C0.417007 4.81922 0.284552 4.32629 0.28418 3.82423C0.283809 3.32217 0.415575 2.82863 0.666138 2.39357C0.916702 1.9585 1.27735 1.59687 1.71179 1.34523C2.14624 1.09358 2.63918 0.960847 3.14124 0.959973L25.4893 0.916027C25.9928 0.91459 26.4877 1.04609 26.9241 1.29737C27.3604 1.54866 27.7227 1.91046 27.9742 2.34669L29.8352 5.56984C30.0851 6.00275 30.2173 6.49382 30.2186 6.99366C30.22 7.49351 30.0903 7.98472 29.8428 8.41896C29.5952 8.8532 29.2383 9.21527 28.8075 9.46876C28.3767 9.72225 27.887 9.85826 27.3872 9.86378L5.15222 10.104C4.64456 10.1094 4.14466 9.97949 3.70361 9.72804C3.26257 9.47659 2.89621 9.11245 2.64221 8.67286Z" fill="#221F20"/>
<path d="M20.531 16.4751C20.7821 16.0399 20.9144 15.5459 20.9143 15.0435C20.9143 14.541 20.782 14.0474 20.5308 13.6123C20.2795 13.1772 19.9183 12.8157 19.4832 12.5645C19.0481 12.3132 18.5545 12.1808 18.052 12.1807H9.625C9.12255 12.1808 8.62895 12.3132 8.19385 12.5645C7.75875 12.8157 7.39746 13.1772 7.14624 13.6123C6.89503 14.0474 6.76274 14.541 6.7627 15.0435C6.76265 15.5459 6.89486 16.0399 7.146 16.4751L9.25305 20.123L11.36 23.772C11.6111 24.2073 11.9724 24.5685 12.4076 24.8198C12.8428 25.0712 13.3365 25.2036 13.839 25.2036C14.3415 25.2036 14.8352 25.0712 15.2704 24.8198C15.7056 24.5685 16.0669 24.2073 16.318 23.772L18.424 20.123L20.531 16.4751Z" fill="#221F20"/>
<path d="M67.3901 31.2495V20.2622C67.3901 16.8882 68.3585 14.4627 70.2952 12.9854C72.2318 11.508 75.3651 10.7702 79.6951 10.7715C83.7971 10.7715 86.7592 11.4807 88.5812 12.8994C90.4032 14.3181 91.3141 16.7722 91.3141 20.2622V26.4175H72.6191V30.6172C72.5523 31.4248 72.7041 32.2356 73.0585 32.9644C73.4128 33.6931 73.9567 34.3131 74.6332 34.7593C75.9752 35.6026 78.0458 36.0244 80.8451 36.0244C84.0152 35.9502 87.1642 35.4865 90.2211 34.6436V38.6123C86.9165 39.3543 83.542 39.74 80.1552 39.7632C71.6452 39.7625 67.3901 36.9248 67.3901 31.2495ZM86.1421 23.0234V18.6514C86.2186 17.9884 86.1178 17.3169 85.8501 16.7056C85.5824 16.0942 85.1573 15.5648 84.6182 15.1714C83.6008 14.5394 81.8654 14.2228 79.4121 14.2222C77.6342 14.1003 75.8542 14.4268 74.2351 15.1714C73.6743 15.5489 73.2276 16.073 72.9436 16.6865C72.6596 17.3 72.5491 17.9795 72.6241 18.6514V23.0234H86.1421Z" fill="#221F20"/>
<path d="M95.7471 11.3462H100.924V14.7402C101.461 12.0942 104.51 10.7715 110.07 10.7715C113.636 10.7715 116.138 11.4136 117.577 12.6982C119.016 13.9829 119.735 16.0062 119.734 18.7676V39.1875H114.557V19.0542C114.57 18.4551 114.512 17.8569 114.384 17.2715C114.249 16.7697 114.014 16.3002 113.694 15.8906C112.926 14.9326 111.22 14.4528 108.575 14.4521C107.001 14.4059 105.427 14.551 103.887 14.8843C102.974 15.0575 102.156 15.5588 101.587 16.2935C101.098 17.1281 100.868 18.0886 100.925 19.0542V39.1875H95.7482L95.7471 11.3462Z" fill="#221F20"/>
<path d="M123.07 35.6777L138.716 14.855H123.645V11.3457H144.583V14.855L128.937 35.6777H144.928V39.187H123.07V35.6777Z" fill="#221F20"/>
<path d="M158.3 39.5889L147.543 11.3457H153.18L160.946 34.0669H161.061L168.078 11.3457H173.313L159.335 51.1509H153.928L158.3 39.5889Z" fill="#221F20"/>
</svg>
