<svg width="266" height="154" viewBox="0 0 266 154" fill="none" xmlns="http://www.w3.org/2000/svg">
<path d="M123.553 56.1143V49.3398C123.555 47.0115 124.481 44.7796 126.127 43.1328C127.773 41.4861 130.005 40.5593 132.333 40.5562H144.108C146.436 40.5604 148.668 41.4869 150.315 43.1333C151.961 44.7797 152.888 47.0115 152.892 49.3398V56.1143H165.456V49.3398C165.449 43.6807 163.197 38.2557 159.195 34.2549C155.192 30.2541 149.766 28.0045 144.107 28H132.346C126.687 28.0045 121.261 30.2541 117.258 34.2549C113.256 38.2557 111.004 43.6807 110.997 49.3398V56.1143H123.553Z" fill="white"/>
<path d="M171.114 60.9229H105.338C104.505 60.9232 103.679 61.0882 102.91 61.4077C102.14 61.7272 101.441 62.1952 100.852 62.7852C100.264 63.3751 99.7971 64.0753 99.4793 64.8457C99.1614 65.6161 98.9986 66.4415 99 67.2749V119.183C99 120.864 99.6676 122.476 100.856 123.665C102.045 124.854 103.657 125.522 105.338 125.522H171.114C172.795 125.522 174.407 124.854 175.596 123.665C176.784 122.476 177.452 120.864 177.452 119.183V67.2749C177.453 66.4415 177.291 65.6161 176.973 64.8457C176.655 64.0753 176.188 63.3751 175.6 62.7852C175.011 62.1952 174.312 61.7272 173.542 61.4077C172.773 61.0882 171.947 60.9232 171.114 60.9229ZM147.87 105.04C145.733 106.917 143.002 107.979 140.158 108.04V112.203H135.415V107.94C132.917 107.818 130.525 106.893 128.596 105.302C126.976 103.683 126.031 101.51 125.95 99.2212H132.982C133.046 99.7434 133.225 100.245 133.507 100.689C133.789 101.133 134.167 101.509 134.612 101.789C135.909 102.431 137.353 102.717 138.797 102.617C139.957 102.669 141.101 102.338 142.054 101.675C142.451 101.393 142.773 101.017 142.991 100.581C143.209 100.145 143.317 99.6626 143.305 99.1753C143.309 98.745 143.226 98.3181 143.063 97.9199C142.9 97.5218 142.659 97.1601 142.355 96.856C141.335 95.9763 140.14 95.3215 138.85 94.9341C137.363 94.4007 135.875 93.8205 134.386 93.1938C132.865 92.571 131.399 91.8246 130 90.9619C128.831 90.2332 127.846 89.2444 127.123 88.0723C126.32 86.4315 126.036 84.5852 126.307 82.7788C126.577 80.9724 127.391 79.2911 128.64 77.958C130.518 76.2759 132.89 75.2466 135.402 75.0239V70.73H140.145V74.8931C143.388 75.1331 145.78 75.9816 147.32 77.439C148.103 78.2073 148.722 79.1261 149.14 80.1401C149.558 81.1541 149.767 82.2421 149.753 83.3389H142.826C142.892 82.82 142.809 82.2932 142.588 81.8193C142.367 81.3455 142.015 80.9443 141.575 80.6621C140.51 79.9949 139.268 79.6681 138.013 79.7251C136.724 79.6393 135.438 79.925 134.307 80.5488C133.915 80.8079 133.597 81.1643 133.384 81.583C133.171 82.0017 133.07 82.4686 133.091 82.938C133.034 83.7256 133.274 84.506 133.763 85.126C134.502 85.8726 135.392 86.4525 136.374 86.8262C137.257 87.2562 138.167 87.6287 139.098 87.9419C140.049 88.2559 140.982 88.5829 141.888 88.9229C142.794 89.2629 143.698 89.6381 144.588 90.0391C145.459 90.4428 146.286 90.9366 147.055 91.5122C148.179 92.2761 149.095 93.3069 149.723 94.5122C150.259 95.6804 150.526 96.9541 150.504 98.2393C150.56 99.4933 150.356 100.745 149.902 101.916C149.449 103.087 148.757 104.15 147.871 105.039L147.87 105.04Z" fill="white"/>
</svg>
