<svg width="266" height="154" viewBox="0 0 266 154" fill="none" xmlns="http://www.w3.org/2000/svg">
<path fill-rule="evenodd" clip-rule="evenodd" d="M104.486 85.9768V42.7946C104.487 41.4936 105.004 40.2458 105.924 39.3258C106.843 38.4059 108.091 37.8889 109.392 37.8886H172.206C173.507 37.8889 174.755 38.4059 175.674 39.3258C176.594 40.2458 177.111 41.4936 177.112 42.7946V105.608C177.111 106.909 176.594 108.157 175.674 109.077C174.755 109.997 173.507 110.514 172.206 110.514H129.024C128.243 110.514 127.494 110.825 126.942 111.377C126.389 111.929 126.079 112.678 126.079 113.458C126.079 114.239 126.389 114.988 126.942 115.541C127.494 116.093 128.243 116.403 129.024 116.403H172.206C175.068 116.402 177.813 115.265 179.838 113.24C181.862 111.216 182.999 108.471 183 105.608V42.7946C182.999 39.9321 181.861 37.1874 179.837 35.1633C177.813 33.1392 175.068 32.0012 172.206 32H109.392C106.53 32.0012 103.785 33.1392 101.761 35.1633C99.7366 37.1874 98.5989 39.9321 98.5977 42.7946V85.9768C98.5977 86.7577 98.9079 87.5068 99.46 88.059C100.012 88.6112 100.761 88.9211 101.542 88.9211C102.323 88.9211 103.072 88.6112 103.624 88.059C104.176 87.5068 104.486 86.7577 104.486 85.9768Z" fill="white"/>
<path d="M144.394 68H125.928C125.315 68 124.728 68.2434 124.295 68.6763C123.862 69.1092 123.619 69.6963 123.619 70.3085C123.619 70.9207 123.862 71.5079 124.295 71.9408C124.728 72.3737 125.315 72.6171 125.928 72.6171H138.817L103.617 107.817V94.9277C103.617 94.3155 103.374 93.7283 102.941 93.2954C102.508 92.8625 101.921 92.6196 101.308 92.6196C100.696 92.6196 100.109 92.8625 99.6761 93.2954C99.2432 93.7283 99 94.3155 99 94.9277V113.395C99 113.698 99.0597 113.998 99.1757 114.278C99.2918 114.558 99.4618 114.812 99.6762 115.026C99.8905 115.241 100.145 115.411 100.425 115.526C100.705 115.642 101.005 115.702 101.308 115.702H119.775C120.387 115.702 120.975 115.459 121.407 115.026C121.84 114.593 122.084 114.006 122.084 113.394C122.084 112.781 121.84 112.194 121.407 111.761C120.975 111.329 120.387 111.085 119.775 111.085H106.886L142.087 75.8853V88.7745C142.087 89.3867 142.33 89.9739 142.763 90.4068C143.196 90.8397 143.783 91.0826 144.395 91.0826C145.008 91.0826 145.595 90.8397 146.028 90.4068C146.461 89.9739 146.704 89.3867 146.704 88.7745V70.3076C146.704 70.0044 146.644 69.7044 146.528 69.4243C146.412 69.1442 146.242 68.8896 146.027 68.6754C145.813 68.4611 145.558 68.2911 145.278 68.1753C144.998 68.0594 144.698 67.9998 144.394 68Z" fill="white"/>
</svg>
