<svg width="264" height="127" viewBox="0 0 264 127" fill="none" xmlns="http://www.w3.org/2000/svg">
<path d="M50.3501 74.0647C49.1401 74.6047 47.91 75.0047 46.67 75.2947C46.48 75.3347 46.2801 75.3847 46.0901 75.4147C45.9001 75.4547 45.7 75.4847 45.51 75.5247C45.21 75.5747 44.92 75.6147 44.62 75.6547C36.11 76.6847 27.58 72.1347 23.92 63.8947L22 59.5747C25.35 58.0847 28.88 57.5947 32.28 57.9647C31.91 59.2047 31.65 60.4947 31.51 61.8047L31.39 62.9647L32.55 63.0847L37.25 63.5847C39.47 63.8247 41.6701 63.7147 43.8201 63.2647C44.1101 63.5347 44.38 63.8047 44.65 64.0947C44.82 64.2647 44.98 64.4447 45.14 64.6247C45.31 64.8147 45.48 65.0147 45.64 65.2147C46.74 66.5647 47.68 68.0847 48.42 69.7547L50.3401 74.0747L50.3501 74.0647Z" fill="white"/>
<path d="M60.1301 66.4646C60.7201 71.3146 59.5402 76.3946 56.4402 80.6546L53.6602 84.4746C50.7002 82.3146 48.5001 79.5046 47.1301 76.3846C48.3901 76.0846 49.6302 75.6646 50.8402 75.1246L51.9102 74.6546L51.4402 73.5846L49.5201 69.2646C48.6101 67.2246 47.4202 65.3746 45.9502 63.7346C46.0402 63.3546 46.1401 62.9746 46.2501 62.6046C46.3201 62.3746 46.3902 62.1446 46.4702 61.9146C46.5502 61.6746 46.6401 61.4246 46.7301 61.1846C47.3501 59.5546 48.1901 57.9846 49.2701 56.5046L52.0502 52.6846C53.1202 53.4646 54.0902 54.3246 54.9502 55.2546C55.0902 55.4046 55.2202 55.5446 55.3502 55.6946C55.4802 55.8446 55.6101 55.9946 55.7301 56.1446C58.2001 59.1346 59.6901 62.7346 60.1401 66.4646H60.1301Z" fill="white"/>
<path d="M59.4102 44.6147C59.0202 48.2547 57.6802 51.5647 55.6702 54.3247C54.7802 53.3847 53.8001 52.5147 52.7301 51.7447L51.7902 51.0547L51.1002 51.9947L48.3202 55.8147C47.0102 57.6147 46.0002 59.5847 45.3102 61.6647C44.9402 61.7747 44.5602 61.8847 44.1802 61.9747C43.9502 62.0347 43.7101 62.0847 43.4801 62.1347C43.2301 62.1847 42.9802 62.2347 42.7202 62.2747C41.0002 62.5547 39.2101 62.6147 37.4001 62.4147L32.7002 61.9147C32.8402 60.6047 33.1001 59.3347 33.4801 58.1147C33.5401 57.9247 33.6002 57.7347 33.6602 57.5547C33.7202 57.3647 33.7901 57.1847 33.8601 56.9947C34.8701 54.2847 36.4502 51.8847 38.4302 49.8947C42.5602 45.7547 48.4601 43.4447 54.7301 44.1147L59.4302 44.6147H59.4102Z" fill="white"/>
<path d="M106.76 48.8447H112.92V79.4847H106.76V48.8447Z" fill="white"/>
<path d="M136.83 48.8447V54.9447H129.3V79.4847H123.12V54.9447H115.57V48.8447H136.82H136.83Z" fill="white"/>
<path d="M147.58 48.2148L161.57 79.4848H154.9L152.83 74.8248H142.34L140.27 79.4848H133.62L147.59 48.2148H147.58ZM150.39 69.3948L147.6 62.9148L144.77 69.3948H150.4H150.39Z" fill="white"/>
<path d="M170.39 48.8447V73.3647H182.71V79.4847H164.229V48.8447H170.39Z" fill="white"/>
<path d="M185.37 48.8447H191.53V79.4847H185.37V48.8447Z" fill="white"/>
<path d="M215.44 48.8447V54.9447H207.91V79.4847H201.73V54.9447H194.18V48.8447H215.43H215.44Z" fill="white"/>
<path d="M223.92 48.8447L229.51 59.4747L235.1 48.8447H242.08L232.57 66.3547V79.4947H226.45V66.3547L216.96 48.8447H223.92Z" fill="white"/>
<path d="M93.039 66.3253C90.889 58.8753 95.179 51.0953 102.629 48.9453C104.779 56.3953 100.489 64.1753 93.039 66.3253Z" fill="white"/>
<path d="M89.6696 80.2753L75.8496 48.9453H82.3695L89.6495 65.7353L92.9596 72.8553L89.6696 80.2753Z" fill="white"/>
</svg>
