<svg width="264" height="127" viewBox="0 0 264 127" fill="none" xmlns="http://www.w3.org/2000/svg">
<path d="M50.38 49.5399C50.44 49.4999 50.48 49.4299 50.48 49.3599V31.1899C50.48 31.0399 50.32 30.9499 50.19 31.0299L10.09 55.5499C10.03 55.5799 10 55.6399 10 55.7099V80.1599C10 80.2599 10.08 80.3399 10.18 80.3399H25.74V95.9199C25.74 96.0099 25.81 96.0799 25.9 96.0799H50.3C50.4 96.0799 50.48 95.9999 50.48 95.8999V80.5199C50.48 80.4199 50.4 80.3399 50.3 80.3399H25.74V64.5999L50.38 49.5399Z" fill="white"/>
<path d="M82.5798 69.47C82.6198 69.65 82.4898 69.69 82.3598 69.69H77.3798C77.2498 69.69 77.1198 69.6 77.0698 69.47C76.3198 67.53 74.8698 66.38 72.3098 66.38C68.6098 66.38 66.8398 69.38 66.8398 73.3C66.8398 77.22 68.5998 80.22 72.3098 80.22C75.2598 80.22 76.4098 79.07 77.1598 77.13C77.1998 77 77.3398 76.91 77.4698 76.91H82.4498C82.5798 76.91 82.7098 76.95 82.6698 77.13C81.7398 82.16 77.8698 84.89 72.3098 84.89C65.4298 84.89 61.5098 80.17 61.5098 73.3C61.5098 66.43 65.4298 61.71 72.3098 61.71C77.9098 61.71 81.8298 64.75 82.5798 69.47Z" fill="white"/>
<path d="M84.6204 84.4499C84.4904 84.4499 84.4004 84.3599 84.4004 84.2299V53.6399C84.4004 53.5099 84.4904 53.4199 84.6204 53.4199H89.4704C89.6004 53.4199 89.6904 53.5099 89.6904 53.6399V84.2299C89.6904 84.3599 89.6004 84.4499 89.4704 84.4499H84.6204Z" fill="white"/>
<path d="M112.49 75.3297H97.1499C97.0199 75.3297 96.9299 75.4197 96.9299 75.5497C96.9299 77.9697 99.0499 80.0497 102.18 80.0497C104.12 80.0497 105.71 79.5697 106.46 78.0697C106.5 77.9797 106.59 77.8497 106.81 77.8497H111.97C112.1 77.8497 112.23 77.9397 112.19 78.0697C111.22 82.3497 107.21 84.8997 102.18 84.8997C95.7399 84.8997 91.4199 80.1797 91.4199 73.3097C91.4199 66.4397 95.7399 61.7197 102.18 61.7197C108.62 61.7197 112.94 66.4397 112.94 73.3097C112.9 74.1897 112.85 74.5897 112.72 75.1197C112.68 75.2497 112.63 75.3397 112.5 75.3397L112.49 75.3297ZM107.11 70.9197C107.24 70.9197 107.29 70.8797 107.29 70.7397C107.29 68.9797 105.79 66.5497 102.18 66.5497C98.5699 66.5497 96.9299 69.0197 96.9299 70.7397C96.9299 70.8697 96.9699 70.9197 97.1099 70.9197H107.12H107.11Z" fill="white"/>
<path d="M122.69 84.8902C116.7 84.8902 113.96 81.8002 113.96 77.7902C113.96 74.0002 117.18 70.6502 123.61 70.6502H127.75C128.63 70.6502 129.07 70.1202 129.07 69.6802C129.07 68.7502 128.76 66.5502 124.44 66.5502C121.09 66.5502 120.12 67.9602 119.99 69.4602C119.99 69.5902 119.9 69.6802 119.77 69.6802H114.97C114.84 69.6802 114.75 69.5902 114.75 69.4602C114.75 64.2602 119.25 61.7002 124.45 61.7002C130.53 61.7002 134.37 64.5702 134.37 70.0802V78.6302C134.37 79.5102 135.03 80.0402 135.96 80.0402H136.62C136.75 80.0402 136.84 80.1302 136.84 80.2602V84.2302C136.84 84.3602 136.75 84.4502 136.62 84.4502H134.37C132.08 84.4502 130.89 83.5702 130.05 82.3302C129.96 82.2002 129.79 82.2002 129.65 82.3302C128.5 83.4802 126.17 84.8902 122.68 84.8902H122.69ZM129.08 75.2802C129.08 75.1502 128.99 75.0602 128.86 75.0602H123.83C119.91 75.0602 119.25 76.6502 119.25 77.7902C119.25 78.7202 120.04 80.0402 122.69 80.0402C127.23 80.0402 129.08 77.4802 129.08 75.2802Z" fill="white"/>
<path d="M148.62 66.78C145.18 66.78 143.77 69.12 143.77 71.76V84.24C143.77 84.37 143.68 84.46 143.55 84.46H138.66C138.57 84.46 138.48 84.37 138.48 84.24V62.38C138.48 62.25 138.57 62.16 138.66 62.16H142.89C143.15 62.16 143.24 62.25 143.33 62.42L143.77 63.74C143.86 63.92 144.03 63.96 144.17 63.83C145.49 62.51 146.99 61.71 149.06 61.71H151.48C151.61 61.71 151.7 61.8 151.7 61.93V66.56C151.7 66.69 151.61 66.78 151.48 66.78H148.61H148.62Z" fill="white"/>
<path d="M170.3 72.0199C170.3 68.1399 168.54 64.3899 163.42 64.3499C158.48 64.3499 156.54 66.6899 156.54 71.9799V84.2299C156.54 84.3599 156.45 84.4499 156.32 84.4499H153.68C153.55 84.4499 153.46 84.3599 153.46 84.2299V53.6399C153.46 53.5099 153.55 53.4199 153.68 53.4199H156.32C156.45 53.4199 156.54 53.5099 156.54 53.6399V64.3499C156.54 64.5699 156.8 64.6099 156.94 64.4799C157.69 63.7299 159.54 61.6999 163.42 61.6999C170.16 61.7399 173.38 66.3699 173.38 72.0199V84.2299C173.38 84.3599 173.29 84.4499 173.16 84.4499H170.52C170.39 84.4499 170.3 84.3599 170.3 84.2299V72.0199Z" fill="white"/>
<path d="M185.9 84.8902C178.98 84.8902 174.97 80.1702 174.97 73.3002C174.97 66.4302 178.98 61.6602 185.9 61.6602C192.82 61.6602 196.83 66.4202 196.83 73.3002C196.83 80.1802 192.77 84.8902 185.9 84.8902ZM185.9 64.3502C181.01 64.3502 178.05 68.0102 178.05 73.3002C178.05 78.5902 181 82.2502 185.9 82.2502C190.8 82.2502 193.75 78.5902 193.75 73.3002C193.75 68.0102 190.8 64.3502 185.9 64.3502Z" fill="white"/>
<path d="M213.35 72.0199C213.35 68.0099 212.47 64.3499 207.4 64.3499C202.64 64.3499 201.54 68.0499 201.54 72.0199V84.2299C201.54 84.3599 201.45 84.4499 201.32 84.4499H198.68C198.55 84.4499 198.46 84.3599 198.46 84.2299V62.3699C198.46 62.2399 198.55 62.1499 198.68 62.1499H200.84C200.97 62.1499 201.06 62.1899 201.1 62.3699L201.54 64.7899C201.58 65.0499 201.85 65.0999 201.98 64.8799C202.33 64.3999 204.01 61.7099 207.84 61.7099C212.69 61.7099 214.41 63.9999 215.25 65.3699C215.38 65.5899 215.6 65.5499 215.69 65.3699C217.28 62.6799 219.44 61.6699 222.79 61.6699C229.09 61.6699 231.39 65.4599 231.39 72.0299V84.2399C231.39 84.3699 231.3 84.4599 231.17 84.4599H228.52C228.39 84.4599 228.3 84.3699 228.3 84.2399V72.0299C228.3 68.1099 227.15 64.2699 222.35 64.2699C217.55 64.2699 216.44 68.0199 216.44 72.0299V84.2399C216.44 84.3699 216.35 84.4599 216.22 84.4599H213.58C213.45 84.4599 213.36 84.3699 213.36 84.2399V72.0299L213.35 72.0199Z" fill="white"/>
<path d="M236.53 74.4502C236.4 74.4502 236.31 74.5402 236.31 74.6702C236.31 78.5102 239.04 82.2502 243.67 82.2502C247.24 82.2502 249.22 80.4402 250.06 78.8102C250.15 78.6302 250.28 78.5902 250.41 78.5902H253.23C253.36 78.5902 253.54 78.6302 253.49 78.8102C252.17 82.8202 248.42 84.8902 243.66 84.8902C237.27 84.8902 232.95 80.1702 232.95 73.3002C232.95 66.4302 237.05 61.6602 243.66 61.6602C250.27 61.6602 254.24 66.4202 254.24 73.3002C254.24 73.6102 254.2 74.0902 254.15 74.2302C254.11 74.3602 254.02 74.4502 253.89 74.4502H236.52H236.53ZM243.67 64.3102C238.64 64.3102 236.31 68.9402 236.31 71.5802C236.31 71.7102 236.4 71.8002 236.53 71.8002H250.68C250.81 71.8002 250.9 71.7102 250.9 71.5802C250.9 68.4102 248.83 64.3102 243.67 64.3102Z" fill="white"/>
</svg>
