<svg width="234" height="53" viewBox="0 0 234 53" fill="none" xmlns="http://www.w3.org/2000/svg">
<path d="M85.8302 35.6302C85.8302 40.7142 80.9703 44.2631 74.0083 44.2631C69.5141 44.4017 65.1459 42.7667 61.8473 39.7112L61.3032 39.1932L64.0813 36.5131L64.5813 36.9932C67.1288 39.3945 70.5098 40.7115 74.0103 40.6662C78.5743 40.6662 81.5243 38.7532 81.5243 35.7912C81.5243 32.8292 79.3962 31.8632 75.9242 30.5522L70.7963 28.6342C68.5703 27.7942 63.3652 25.8242 63.3652 20.6942C63.3652 16.0382 67.9412 12.6622 74.2472 12.6622C77.9826 12.5941 81.6103 13.9151 84.4272 16.3692L84.9823 16.8842L82.3683 19.4312L81.8683 18.9971C79.755 17.1718 77.0389 16.1965 74.2472 16.2602C70.2532 16.2602 67.6732 17.9222 67.6732 20.4932C67.6732 23.3142 70.6472 24.4092 73.0392 25.2932L78.1692 27.2112C81.8762 28.6132 85.8302 30.5372 85.8302 35.6302Z" fill="white"/>
<path d="M115.119 13.1831V31.6392C115.119 39.7802 110.688 44.2631 102.639 44.2631C94.6212 44.2631 90.2041 39.7802 90.2041 31.6392V13.1831H94.4661V31.5181C94.4661 37.5891 97.2152 40.6661 102.639 40.6661C108.186 40.6661 110.998 37.5891 110.998 31.5181V13.1831H115.119Z" fill="white"/>
<path d="M145.938 13.1831V43.7432H141.926L127.74 23.3801L125.083 19.3651C125.083 19.4001 125.083 19.4372 125.089 19.4722C125.207 21.4332 125.331 23.4601 125.331 25.5651V43.7432H121.213V13.1831H125.221L139.456 33.5021L142.047 37.4941C141.92 35.3941 141.817 33.2691 141.817 31.1581V13.1831H145.938Z" fill="white"/>
<path d="M174.439 17.2721C171.606 14.5571 167.465 13.1831 162.131 13.1831H153.323V43.7432H162.18C172.593 43.7432 178.565 38.1382 178.565 28.3632C178.565 23.6272 177.176 19.8941 174.439 17.2721ZM157.581 16.6161H161.849C169.907 16.6161 174.163 20.6792 174.163 28.3632C174.163 33.7932 172.026 40.2692 161.849 40.2692H157.581V16.6161Z" fill="white"/>
<path d="M204.7 40.2281V43.7421H183.785V13.1821H204.185V16.6561H188.047V25.8441H201.647V29.3212H188.047V40.2281H204.7Z" fill="white"/>
<path d="M224.444 30.2072C229.571 29.1972 232.485 26.1401 232.485 21.6921C232.485 14.6581 225.876 13.1831 220.332 13.1831H209.594V43.7432H213.853V30.6001H219.768L228.896 43.7421H233.845L224.444 30.2072ZM213.853 16.6161H219.673C223.878 16.6161 228.173 17.2161 228.173 21.6921C228.173 25.3241 225.311 27.1641 219.673 27.1641H213.853V16.6161Z" fill="white"/>
<path d="M3.0072 24.9623H0.300293L0.317261 24.7073C0.745411 18.0939 3.67437 11.8914 8.50952 7.35913C13.3447 2.82689 19.7235 0.304688 26.3507 0.304688C32.9779 0.304688 39.3567 2.82689 44.1919 7.35913C49.027 11.8914 51.9561 18.0939 52.3843 24.7073L52.4012 24.9623H49.6913L49.6753 24.7393C49.2571 18.8384 46.6179 13.3153 42.2896 9.28284C37.9612 5.25038 32.2654 3.0083 26.3497 3.0083C20.4341 3.0083 14.7383 5.25038 10.4099 9.28284C6.08157 13.3153 3.44247 18.8384 3.02429 24.7393L3.0072 24.9623Z" fill="white"/>
<path d="M3.23828 38.6533H49.4003L49.2002 39.0094C48.7572 39.8165 48.2709 40.5989 47.7433 41.3534L47.6713 41.4534H4.9563L4.88623 41.3534C4.35832 40.5987 3.8713 39.8163 3.42725 39.0094L3.23828 38.6533Z" fill="white"/>
<path d="M14.7583 49.8901H37.8833L36.8392 50.3491C33.5247 51.8091 29.9426 52.5631 26.3208 52.5631C22.699 52.5631 19.1168 51.8091 15.8022 50.3491L14.7583 49.8901Z" fill="white"/>
<path d="M1.06494 33.0352H51.576L51.494 33.3351C51.276 34.1351 51.0211 34.9241 50.7371 35.6791L50.677 35.8351H1.96106L1.90405 35.6791C1.61805 34.9241 1.363 34.1351 1.146 33.3351L1.06494 33.0352Z" fill="white"/>
<path d="M7.24121 44.2725H45.4003L45.0002 44.6805C44.1811 45.5183 43.3072 46.3006 42.3843 47.0225L42.3192 47.0754H10.3142L10.2493 47.0225C9.32632 46.3006 8.45243 45.5183 7.6333 44.6805L7.24121 44.2725Z" fill="white"/>
<path d="M0.245117 27.417H52.4001L52.3881 27.667C52.3541 28.419 52.2821 29.208 52.1721 30.011L52.1451 30.22H0.500122L0.471069 30.011C0.363069 29.211 0.29108 28.422 0.25708 27.667L0.245117 27.417Z" fill="white"/>
</svg>
