<svg width="264" height="127" viewBox="0 0 264 127" fill="none" xmlns="http://www.w3.org/2000/svg">
<path d="M96.0806 68.2958C96.1106 70.3058 95.3406 72.2258 93.9006 73.6958C92.4306 75.1858 90.4006 76.0458 88.3206 76.0458H76.1406C73.3506 76.0458 70.7907 74.5258 69.4607 72.0858L69.3606 71.8958L69.5505 71.7958L73.8706 69.4258L74.0605 69.3258L74.1606 69.5158C74.5606 70.2358 75.3206 70.6958 76.1406 70.6958H88.3906C89.5806 70.6958 90.5907 69.8058 90.7007 68.6658C90.7607 68.0258 90.5606 67.4158 90.1306 66.9358C89.7006 66.4658 89.1007 66.1958 88.4707 66.1958H76.2905C74.2105 66.1958 72.1807 65.3358 70.7207 63.8458C69.2807 62.3758 68.5005 60.4658 68.5405 58.4458C68.6105 54.3258 72.0306 50.9658 76.1506 50.9658H88.4707C91.2507 50.9658 93.8106 52.4858 95.1506 54.9258L95.2505 55.1158L95.0605 55.2158L90.7307 57.5858L90.5405 57.6858L90.4407 57.4958C90.0507 56.7758 89.2907 56.3258 88.4607 56.3258H76.2107C75.0207 56.3258 74.0006 57.2158 73.9006 58.3558C73.8406 58.9958 74.0407 59.6158 74.4807 60.0858C74.9107 60.5558 75.5106 60.8258 76.1406 60.8258H88.4607C92.5807 60.8258 96.0006 64.1758 96.0706 68.3058L96.0806 68.2958Z" fill="white"/>
<path d="M127.441 59.8066V67.2066C127.441 72.0766 123.471 76.0466 118.601 76.0466H108.471V72.9666L108.531 72.9066L110.681 70.7566L110.741 70.6966H118.591C120.511 70.6966 122.071 69.1366 122.071 67.2166V59.8166C122.071 57.8966 120.511 56.3366 118.591 56.3366H105.25V85.9165H99.8906V50.9766H118.591C123.461 50.9766 127.431 54.9466 127.431 59.8166L127.441 59.8066Z" fill="white"/>
<path d="M149.95 50.9658H140.09C135.21 50.9658 131.25 54.9358 131.25 59.8058V67.2058C131.25 72.0758 135.22 76.0458 140.09 76.0458H149.95C154.83 76.0458 158.79 72.0758 158.79 67.2058V59.8058C158.79 54.9358 154.83 50.9658 149.95 50.9658ZM136.61 59.8058C136.61 57.8858 138.17 56.3258 140.09 56.3258H149.95C151.87 56.3258 153.43 57.8858 153.43 59.8058V67.2058C153.43 69.1258 151.87 70.6858 149.95 70.6858H140.09C138.17 70.6858 136.61 69.1258 136.61 67.2058V59.8058Z" fill="white"/>
<path d="M182.75 50.9658V54.0458L182.681 54.1058L180.471 56.2658L180.401 56.3258H167.961V76.0458H162.601V50.9658H182.75Z" fill="white"/>
<path d="M201.121 50.9661V56.3261H191.911V66.3461C191.911 68.7361 193.86 70.6861 196.25 70.6861H198.841L201.121 72.9661V76.0461H196.26C190.91 76.0461 186.561 71.6961 186.561 66.3461V46.0361H191.921V50.9661H201.131H201.121Z" fill="white"/>
<path d="M210.3 46.0361H204.94V51.3961H210.3V46.0361Z" fill="white"/>
<path d="M210.3 55.8965H204.94V76.0465H210.3V55.8965Z" fill="white"/>
<path d="M232.81 50.9658H222.95C218.07 50.9658 214.11 54.9358 214.11 59.8058V67.2058C214.11 72.0758 218.07 76.0458 222.95 76.0458H232.81C237.69 76.0458 241.65 72.0758 241.65 67.2058V59.8058C241.65 54.9358 237.68 50.9658 232.81 50.9658ZM219.47 59.8058C219.47 57.8858 221.03 56.3258 222.95 56.3258H232.81C234.73 56.3258 236.29 57.8858 236.29 59.8058V67.2058C236.29 69.1258 234.73 70.6858 232.81 70.6858H222.95C221.03 70.6858 219.47 69.1258 219.47 67.2058V59.8058Z" fill="white"/>
<path d="M43.1501 54.7759C45.3001 52.6659 48.06 51.2559 51.04 50.8559C51.17 50.8359 51.3002 50.8259 51.4302 50.8059C51.9702 50.7359 52.5201 50.7059 53.0601 50.7159C53.3401 50.7159 53.6201 50.7359 53.9001 50.7559C54.0201 50.7559 54.14 50.7759 54.25 50.7859C59.95 51.3159 64.3101 56.1659 64.3101 61.8859C64.3101 64.9159 63.3401 67.9459 61.4001 70.4659C61.3301 70.5559 61.2502 70.6459 61.1602 70.7259L48 83.8859L47.5901 84.2459C45.4901 85.8359 43.05 86.7559 40.54 87.0059C40.51 87.0059 40.4802 87.0059 40.4502 87.0159C39.6902 87.1059 38.9101 87.1159 38.1401 87.0459C35.3001 86.8559 32.5102 85.8059 30.1802 83.9059C29.8202 83.6059 29.4701 83.2959 29.1301 82.9559L22.3501 76.1159C22.7701 76.5359 25.8002 77.2759 28.4402 77.1459C31.3202 77.0059 33.7002 75.8659 33.9702 75.7159L35.1702 76.9159C35.6202 77.3659 36.1202 77.7159 36.6602 77.9759C38.1002 78.6759 39.79 78.7159 41.26 78.0959C41.9 77.8259 42.5 77.4259 43.02 76.9059L54.1301 65.7959C56.4501 63.4859 56.5701 61.5359 55.4001 59.9159C55.3701 59.8759 55.3401 59.8359 55.3101 59.7959C55.2901 59.7659 55.27 59.7459 55.25 59.7159C54.62 58.9559 53.7302 58.5059 52.7402 58.4559C51.7602 58.4059 50.8101 58.7759 50.1201 59.4659L37.1602 72.3159C35.0102 74.4259 32.25 75.8359 29.27 76.2359C29.14 76.2559 29.0101 76.2659 28.8801 76.2859C28.3401 76.3559 27.79 76.3859 27.25 76.3759C26.97 76.3759 26.6902 76.3559 26.4102 76.3359C26.2902 76.3359 26.1701 76.3159 26.0601 76.3059C20.3601 75.7759 16 70.9259 16 65.2059C16 62.1759 16.9702 59.1459 18.9102 56.6259C18.9802 56.5359 19.0601 56.4459 19.1501 56.3659L32.3101 43.2059L32.7202 42.8459C34.8202 41.2559 37.26 40.3359 39.77 40.0859C39.8 40.0859 39.8301 40.0859 39.8601 40.0759C40.6201 39.9859 41.4002 39.9759 42.1702 40.0459C45.0102 40.2359 47.8001 41.2859 50.1301 43.1859C50.4901 43.4859 50.8402 43.7959 51.1802 44.1359L57.9602 50.9759C57.5402 50.5559 54.5101 49.8159 51.8701 49.9459C48.9901 50.0859 46.6101 51.2259 46.3401 51.3759L45.1401 50.1759C44.6901 49.7259 44.1901 49.3759 43.6501 49.1159C42.2101 48.4159 40.52 48.3759 39.05 48.9959C38.41 49.2659 37.81 49.6659 37.29 50.1859L26.1802 61.2959C23.8602 63.6059 23.7402 65.5559 24.9102 67.1759C24.9402 67.2159 24.97 67.2559 25 67.2959C25.02 67.3259 25.0401 67.3459 25.0601 67.3759C25.6901 68.1359 26.5801 68.5859 27.5701 68.6359C28.5501 68.6859 29.5002 68.3159 30.1902 67.6259L43.1501 54.7759Z" fill="white"/>
</svg>
