<svg width="221" height="42" viewBox="0 0 221 42" fill="none" xmlns="http://www.w3.org/2000/svg">
<path d="M28.576 30.925C27.3918 31.4515 26.1593 31.8624 24.896 32.1519C24.7033 32.1972 24.5096 32.2386 24.3149 32.2759C24.1219 32.3139 23.929 32.3499 23.735 32.3819C23.435 32.4309 23.145 32.474 22.849 32.509C18.5948 33.0208 14.2885 32.1549 10.5627 30.0386C6.83696 27.9223 3.88807 24.667 2.14905 20.7509L0.229004 16.4279C3.45196 14.9905 6.99883 14.4349 10.507 14.8179C10.1338 16.0716 9.87706 17.357 9.73999 18.6579L9.61694 19.8179L10.778 19.941L15.478 20.441C17.6725 20.677 19.8904 20.5676 22.051 20.1169C22.3364 20.3835 22.614 20.6592 22.884 20.9439C23.0494 21.1179 23.2113 21.2952 23.37 21.4759C23.539 21.6679 23.706 21.8639 23.87 22.0639C24.9958 23.4465 25.9324 24.973 26.655 26.6029L28.576 30.925Z" fill="white"/>
<path d="M38.3492 23.3329C38.9638 28.3589 37.6443 33.4306 34.6582 37.5199L31.8743 41.3429C29.0188 39.2703 26.7647 36.4769 25.3423 33.2479C26.6141 32.9436 27.8553 32.5231 29.0503 31.9918L30.1172 31.5178L29.6432 30.4519L27.7233 26.1289C26.8307 24.1101 25.627 22.2438 24.1562 20.5979C24.2453 20.2179 24.3443 19.8399 24.4563 19.4629C24.5233 19.2339 24.5962 19.0049 24.6732 18.7759C24.7502 18.5469 24.8412 18.2909 24.9332 18.0499C25.567 16.3835 26.4205 14.8092 27.4712 13.3689L30.2543 9.5459C31.3016 10.3085 32.2728 11.1705 33.1543 12.1199C33.2876 12.2652 33.4209 12.4122 33.5542 12.5609C33.6875 12.7096 33.8146 12.8592 33.9353 13.0099C36.3618 15.959 37.8934 19.5411 38.3492 23.3329Z" fill="white"/>
<path d="M37.6293 1.48005C37.2628 4.98983 35.9707 8.33938 33.8853 11.1861C32.9859 10.2363 32.0011 9.37137 30.9432 8.60212L29.9993 7.91511L29.3123 8.85908L26.5293 12.6821C25.2269 14.4645 24.2122 16.4401 23.5222 18.5371C23.1496 18.6504 22.7723 18.7527 22.3903 18.8441C22.1563 18.9001 21.9222 18.9521 21.6902 18.9991C21.4382 19.0511 21.1853 19.0973 20.9313 19.138C19.1712 19.4223 17.381 19.4701 15.6083 19.2801L10.9082 18.7801C11.044 17.4913 11.3043 16.2187 11.6853 14.9801C11.7443 14.791 11.8053 14.6021 11.8693 14.4161C11.9333 14.2301 11.9982 14.0441 12.0692 13.8601C13.6298 9.70559 16.5255 6.18684 20.302 3.8559C24.0785 1.52497 28.5221 0.513745 32.9353 0.981027L37.6293 1.48005Z" fill="white"/>
<path d="M84.9814 5.7002H91.1405V36.3452H84.9814V5.7002Z" fill="white"/>
<path d="M115.056 5.7002V11.8003H107.528V36.3423H101.35V11.8003H93.8008V5.7002H115.056Z" fill="white"/>
<path d="M125.801 5.07812L139.793 36.3501H133.12L131.048 31.6931H120.554L118.482 36.3501H111.829L125.801 5.07812ZM128.615 26.2561L125.815 19.7731L122.983 26.2561H128.615Z" fill="white"/>
<path d="M148.609 5.7002V30.2242H160.927V36.3452H142.449V5.7002H148.609Z" fill="white"/>
<path d="M163.589 5.7002H169.748V36.3452H163.589V5.7002Z" fill="white"/>
<path d="M193.664 5.7002V11.8003H186.136V36.3423H179.958V11.8003H172.411V5.7002H193.664Z" fill="white"/>
<path d="M202.143 5.7002L207.732 16.3273L213.321 5.7002H220.298L210.793 23.2092V36.3452H204.672V23.2092L195.185 5.7002H202.143Z" fill="white"/>
<path d="M71.2662 23.1873C70.2335 19.6099 70.664 15.7688 72.4632 12.5089C74.2624 9.249 77.2829 6.83721 80.8602 5.8042C81.3718 7.57553 81.5296 9.43029 81.3243 11.2626C81.1191 13.0949 80.5548 14.8688 79.6639 16.483C78.773 18.0972 77.5728 19.5201 76.1319 20.6704C74.6911 21.8207 73.0377 22.676 71.2662 23.1873Z" fill="white"/>
<path d="M67.8922 37.1333L54.0713 5.8042H60.5923L67.8733 22.5912L71.1732 29.7142L67.8922 37.1333Z" fill="white"/>
</svg>
