<svg width="264" height="127" viewBox="0 0 264 127" fill="none" xmlns="http://www.w3.org/2000/svg">
<path d="M71.7399 79.7398L97.4799 47.4698C97.8399 47.0198 98.2999 46.7998 98.8599 46.7998H102.83C103.16 46.7998 103.33 46.9698 103.33 47.2998V75.5798C103.33 75.9098 103.16 76.0798 102.83 76.0798H98.8599C98.2999 76.0798 97.8399 75.8598 97.4799 75.4098L90.2399 65.9598L78.7199 79.6598C78.3599 80.1098 77.8999 80.3298 77.3399 80.3298H72.0299C71.8899 80.3298 71.78 80.2698 71.7 80.1398C71.62 80.0098 71.6299 79.8798 71.7399 79.7398ZM93.7199 61.4398L98.0299 67.0498V55.8398L93.7199 61.4498V61.4398Z" fill="white"/>
<path d="M124.57 46.8003H143.93C144.21 46.8003 144.44 47.0303 144.44 47.3103V51.6003C144.44 51.8803 144.21 52.1103 143.93 52.1103H129.93V58.8003H140.39C140.67 58.8003 140.89 59.0203 140.89 59.3003V63.5703C140.89 63.9303 140.72 64.1103 140.39 64.1103H129.93V75.5703C129.93 75.9003 129.75 76.0703 129.39 76.0703H125.08C124.94 76.0703 124.82 76.0203 124.72 75.9203C124.62 75.8203 124.57 75.7003 124.57 75.5603V46.7803V46.8003Z" fill="white"/>
<path d="M145.94 46.8003H150.25C150.61 46.8003 150.79 46.9703 150.79 47.3003V75.5803C150.79 75.9103 150.61 76.0803 150.25 76.0803H145.94C145.8 76.0803 145.68 76.0303 145.58 75.9303C145.48 75.8303 145.43 75.7103 145.43 75.5703V47.2903C145.43 47.1503 145.48 47.0303 145.58 46.9303C145.68 46.8303 145.8 46.7803 145.94 46.7803V46.8003Z" fill="white"/>
<path d="M154.18 75.58V47.3C154.18 47.16 154.23 47.04 154.33 46.94C154.43 46.84 154.55 46.79 154.69 46.79H158.66C159.22 46.79 159.68 47.01 160.04 47.46L175.1 67.04V47.3C175.1 46.96 175.27 46.8 175.6 46.8H179.91C180.25 46.8 180.41 46.97 180.41 47.3V75.58C180.41 75.91 180.24 76.08 179.91 76.08H175.94C175.38 76.08 174.92 75.86 174.56 75.41L159.54 55.83V75.57C159.54 75.9 159.36 76.07 159 76.07H154.69C154.55 76.07 154.43 76.02 154.33 75.92C154.23 75.82 154.18 75.7 154.18 75.56V75.58Z" fill="white"/>
<path d="M184.3 46.8003H188.61C188.97 46.8003 189.15 46.9703 189.15 47.3003V75.5803C189.15 75.9103 188.97 76.0803 188.61 76.0803H184.3C184.16 76.0803 184.04 76.0303 183.94 75.9303C183.84 75.8303 183.79 75.7103 183.79 75.5703V47.2903C183.79 47.1503 183.84 47.0303 183.94 46.9303C184.04 46.8303 184.16 46.7803 184.3 46.7803V46.8003Z" fill="white"/>
<path d="M191.07 47.22C191.07 47.08 191.12 46.96 191.22 46.86C191.32 46.76 191.44 46.71 191.58 46.71H209.73C210.29 46.71 210.75 46.93 211.11 47.38L214.21 51.44C214.32 51.58 214.34 51.71 214.27 51.84C214.2 51.97 214.08 52.03 213.91 52.03H204.58V75.5C204.58 75.83 204.41 76 204.08 76H199.77C199.44 76 199.27 75.83 199.27 75.5V52.03H191.57C191.43 52.03 191.31 51.98 191.21 51.88C191.11 51.78 191.06 51.66 191.06 51.52V47.21L191.07 47.22Z" fill="white"/>
<path d="M211.02 42.7803H216.33C216.89 42.7803 217.35 43.0003 217.71 43.4503L227.8 58.5603L236.37 47.3903C236.73 46.9403 237.19 46.7203 237.75 46.7203H243.06C243.23 46.7203 243.35 46.7903 243.42 46.9303C243.49 47.0703 243.47 47.2003 243.36 47.3103L230.48 64.1203V75.5003C230.48 75.6403 230.43 75.7603 230.33 75.8603C230.23 75.9603 230.11 76.0103 229.97 76.0103H225.66C225.3 76.0103 225.12 75.8403 225.12 75.5103V64.1303L210.72 43.3703C210.61 43.2603 210.59 43.1303 210.68 42.9903C210.76 42.8503 210.87 42.7803 211.01 42.7803H211.02Z" fill="white"/>
<path d="M106.02 46.8005H142.649V52.1105H110.88V58.8005H121.339C121.669 58.8005 121.839 58.9705 121.839 59.3005V63.5705C121.839 63.9305 121.669 64.1105 121.339 64.1105H110.88V75.5705C110.88 75.9005 110.699 76.0705 110.339 76.0705H106.029C105.889 76.0705 105.769 76.0205 105.669 75.9205C105.569 75.8205 105.52 75.7005 105.52 75.5605V47.2805C105.52 47.1405 105.569 47.0205 105.669 46.9205C105.769 46.8205 105.889 46.7705 106.029 46.7705L106.02 46.8005Z" fill="white"/>
<path d="M30.54 53.8403L65.37 79.4703C66 79.9803 66.31 80.6303 66.31 81.4203V87.0303C66.31 87.5003 66.07 87.7403 65.6 87.7403H25.71C25.24 87.7403 25 87.5003 25 87.0303V81.4203C25 80.6303 25.31 79.9803 25.94 79.4703L39.28 69.2603L30.65 63.7003C30.02 63.1903 29.71 62.5403 29.71 61.7503V54.2503C29.71 54.0503 29.8 53.9003 29.98 53.7803C30.16 53.6603 30.34 53.6803 30.54 53.8403ZM45.66 74.1603L37.75 80.2403H53.57L45.66 74.1603Z" fill="white"/>
<path d="M60.7797 73.9L25.9498 48.27C25.3198 47.76 25.0098 47.11 25.0098 46.32V40.71C25.0098 40.24 25.2497 40 25.7197 40H65.6097C66.0797 40 66.3198 40.24 66.3198 40.71V46.32C66.3198 47.11 66.0098 47.76 65.3798 48.27L52.0397 58.48L60.6697 64.04C61.2997 64.55 61.6097 65.2 61.6097 65.99V73.49C61.6097 73.69 61.5197 73.84 61.3397 73.96C61.1597 74.08 60.9797 74.06 60.7797 73.9ZM45.6597 53.58L53.5698 47.5H37.7498L45.6597 53.58Z" fill="white"/>
</svg>
