<svg width="264" height="127" viewBox="0 0 264 127" fill="none" xmlns="http://www.w3.org/2000/svg">
<path d="M228.14 63.9204C228.14 57.2904 223.61 52.8604 218.01 52.8604C210.94 52.8604 205.22 58.5904 205.22 65.6504V66.7104C205.22 73.1104 210.41 78.2904 216.8 78.2904H217.22C220.05 78.2904 222.9 77.2104 225.04 75.4404L224.7 73.1904C223.63 73.9004 222.34 74.3404 220.81 74.3404C212.16 74.3404 212.64 63.9404 212.64 63.9404L228.13 63.9204H228.14ZM217.29 54.5604C217.29 54.5604 221.05 53.9304 221.23 61.4604L212.81 61.8904C212.89 60.1304 213.43 54.5604 217.3 54.5604H217.29Z" fill="white"/>
<path d="M243.05 78.8705L228.68 69.2305L231 78.8705L228.68 88.5205L243.05 78.8705Z" fill="white"/>
<path d="M85.5699 56.5397V52.9297L75.6099 55.0497L78.1899 57.6297V74.4697L74.9199 77.7397H88.8399L85.5599 74.4697V58.9497C85.5599 58.9497 86.0599 57.1697 89.0699 57.1697C92.0799 57.1697 94.1599 60.8197 94.1599 60.8197L95.6899 53.1397C95.6899 53.1397 89.8799 51.3997 85.5599 56.5297L85.5699 56.5397Z" fill="white"/>
<path d="M137.98 74.3499C129.33 74.3499 129.81 63.9499 129.81 63.9499C129.81 63.9499 129.51 54.5699 135.53 54.5699C136.1 54.5499 136.7 54.6299 137.32 54.8199L142.64 60.1599L143.55 54.5599C143.55 54.5599 140.63 52.8799 135.18 52.8799C128.11 52.8799 122.39 58.6099 122.39 65.6699V66.7299C122.39 73.1299 127.58 78.3099 133.97 78.3099H134.39C138.79 78.3099 143.26 75.7099 144.99 71.9599L143.83 71.3799C142.47 73.1099 140.59 74.3499 137.99 74.3499H137.98Z" fill="white"/>
<path d="M162.79 72.63C162.43 73.23 161.45 74.24 160.04 74.24C158.13 74.24 156.96 73.17 156.96 70.52V56.25H162.39L162.67 55.04L162.85 54.28H156.96V47L149.62 48.57V54.28H146.97L146.51 56.25H149.63V70.67C149.63 76.08 152.23 78.29 156.71 78.29C160.03 78.29 163.05 75.57 164.06 73.2L164.13 73.05L162.9 72.48L162.8 72.65L162.79 72.63Z" fill="white"/>
<path d="M37.88 44H24L27.84 47.86V73.89L24 77.75H37.88C47.67 77.75 56.44 73.3 56.44 61.5V60.26C56.44 48.78 47.72 44.01 37.88 44.01V44ZM45.76 71.53C42.47 76.08 35.64 75.78 35.64 75.78V45.96C35.64 45.96 42.47 45.66 45.76 50.21C48.59 54.13 48.45 57.84 48.45 60.53C48.45 63.22 48.59 67.6 45.76 71.52V71.53Z" fill="white"/>
<path d="M119.28 63.9204C119.28 57.2904 114.75 52.8604 109.15 52.8604C102.08 52.8604 96.3604 58.5904 96.3604 65.6504V66.7104C96.3604 73.1104 101.55 78.2904 107.94 78.2904H108.36C112.76 78.2904 117.23 75.6904 118.96 71.9404L117.8 71.3604C116.44 73.0904 114.56 74.3304 111.97 74.3304C103.32 74.3304 103.79 63.9304 103.79 63.9304L119.28 63.9104V63.9204ZM108.43 54.5604C108.43 54.5604 112.19 53.9304 112.37 61.4604L103.95 61.8904C104.03 60.1304 104.57 54.5604 108.44 54.5604H108.43Z" fill="white"/>
<path d="M190.7 56.7603L193.88 53.5703H179.37L182.56 56.7603L191.38 77.7503H193.59L196.25 71.3003L190.72 56.7903L190.7 56.7603Z" fill="white"/>
<path d="M196.62 53.5703L201.24 58.2003L205.87 53.5703H196.62Z" fill="white"/>
<path d="M69.7404 52.9404L59.7803 55.0604L62.3704 57.6504V74.4804L59.1104 77.7504H62.3704H69.7404H73.0103L69.7404 74.4804V52.9404Z" fill="white"/>
<path d="M176.66 52.9404L166.7 55.0604L169.29 57.6504V74.4804L166.03 77.7504H169.29H176.66H179.93L176.66 74.4804V52.9404Z" fill="white"/>
</svg>
