<svg width="202" height="39" viewBox="0 0 202 39" fill="none" xmlns="http://www.w3.org/2000/svg">
<path d="M0 38.3914L13.1456 0.608581H22.1481L35.2937 38.3914H27.7235L25.0125 30.277H10.2812L7.51909 38.3914H0ZM12.2761 24.1912L25.0125 30.277L16.675 5.37581H18.6187L12.2761 24.1912Z" fill="#FAFAFA"/>
<path d="M39.4836 38.3914L51.9643 19.3732L39.5859 0.608581H47.5654L57.6931 15.9753H54.0103L64.0869 0.608581H72.0664L59.7392 19.3732L72.1687 38.3914H64.1892L54.0103 22.8218H57.6931L47.4631 38.3914H39.4836Z" fill="#FAFAFA"/>
<path d="M89.2085 38.3914V21.6554L76.3698 0.608581H84.2981L94.1189 17.0403H91.3057L101.075 0.608581H109.004L96.2161 21.6047V38.3914H89.2085Z" fill="#FAFAFA"/>
<path d="M128.384 39C125.963 39 123.712 38.5605 121.632 37.6814C119.586 36.8023 117.813 35.5852 116.312 34.0299C114.846 32.4408 113.772 30.5982 113.09 28.5019L118.87 26.0169C119.79 28.1808 121.12 29.8882 122.859 31.1391C124.599 32.3563 126.559 32.9649 128.742 32.9649C129.969 32.9649 131.026 32.7789 131.913 32.407C132.834 32.0013 133.533 31.4603 134.01 30.7841C134.522 30.1079 134.777 29.2965 134.777 28.3498C134.777 27.2341 134.436 26.3212 133.754 25.6112C133.107 24.8674 132.118 24.2926 130.788 23.8869L123.473 21.554C120.507 20.6411 118.273 19.2718 116.773 17.446C115.272 15.6203 114.522 13.4733 114.522 11.0052C114.522 8.84135 115.05 6.93108 116.108 5.27438C117.199 3.61768 118.699 2.3329 120.609 1.42003C122.553 0.473342 124.769 0 127.258 0C129.543 0 131.64 0.405721 133.55 1.21716C135.459 1.9948 137.096 3.09363 138.46 4.51365C139.858 5.89987 140.898 7.53966 141.58 9.43303L135.852 11.9688C135.101 10.0754 133.976 8.62159 132.476 7.60728C130.975 6.55917 129.236 6.03511 127.258 6.03511C126.099 6.03511 125.076 6.23797 124.189 6.64369C123.303 7.0156 122.604 7.55657 122.092 8.26658C121.615 8.94278 121.376 9.75423 121.376 10.7009C121.376 11.749 121.717 12.6788 122.399 13.4902C123.081 14.2679 124.121 14.8765 125.519 15.316L132.527 17.4967C135.562 18.4772 137.829 19.8296 139.33 21.554C140.864 23.2783 141.632 25.4083 141.632 27.9441C141.632 30.1079 141.069 32.0182 139.944 33.6749C138.818 35.3316 137.267 36.6333 135.289 37.58C133.311 38.5267 131.009 39 128.384 39Z" fill="#FAFAFA"/>
<path d="M176.169 0.797473C176.783 -0.265826 178.322 -0.265823 178.936 0.797476L188.733 17.7659C189.017 18.2574 189.017 18.8623 188.733 19.3538L178.936 36.3222C178.322 37.3855 176.783 37.3855 176.169 36.3222L166.372 19.3538C166.089 18.8623 166.089 18.2574 166.372 17.7659L176.169 0.797473Z" fill="#FAFAFA"/>
<path d="M189.106 20.947C189.72 19.8861 191.256 19.8861 191.87 20.947L200.942 36.6128C201.556 37.6738 200.788 39 199.559 39H181.417C180.188 39 179.42 37.6738 180.034 36.6128L189.106 20.947Z" fill="#FAFAFA"/>
<path d="M163.235 20.947C163.849 19.8861 165.385 19.8861 166 20.947L175.071 36.6128C175.685 37.6738 174.917 39 173.689 39H155.546C154.317 39 153.549 37.6738 154.164 36.6128L163.235 20.947Z" fill="#FAFAFA"/>
</svg>
