<svg width="264" height="127" viewBox="0 0 264 127" fill="none" xmlns="http://www.w3.org/2000/svg">
<path d="M106.56 79.1525V43.5225H112.4V58.9425C113.93 56.3125 117.09 54.7325 120.68 54.7325C127.43 54.7325 131.55 60.0025 131.55 67.4725C131.55 74.9425 127.1 79.7825 120.29 79.7825C116.75 79.7825 113.73 78.2025 112.34 75.4725L111.96 79.1625H106.55L106.56 79.1525ZM119.11 74.4125C123.23 74.4125 125.67 71.4425 125.67 67.2325C125.67 63.0225 123.23 60.0025 119.11 60.0025C114.99 60.0025 112.45 62.9725 112.45 67.2325C112.45 71.4925 115.08 74.4125 119.11 74.4125Z" fill="white"/>
<path d="M151.05 60.8125H148.9C144.69 60.8125 142.05 63.0625 142.05 67.6625V79.1525H136.21V55.5425H141.72L142.05 58.9925C143.06 56.6425 145.31 55.0625 148.47 55.0625C149.28 55.0625 150.1 55.1625 151.06 55.3925V60.8025L151.05 60.8125Z" fill="white"/>
<path d="M154.35 47.2129C154.35 45.2529 155.929 43.7129 157.939 43.7129C159.949 43.7129 161.439 45.2429 161.439 47.2129C161.439 49.1829 159.859 50.7529 157.939 50.7529C155.929 50.7529 154.35 49.1729 154.35 47.2129ZM155.02 55.4929H160.86V79.1529H155.02V55.4929Z" fill="white"/>
<path d="M166.229 47.2129C166.229 45.2529 167.81 43.7129 169.82 43.7129C171.83 43.7129 173.32 45.2429 173.32 47.2129C173.32 49.1829 171.74 50.7529 169.82 50.7529C167.81 50.7529 166.229 49.1729 166.229 47.2129ZM166.899 55.4929H172.74V79.1529H166.899V55.4929Z" fill="white"/>
<path d="M177.529 79.1529V74.3629L189.309 60.3829H177.529V55.5029H196.639V60.3429L184.669 74.2829H196.639V79.1629H177.529V79.1529Z" fill="white"/>
<path d="M199.36 85.2329H202.86C205.16 85.2329 206.59 84.7029 207.6 81.9329L208.27 80.1629L198.74 55.5029H204.92L211 72.7429L217.42 55.5029H223.45L211.86 84.4229C210.09 88.8329 207.6 90.6529 203.72 90.6529C202.09 90.6529 200.66 90.4629 199.36 90.1229V85.2429V85.2329Z" fill="white"/>
<path d="M67.22 64.3227C67.22 73.4927 59.78 80.9327 50.61 80.9327C41.44 80.9327 34 73.4927 34 64.3227C34 64.1827 34 64.0427 34 63.9027C34 63.7427 34.01 63.5927 34.02 63.4327C34.02 63.3227 34.03 63.2127 34.04 63.1027C34.06 62.7827 34.1 62.4627 34.14 62.1527C34.15 62.0327 34.1701 61.9127 34.1901 61.7927C34.2101 61.6627 34.23 61.5327 34.25 61.4027C34.29 61.1627 34.34 60.9327 34.39 60.6927C34.41 60.5827 34.44 60.4827 34.46 60.3727C34.48 60.2727 34.51 60.1727 34.53 60.0727C34.53 60.0527 34.54 60.0327 34.55 60.0127C34.57 59.9227 34.6 59.8327 34.62 59.7427C34.71 59.4327 34.8 59.1227 34.91 58.8227C34.94 58.7227 34.98 58.6227 35.02 58.5227C35.13 58.2227 35.25 57.9227 35.38 57.6327C35.42 57.5327 35.47 57.4427 35.51 57.3427C35.55 57.2527 35.6 57.1527 35.65 57.0527C35.74 56.8527 35.8401 56.6627 35.9401 56.4727C35.9901 56.3827 36.0301 56.3027 36.0801 56.2127C36.1401 56.1027 36.21 55.9927 36.28 55.8827C36.32 55.8127 36.36 55.7327 36.41 55.6627C36.57 55.3927 36.7401 55.1327 36.9301 54.8727C36.9901 54.7827 37.05 54.7027 37.11 54.6127C37.17 54.5227 37.23 54.4427 37.3 54.3627C37.49 54.1027 37.69 53.8527 37.9 53.6127C37.97 53.5327 38.03 53.4627 38.1 53.3827C38.38 53.0627 38.66 52.7627 38.96 52.4627C39.11 52.3227 39.26 52.1727 39.42 52.0327C39.42 52.0327 39.4201 52.0327 39.4301 52.0227C39.5801 51.8927 39.74 51.7527 39.89 51.6227C39.97 51.5527 40.05 51.4927 40.13 51.4227C40.29 51.2927 40.46 51.1627 40.63 51.0327C40.71 50.9727 40.8 50.9027 40.89 50.8427C40.97 50.7827 41.06 50.7227 41.15 50.6627C41.25 50.5927 41.35 50.5227 41.46 50.4527C41.53 50.4027 41.6001 50.3627 41.6801 50.3127C41.9501 50.1427 42.22 49.9827 42.49 49.8227C42.58 49.7727 42.67 49.7227 42.77 49.6727C43.05 49.5227 43.33 49.3827 43.62 49.2427C43.71 49.2027 43.8 49.1627 43.89 49.1227C43.91 49.1227 43.93 49.1027 43.96 49.0927C44.04 49.0627 44.13 49.0227 44.21 48.9827C44.5 48.8627 44.8 48.7427 45.11 48.6327C45.2 48.6027 45.3 48.5627 45.4 48.5327C46.06 48.3127 46.7401 48.1327 47.4401 48.0027C47.6001 47.9727 47.75 47.9427 47.91 47.9227C47.98 47.9127 48.04 47.9027 48.11 47.8927C48.23 47.8727 48.35 47.8627 48.47 47.8427C48.48 47.8427 48.5 47.8427 48.51 47.8427C48.64 47.8227 48.77 47.8127 48.9 47.8027C49 47.7927 49.1001 47.7827 49.2001 47.7727C49.4001 47.7527 49.59 47.7427 49.79 47.7327C49.9 47.7327 50 47.7327 50.11 47.7227C50.18 47.7227 50.2501 47.7227 50.3301 47.7227C50.4201 47.7227 50.51 47.7227 50.61 47.7227C59.78 47.7227 67.22 55.1627 67.22 64.3327V64.3227Z" fill="white"/>
<path d="M97.01 67.2722C97.01 73.7822 92.48 79.2222 86.4 80.6322C86.38 80.6322 86.36 80.6422 86.34 80.6422C85.49 80.8222 84.61 80.9122 83.72 80.9222H63.6C68.53 77.0622 71.71 71.0522 71.71 64.3122C71.71 53.4322 63.4201 44.4422 52.8301 43.3422C55.0701 40.5222 58.23 38.4722 61.86 37.6322C61.86 37.6322 61.87 37.6322 61.88 37.6322C62.52 37.4522 63.18 37.3122 63.84 37.2122C68.85 36.4322 73.96 37.8222 77.86 41.0522C81.64 44.1722 83.95 48.7222 84.25 53.6022C91.02 54.0622 96.44 59.4422 96.97 66.1922C96.97 66.2022 96.97 66.2122 96.97 66.2222C97 66.5722 97.01 66.9222 97.01 67.2722Z" fill="white"/>
</svg>
