<svg width="264" height="127" viewBox="0 0 264 127" fill="none" xmlns="http://www.w3.org/2000/svg">
<path d="M115.49 53.5323C115.84 53.3323 116.14 53.1523 116.44 52.9823C117.62 52.2923 118.79 51.5923 120.05 51.0623C122.37 50.0923 124.75 49.8023 127.22 50.3623C128.33 50.6223 129.36 51.0623 130.27 51.7523C130.94 52.2523 131.49 52.8523 131.91 53.5823C131.96 53.6623 132.01 53.7423 132.06 53.8223C132.06 53.8323 132.09 53.8323 132.12 53.8523C132.27 53.8223 132.37 53.6923 132.49 53.6023C134.93 51.7223 137.67 50.5623 140.74 50.1923C142.15 50.0223 143.56 49.9723 144.94 50.3923C148.02 51.3123 149.85 53.4023 150.56 56.5023C150.71 57.1723 150.76 57.8523 150.76 58.5323C150.76 64.3723 150.76 70.2023 150.76 76.0423C150.76 76.7023 150.82 76.6223 150.18 76.6323C149.28 76.6323 148.37 76.6323 147.47 76.6323C147.13 76.6323 147.13 76.6323 147.11 76.2923C147.11 76.1623 147.11 76.0423 147.11 75.9123C147.11 70.1823 147.11 64.4623 147.11 58.7323C147.11 58.0123 147.03 57.3123 146.79 56.6323C146.18 54.9323 144.76 53.8523 142.95 53.7823C139.52 53.6423 136.3 54.3623 133.39 56.2523C133.09 56.4523 132.97 56.6423 132.97 57.0123C132.98 63.3523 132.97 69.7023 132.97 76.0423C132.97 76.7123 133.02 76.6323 132.39 76.6323C131.49 76.6323 130.58 76.6323 129.68 76.6323C129.32 76.6323 129.32 76.6323 129.31 76.2623C129.31 76.1323 129.31 76.0123 129.31 75.8823C129.31 70.1223 129.31 64.3723 129.31 58.6123C129.31 57.7423 129.17 56.9023 128.76 56.1323C128.01 54.6923 126.81 53.8923 125.2 53.8023C123.06 53.6723 121 54.0523 119.02 54.8923C117.92 55.3623 116.86 55.8823 115.78 56.3823C115.56 56.4823 115.46 56.6123 115.48 56.8523C115.49 56.9823 115.48 57.1023 115.48 57.2323C115.48 63.3823 115.48 69.5423 115.48 75.6923C115.48 75.8223 115.48 75.9423 115.48 76.0723C115.48 76.7023 115.51 76.6423 114.92 76.6423C114 76.6423 113.08 76.6423 112.16 76.6423C111.82 76.6423 111.82 76.6323 111.81 76.3023C111.81 76.2223 111.81 76.1423 111.81 76.0623C111.81 67.7023 111.81 59.3423 111.81 50.9923C111.81 50.3423 111.74 50.4023 112.39 50.3923C112.95 50.3923 113.5 50.4023 114.06 50.3923C114.31 50.3923 114.42 50.4723 114.5 50.7123C114.76 51.5123 115.04 52.3023 115.32 53.0923C115.37 53.2223 115.42 53.3623 115.49 53.5523V53.5323Z" fill="white"/>
<path d="M54.1801 63.5419C54.1801 67.8119 54.1801 72.0719 54.1801 76.3419C54.1801 76.7019 54.08 76.9019 53.76 77.0919C46.32 81.3719 38.89 85.6619 31.46 89.9519C31.2 90.1019 31.01 90.1219 30.73 89.9519C23.29 85.6419 15.84 81.3519 8.39001 77.0619C8.11001 76.9019 8 76.7219 8 76.3919C8 67.8119 8 59.2319 8 50.6519C8 50.3119 8.13002 50.1419 8.40002 49.9919C15.84 45.7119 23.2701 41.4219 30.6901 37.1219C31.0001 36.9419 31.21 36.9719 31.5 37.1419C38.91 41.4319 46.33 45.7119 53.76 49.9819C54.06 50.1519 54.17 50.3419 54.17 50.6919C54.16 54.9719 54.17 59.2619 54.17 63.5419H54.1801ZM52.28 63.5419C52.28 59.6219 52.28 55.7119 52.28 51.7919C52.28 51.4419 52.17 51.2619 51.87 51.0919C45.09 47.1919 38.3201 43.2819 31.5601 39.3719C31.2101 39.1719 30.97 39.1819 30.62 39.3819C23.87 43.2919 17.11 47.1919 10.35 51.0819C10.04 51.2619 9.91003 51.4419 9.91003 51.8219C9.92003 59.6419 9.92003 67.4619 9.91003 75.2719C9.91003 75.6419 10.03 75.8319 10.34 76.0119C17.14 79.9219 23.94 83.8519 30.74 87.7819C31.01 87.9419 31.2 87.9319 31.47 87.7819C38.25 83.8619 45.04 79.9419 51.83 76.0419C52.18 75.8419 52.29 75.6219 52.29 75.2219C52.27 71.3319 52.28 67.4519 52.28 63.5619V63.5419Z" fill="white"/>
<path d="M172.7 73.512C171.84 73.912 170.98 74.322 170.11 74.702C168.17 75.542 166.2 76.272 164.11 76.672C162.63 76.962 161.16 77.062 159.68 76.642C157.11 75.912 155.38 73.812 155.24 71.142C155.16 69.642 155.17 68.132 155.24 66.622C155.3 65.462 155.64 64.372 156.3 63.412C157.27 61.992 158.65 61.232 160.31 60.932C161.16 60.782 162.02 60.822 162.87 60.822C165.98 60.822 169.09 60.822 172.2 60.822C172.3 60.822 172.39 60.822 172.49 60.822C172.67 60.822 172.75 60.742 172.74 60.562C172.72 59.212 172.84 57.862 172.66 56.522C172.41 54.642 171.29 53.622 169.4 53.492C168.19 53.412 166.99 53.472 165.78 53.502C163.05 53.572 160.33 53.742 157.61 53.942C157.18 53.972 156.75 53.992 156.33 54.032C156.09 54.062 156.03 53.952 156.03 53.742C156.03 53.062 156.04 52.382 156.03 51.692C156.03 51.442 156.12 51.342 156.36 51.272C157.46 50.982 158.58 50.742 159.71 50.572C162.91 50.072 166.14 49.872 169.38 49.892C170.52 49.892 171.62 50.142 172.65 50.632C174.58 51.552 175.68 53.112 176.16 55.162C176.34 55.942 176.4 56.732 176.4 57.522C176.4 63.712 176.4 69.892 176.4 76.082C176.4 76.182 176.4 76.272 176.4 76.372C176.4 76.552 176.33 76.632 176.15 76.622C175.4 76.622 174.66 76.622 173.91 76.622C173.67 76.622 173.63 76.472 173.58 76.302C173.36 75.542 173.14 74.782 172.9 74.022C172.85 73.842 172.84 73.642 172.68 73.502L172.7 73.512ZM172.75 67.252C172.75 66.252 172.75 65.252 172.75 64.252C172.75 64.142 172.75 64.032 172.75 63.922C172.75 63.772 172.69 63.682 172.53 63.692C172.42 63.692 172.31 63.702 172.2 63.712C171.13 63.792 170.05 63.872 168.98 63.952C167 64.092 165.03 64.222 163.05 64.372C162.48 64.412 161.91 64.412 161.35 64.532C160.11 64.782 159.3 65.482 158.99 66.722C158.91 67.062 158.87 67.412 158.87 67.762C158.87 68.542 158.87 69.312 158.87 70.092C158.87 70.442 158.91 70.792 158.97 71.132C159.19 72.362 159.98 73.082 161.23 73.212C162.14 73.302 163.04 73.212 163.93 73.072C166.84 72.622 169.64 71.782 172.43 70.852C172.72 70.752 172.78 70.612 172.78 70.332C172.77 69.302 172.78 68.272 172.78 67.242L172.75 67.252Z" fill="white"/>
<path d="M219.46 73.5117C219.23 73.5417 219.091 73.6417 218.931 73.7217C216.601 74.8517 214.221 75.8517 211.701 76.4817C210.511 76.7717 209.31 76.9718 208.08 76.9118C207.02 76.8618 206.011 76.6218 205.071 76.1018C203.251 75.1018 202.26 73.5417 201.99 71.5117C201.8 70.1417 201.941 68.7518 201.911 67.3818C201.901 66.8118 201.97 66.2417 202.08 65.6817C202.6 63.0917 204.471 61.3217 207.071 60.9217C207.921 60.7917 208.78 60.8217 209.63 60.8217C212.74 60.8217 215.85 60.8217 218.96 60.8217C218.99 60.8217 219.021 60.8217 219.061 60.8217C219.431 60.8217 219.441 60.8218 219.451 60.4618C219.471 59.5118 219.52 58.5617 219.46 57.6117C219.43 57.1817 219.44 56.7617 219.36 56.3317C219.02 54.6017 217.97 53.6517 216.21 53.5017C215.45 53.4317 214.691 53.4717 213.931 53.4817C211.391 53.5017 208.861 53.6617 206.321 53.8117C205.241 53.8717 204.17 53.9617 203.09 54.0417C202.77 54.0617 202.76 54.0617 202.76 53.7517C202.76 53.0717 202.76 52.3917 202.76 51.7017C202.76 51.4417 202.85 51.3517 203.09 51.2817C204.19 50.9917 205.311 50.7517 206.441 50.5817C209.631 50.0817 212.841 49.8917 216.061 49.9017C216.991 49.9017 217.89 50.0717 218.76 50.3917C221.11 51.2617 222.441 53.0018 222.931 55.4118C223.071 56.0818 223.13 56.7617 223.13 57.4417C223.13 63.6417 223.13 69.8417 223.13 76.0417C223.13 76.6817 223.191 76.6217 222.541 76.6217C221.941 76.6217 221.33 76.6117 220.73 76.6217C220.48 76.6217 220.371 76.5318 220.301 76.3018C220.081 75.5218 219.85 74.7517 219.62 73.9817C219.58 73.8317 219.52 73.6817 219.47 73.5117H219.46ZM219.451 67.2317C219.451 66.5217 219.451 65.8017 219.451 65.0917C219.451 64.7117 219.451 64.3317 219.451 63.9517C219.451 63.7417 219.361 63.6617 219.161 63.6917C219.081 63.7017 219.001 63.7018 218.921 63.7118C217.831 63.7918 216.741 63.8818 215.651 63.9618C213.671 64.1018 211.69 64.2318 209.72 64.3818C209.15 64.4218 208.58 64.4317 208.02 64.5417C206.67 64.8017 205.73 65.7717 205.63 67.1417C205.54 68.3717 205.53 69.6118 205.63 70.8518C205.75 72.3118 206.601 73.1117 208.061 73.2317C208.941 73.3017 209.801 73.2117 210.671 73.0717C213.551 72.6217 216.33 71.8017 219.08 70.8717C219.45 70.7417 219.451 70.7417 219.451 70.3317C219.451 69.3017 219.451 68.2718 219.451 67.2418V67.2317Z" fill="white"/>
<path d="M102.71 73.4717C101.59 74.0117 100.54 74.5217 99.4497 74.9617C97.6997 75.6817 95.9297 76.3117 94.0597 76.6717C92.5597 76.9617 91.0696 77.0517 89.5796 76.6217C87.1096 75.9017 85.4196 73.8717 85.2196 71.3017C85.0896 69.6717 85.0896 68.0317 85.2196 66.4017C85.4496 63.4617 87.4696 61.3417 90.3896 60.9017C91.1996 60.7817 91.9997 60.8117 92.8097 60.8117C95.9197 60.8117 99.0296 60.8117 102.14 60.8117C102.22 60.8117 102.3 60.8117 102.38 60.8117C102.63 60.8417 102.71 60.7317 102.71 60.4817C102.71 59.4717 102.75 58.4517 102.71 57.4417C102.71 57.1917 102.68 56.9317 102.65 56.6817C102.48 54.7917 101.33 53.6417 99.4297 53.4917C98.3197 53.4017 97.2096 53.4717 96.0996 53.4917C93.2396 53.5617 90.3896 53.7317 87.5396 53.9417C87.1096 53.9717 86.6796 53.9917 86.2596 54.0317C86.0396 54.0517 85.9796 53.9717 85.9796 53.7717C85.9796 53.0617 85.9796 52.3417 85.9796 51.6317C85.9796 51.4017 86.0896 51.3417 86.2796 51.2917C87.2096 51.0317 88.1596 50.8317 89.1096 50.6717C92.4796 50.1017 95.8796 49.8917 99.2996 49.9017C100.13 49.9017 100.94 50.0417 101.73 50.3017C104.19 51.1117 105.61 52.8317 106.15 55.3317C106.3 56.0117 106.36 56.7117 106.36 57.4117C106.36 63.6417 106.36 69.8817 106.36 76.1117C106.36 76.6717 106.39 76.6317 105.85 76.6317C105.25 76.6317 104.64 76.6317 104.04 76.6317C103.63 76.6317 103.63 76.6317 103.52 76.2517C103.29 75.4917 103.07 74.7317 102.84 73.9717C102.8 73.8217 102.74 73.6717 102.68 73.4717H102.71ZM102.73 67.2417C102.73 66.1917 102.73 65.1517 102.73 64.1017C102.73 63.6817 102.73 63.6817 102.3 63.7017C102.25 63.7017 102.21 63.7017 102.16 63.7117C100.63 63.8217 99.0897 63.9417 97.5597 64.0517C95.6497 64.1917 93.7297 64.3117 91.8197 64.4617C90.1097 64.5917 89.0196 65.5717 88.8896 67.1517C88.7896 68.3617 88.7796 69.5917 88.8896 70.8117C89.0296 72.3517 89.8897 73.1317 91.4397 73.2317C92.2797 73.2917 93.1197 73.1917 93.9497 73.0617C96.8197 72.6017 99.5996 71.7917 102.35 70.8617C102.73 70.7317 102.73 70.7217 102.73 70.3317C102.73 69.3017 102.73 68.2717 102.73 67.2417Z" fill="white"/>
<path d="M249.19 50.4722C249.11 50.6222 248.97 50.7222 248.84 50.8422C245.24 54.2822 241.64 57.7322 238.05 61.1722C237.58 61.6222 237.61 61.4822 238 61.9922C241.64 66.6922 245.28 71.4022 248.92 76.1022C249.03 76.2522 249.14 76.3922 249.26 76.5522C249.09 76.6622 248.94 76.6222 248.81 76.6322C247.6 76.6322 246.4 76.6322 245.19 76.6322C244.87 76.6322 244.67 76.5322 244.47 76.2822C241.19 72.1622 237.9 68.0522 234.62 63.9322C234.58 63.8822 234.53 63.8422 234.5 63.7822C234.31 63.4622 234.05 63.3422 233.67 63.3722C233.28 63.4022 232.88 63.3822 232.48 63.3722C232.28 63.3722 232.19 63.4422 232.2 63.6522C232.2 63.7822 232.2 63.9022 232.2 64.0322C232.2 67.9922 232.2 71.9622 232.2 75.9222C232.2 76.0522 232.2 76.1722 232.2 76.3022C232.21 76.5222 232.14 76.6122 231.9 76.6122C230.88 76.6122 229.87 76.6122 228.85 76.6122C228.63 76.6122 228.52 76.5522 228.54 76.3222C228.54 76.2122 228.54 76.1022 228.54 75.9922C228.54 63.5322 228.54 51.0622 228.54 38.6022C228.54 37.8922 228.46 37.9822 229.18 37.9822C230.05 37.9822 230.93 37.9822 231.8 37.9822C232.18 37.9822 232.18 37.9822 232.19 38.3822C232.19 38.5122 232.19 38.6322 232.19 38.7622C232.19 45.5322 232.19 52.3022 232.19 59.0722C232.19 59.7622 232.11 59.7022 232.83 59.7022C233.15 59.7022 233.47 59.6922 233.78 59.7022C234.06 59.7222 234.25 59.6222 234.45 59.4322C237.27 56.8022 240.09 54.1722 242.91 51.5522C243.27 51.2222 243.63 50.8822 243.99 50.5422C244.12 50.4122 244.26 50.3522 244.45 50.3522C245.97 50.3522 247.5 50.3522 249.02 50.3522C249.06 50.3522 249.12 50.3522 249.17 50.4422L249.19 50.4722Z" fill="white"/>
<path d="M70.3903 61.7817C70.3903 59.4217 70.3903 57.0517 70.3903 54.6917C70.3903 54.5817 70.3903 54.4717 70.3903 54.3617C70.3837 54.1284 70.257 54.0084 70.0103 54.0017C69.9103 54.0017 69.8203 54.0017 69.7203 54.0017C68.4703 54.0017 67.2103 54.0017 65.9603 54.0017C65.5103 54.0017 65.5103 54.0017 65.5103 53.5717C65.5103 53.0917 65.5103 52.6217 65.5103 52.1417C65.5103 51.8417 65.3803 51.4817 65.5803 51.2617C65.7603 51.0717 66.1203 51.1217 66.4003 51.0617C67.6003 50.8317 68.8003 50.6317 70.0003 50.4017C70.4003 50.3317 70.4104 50.3217 70.4504 49.9317C70.6204 48.5317 70.7904 47.1317 70.9504 45.7317C71.0504 44.9317 71.1503 44.1317 71.2403 43.3217C71.2603 43.1117 71.3304 43.0117 71.5604 43.0117C72.3104 43.0117 73.0504 43.0117 73.8004 43.0117C74.0004 43.0117 74.0903 43.0917 74.0803 43.2917C74.0803 43.4017 74.0803 43.5117 74.0803 43.6217C74.0803 45.6517 74.0803 47.6817 74.0803 49.7117C74.0803 49.8217 74.0803 49.9317 74.0803 50.0417C74.0703 50.2317 74.1403 50.3417 74.3503 50.3317C74.4603 50.3317 74.5704 50.3317 74.6804 50.3317C76.8504 50.3317 79.0304 50.3317 81.2004 50.3317C81.7704 50.3317 81.7203 50.2917 81.7203 50.8417C81.7203 51.7117 81.7203 52.5817 81.7203 53.4617C81.7203 54.0217 81.7703 53.9817 81.2203 53.9817C79.0503 53.9817 76.8704 53.9817 74.7004 53.9817C74.5904 53.9817 74.4803 53.9817 74.3703 53.9817C74.1703 53.9717 74.0703 54.0517 74.0903 54.2517C74.0903 54.3417 74.0903 54.4417 74.0903 54.5417C74.0903 58.8717 74.0903 63.2017 74.0903 67.5317C74.0903 68.4717 74.1503 69.4017 74.3903 70.3117C74.4403 70.4917 74.4904 70.6817 74.5604 70.8617C74.9204 71.9017 75.6104 72.5817 76.6904 72.8417C78.0704 73.1817 79.4603 73.5217 80.8503 73.8617C81.3103 73.9717 81.3104 73.9617 81.3104 74.4417C81.3104 75.0417 81.3104 75.6517 81.3104 76.2517C81.3104 76.4917 81.2303 76.5917 80.9803 76.5817C79.3803 76.5617 77.7703 76.6517 76.1703 76.5317C74.2103 76.3817 72.7103 75.4717 71.7303 73.7517C71.0803 72.6017 70.7603 71.3417 70.5903 70.0517C70.4403 68.9617 70.4003 67.8717 70.4003 66.7817C70.4003 65.1117 70.4003 63.4517 70.4003 61.7817H70.3903Z" fill="white"/>
<path d="M185.57 53.6516C186.24 53.2616 186.9 52.8816 187.56 52.5016C188.28 52.0916 189.01 51.7116 189.75 51.3516C191.97 50.3016 194.31 49.9216 196.74 50.1216C197.32 50.1716 197.91 50.1916 198.49 50.3316C198.94 50.4416 198.95 50.4416 198.95 50.8916C198.95 51.8316 198.95 52.7616 198.95 53.7016C198.95 54.0916 198.95 54.0816 198.55 54.0316C196.13 53.7116 193.71 53.6616 191.32 54.2716C190.3 54.5316 189.33 54.9016 188.37 55.3316C187.53 55.7116 186.71 56.1216 185.87 56.4916C185.59 56.6116 185.48 56.7816 185.52 57.0716C185.54 57.1816 185.52 57.2916 185.52 57.4016C185.52 63.6216 185.52 69.8416 185.52 76.0516C185.52 76.6716 185.58 76.6216 184.97 76.6216C184.05 76.6216 183.13 76.6216 182.21 76.6216C181.88 76.6216 181.87 76.6116 181.86 76.2716C181.86 76.1616 181.86 76.0516 181.86 75.9416C181.86 67.6416 181.86 59.3516 181.86 51.0516C181.86 50.5983 182.09 50.3716 182.55 50.3716C183.01 50.3716 183.47 50.3716 183.93 50.3716C184.51 50.3716 184.42 50.3216 184.59 50.8316C184.85 51.6116 185.1 52.4016 185.36 53.1816C185.41 53.3316 185.42 53.5016 185.59 53.6416L185.57 53.6516Z" fill="white"/>
<path d="M17.3298 65.6018C18.0998 65.6918 18.8699 65.7818 19.6399 65.8718C20.0499 65.9218 20.4699 65.9318 20.8699 66.0118C21.1699 66.0718 21.3698 65.9818 21.5898 65.7818C24.6298 63.1318 27.6698 60.4918 30.7198 57.8518C30.7898 57.7918 30.8699 57.7318 30.9299 57.6618C31.0399 57.5518 31.1499 57.5518 31.2599 57.6618C31.3199 57.7218 31.3799 57.7618 31.4399 57.8218C35.7999 61.6118 40.1599 65.4018 44.5199 69.1918C44.6499 69.3018 44.7999 69.3918 44.8999 69.5818C44.6099 69.7418 44.2799 69.6918 43.9799 69.7418C43.0999 69.8618 42.2098 69.9418 41.3298 70.0618C40.9998 70.1018 40.7699 70.0218 40.5199 69.8018C37.5299 67.1918 34.5399 64.5918 31.5399 61.9918C31.3999 61.8718 31.2498 61.7518 31.0798 61.6018C26.4698 65.6018 21.8798 69.6018 17.2198 73.6418C17.7598 73.8018 18.2498 73.7918 18.7198 73.8618C19.4298 73.9618 20.1399 74.0118 20.8499 74.1118C21.1499 74.1518 21.3498 74.0918 21.5798 73.8918C24.4098 71.4218 27.2498 68.9518 30.0898 66.4918C30.3098 66.3018 30.5199 66.1118 30.7399 65.9318C31.1399 65.5918 31.0498 65.5918 31.4598 65.9518C32.2798 66.6618 33.0899 67.3618 33.8999 68.0718C37.4399 71.1518 40.9899 74.2318 44.5299 77.3118C44.6599 77.4218 44.8199 77.5018 44.8999 77.7218C44.5999 77.7618 44.3199 77.8018 44.0399 77.8418C43.1399 77.9418 42.2399 78.0418 41.3499 78.1518C41.0099 78.1918 40.7599 78.1118 40.4899 77.8818C37.5399 75.3018 34.5799 72.7318 31.6199 70.1618C31.4799 70.0418 31.3299 69.9218 31.1599 69.7818C31.0399 69.9818 31.0798 70.1718 31.0798 70.3518C31.0798 73.1318 31.0798 75.9018 31.0798 78.6818C31.0798 80.8118 31.0798 82.9318 31.0798 85.0618C31.0798 85.2318 31.1099 85.4018 31.0399 85.5618C30.8499 85.5618 30.7298 85.4518 30.5898 85.3718C24.4898 81.8518 18.3899 78.3318 12.2899 74.8218C11.9899 74.6518 11.8799 74.4718 11.8799 74.1218C11.8899 67.0318 11.8899 59.9418 11.8799 52.8518C11.8799 52.5218 11.9799 52.3418 12.2699 52.1818C18.4199 48.6418 24.56 45.1018 30.7 41.5618C31.18 41.2818 31.0799 41.3318 31.4199 41.6318C35.8399 45.4718 40.2599 49.3118 44.6799 53.1518C44.7499 53.2118 44.8199 53.2818 44.9099 53.3618C44.7899 53.4818 44.6399 53.4818 44.5099 53.4918C43.4399 53.6118 42.3699 53.7318 41.2999 53.8718C40.9899 53.9118 40.7699 53.8318 40.5299 53.6218C37.5399 51.0118 34.5499 48.4118 31.5499 45.8118C31.4699 45.7418 31.3699 45.6718 31.2999 45.5918C31.1499 45.4218 31.0299 45.4518 30.8699 45.5918C30.0599 46.3018 29.2399 47.0118 28.4299 47.7118C24.8399 50.8318 21.2399 53.9518 17.6499 57.0818C17.5199 57.1918 17.3699 57.2818 17.2799 57.4618C17.7999 57.5918 18.3099 57.6018 18.8099 57.6718C19.4999 57.7618 20.1999 57.8118 20.8899 57.9118C21.1699 57.9518 21.3599 57.8918 21.5699 57.7018C24.2099 55.3918 26.8599 53.1018 29.5099 50.8018C29.9299 50.4418 30.3499 50.0718 30.7699 49.7118C31.1399 49.3918 31.0799 49.4118 31.4199 49.7118C32.9999 51.0818 34.5799 52.4618 36.1599 53.8318C38.9499 56.2518 41.7399 58.6818 44.5299 61.1118C44.6599 61.2218 44.8199 61.3118 44.8999 61.5018C44.5399 61.6518 44.1499 61.6218 43.7799 61.6718C42.9799 61.7818 42.1699 61.8518 41.3699 61.9618C41.0299 62.0018 40.7799 61.9418 40.5099 61.7018C37.5399 59.1018 34.5499 56.5118 31.5699 53.9218C31.4199 53.7918 31.2799 53.6318 31.0599 53.5318C26.4699 57.5218 21.8799 61.5118 17.2799 65.5018C17.2899 65.5318 17.3099 65.5718 17.3199 65.6018H17.3298Z" fill="white"/>
</svg>
