<svg width="245" height="66" viewBox="0 0 245 66" fill="none" xmlns="http://www.w3.org/2000/svg">
<path d="M40.9181 18.906C40.9485 18.8871 40.9737 18.8607 40.9912 18.8294C41.0086 18.7981 41.0179 18.7629 41.0181 18.7271V0.558016C41.018 0.524284 41.009 0.491166 40.9919 0.462069C40.9749 0.432971 40.9504 0.408983 40.921 0.392489C40.8915 0.375995 40.8583 0.36757 40.8245 0.368197C40.7908 0.368824 40.7579 0.378453 40.7291 0.396029L0.629092 24.913C0.601797 24.9296 0.579197 24.953 0.563601 24.9809C0.548005 25.0087 0.539894 25.0401 0.540042 25.0721V49.523C0.53991 49.5466 0.544472 49.57 0.553409 49.5918C0.562345 49.6137 0.575531 49.6336 0.592166 49.6503C0.608801 49.667 0.62855 49.6803 0.650332 49.6894C0.672115 49.6984 0.695467 49.703 0.719058 49.703H16.2801V65.287C16.2801 65.329 16.2967 65.3693 16.3263 65.3991C16.3559 65.4289 16.3961 65.4458 16.4381 65.4461H40.8381C40.8858 65.4461 40.9316 65.4271 40.9653 65.3933C40.9991 65.3596 41.0181 65.3138 41.0181 65.266V49.8831C41.0182 49.8594 41.0136 49.8359 41.0046 49.814C40.9956 49.7921 40.9824 49.7721 40.9656 49.7554C40.9489 49.7387 40.929 49.7255 40.9071 49.7165C40.8852 49.7075 40.8618 49.7029 40.8381 49.703H16.2801V33.9671L40.9181 18.906Z" fill="white"/>
<path d="M73.1169 38.8342C73.1609 39.0102 73.0289 39.0542 72.8959 39.0542H67.9149C67.8472 39.0534 67.7814 39.0319 67.7263 38.9926C67.6712 38.9532 67.6296 38.898 67.6069 38.8342C67.2743 37.8605 66.624 37.0267 65.7606 36.467C64.8971 35.9074 63.8706 35.6543 62.8459 35.7483C59.1459 35.7483 57.3799 38.7482 57.3799 42.6692C57.3799 46.5902 59.1429 49.5902 62.8459 49.5902C65.7989 49.5902 66.9459 48.4443 67.6949 46.5043C67.7176 46.4405 67.7593 46.3852 67.8143 46.3458C67.8694 46.3065 67.9352 46.2851 68.0029 46.2843H72.9849C73.1169 46.2843 73.2489 46.3283 73.2049 46.5043C72.2789 51.5303 68.4049 54.2632 62.8459 54.2632C55.9689 54.2632 52.0459 49.5462 52.0459 42.6692C52.0459 35.7482 55.9689 31.0752 62.8459 31.0752C68.4439 31.0752 72.3669 34.1172 73.1169 38.8342Z" fill="white"/>
<path d="M75.156 53.8221C75.1266 53.8238 75.0971 53.8193 75.0695 53.8088C75.042 53.7983 75.017 53.7821 74.9962 53.7612C74.9754 53.7403 74.9592 53.7152 74.9489 53.6876C74.9385 53.66 74.9341 53.6304 74.936 53.601V23.0081C74.9342 22.9788 74.9387 22.9493 74.9492 22.9218C74.9596 22.8943 74.9758 22.8694 74.9966 22.8486C75.0174 22.8278 75.0423 22.8116 75.0698 22.8012C75.0972 22.7908 75.1267 22.7863 75.156 22.788H80.005C80.0344 22.7861 80.0639 22.7906 80.0916 22.801C80.1192 22.8113 80.1442 22.8274 80.1651 22.8482C80.186 22.869 80.2023 22.894 80.2128 22.9216C80.2233 22.9491 80.2278 22.9787 80.226 23.0081V53.6C80.2279 53.6296 80.2235 53.6591 80.2131 53.6868C80.2026 53.7145 80.1864 53.7396 80.1655 53.7606C80.1446 53.7815 80.1195 53.7977 80.0918 53.8082C80.0641 53.8186 80.0345 53.823 80.005 53.8211L75.156 53.8221Z" fill="white"/>
<path d="M103.03 44.7H87.69C87.6606 44.6981 87.6311 44.7025 87.6035 44.7129C87.5758 44.7233 87.5508 44.7393 87.5299 44.7601C87.509 44.7809 87.4927 44.8059 87.4822 44.8335C87.4717 44.8611 87.4672 44.8906 87.469 44.92C87.469 47.345 89.585 49.42 92.715 49.42C94.655 49.42 96.242 48.935 96.991 47.436C97.0204 47.3677 97.0699 47.31 97.133 47.2706C97.1961 47.2313 97.2697 47.2122 97.344 47.2159H102.5C102.632 47.2159 102.765 47.304 102.721 47.436C101.751 51.712 97.739 54.269 92.714 54.269C86.278 54.269 81.958 49.552 81.958 42.675C81.958 35.754 86.278 31.0811 92.714 31.0811C99.15 31.0811 103.47 35.798 103.47 42.675C103.463 43.2836 103.389 43.8895 103.25 44.4821C103.207 44.6091 103.162 44.7 103.03 44.7ZM97.652 40.292C97.784 40.292 97.829 40.248 97.829 40.115C97.829 38.352 96.329 35.928 92.715 35.928C89.144 35.928 87.469 38.396 87.469 40.115C87.469 40.248 87.513 40.292 87.645 40.292H97.652Z" fill="white"/>
<path d="M113.229 54.2632C107.234 54.2632 104.501 51.1772 104.501 47.1632C104.501 43.3722 107.719 40.0222 114.155 40.0222H118.3C119.181 40.0222 119.622 39.4932 119.622 39.0522C119.622 38.1272 119.313 35.9232 114.993 35.9232C111.643 35.9232 110.673 37.3333 110.541 38.8323C110.543 38.8616 110.538 38.891 110.528 38.9185C110.517 38.9459 110.501 38.9709 110.48 38.9917C110.46 39.0125 110.435 39.0286 110.407 39.0391C110.38 39.0495 110.35 39.054 110.321 39.0522H105.521C105.492 39.054 105.462 39.0495 105.435 39.0391C105.407 39.0286 105.382 39.0125 105.361 38.9917C105.34 38.9709 105.324 38.9461 105.314 38.9186C105.303 38.8911 105.298 38.8617 105.3 38.8323C105.3 33.6323 109.8 31.0732 115 31.0732C121.084 31.0732 124.919 33.9392 124.919 39.4492V48.0002C124.918 48.201 124.96 48.3997 125.042 48.583C125.124 48.7663 125.244 48.9301 125.394 49.0635C125.545 49.1969 125.721 49.2969 125.913 49.3568C126.104 49.4168 126.307 49.4353 126.506 49.4113H127.167C127.196 49.4095 127.226 49.414 127.253 49.4244C127.281 49.4349 127.306 49.451 127.326 49.4718C127.347 49.4926 127.363 49.5176 127.374 49.545C127.384 49.5725 127.389 49.6019 127.387 49.6312V53.5983C127.389 53.6277 127.385 53.6572 127.374 53.6848C127.364 53.7124 127.348 53.7374 127.327 53.7583C127.306 53.7792 127.281 53.7955 127.253 53.806C127.226 53.8165 127.196 53.821 127.167 53.8192H124.919C124.075 53.8899 123.227 53.7305 122.467 53.3579C121.706 52.9853 121.061 52.4135 120.599 51.7032C120.576 51.6718 120.546 51.6463 120.511 51.6287C120.476 51.6111 120.438 51.6019 120.399 51.6019C120.36 51.6019 120.322 51.6111 120.287 51.6287C120.252 51.6463 120.222 51.6718 120.199 51.7032C118.301 53.437 115.798 54.3563 113.229 54.2632ZM119.621 44.6532C119.623 44.6237 119.619 44.5941 119.608 44.5664C119.598 44.5387 119.581 44.5136 119.56 44.4927C119.54 44.4718 119.514 44.4556 119.487 44.4452C119.459 44.4348 119.43 44.4303 119.4 44.4323H114.375C110.452 44.4323 109.791 46.0193 109.791 47.1653C109.791 48.0913 110.584 49.4142 113.229 49.4142C117.769 49.4142 119.621 46.8572 119.621 44.6532Z" fill="white"/>
<path d="M139.157 36.1452C135.719 36.1452 134.308 38.4811 134.308 41.1261V53.6001C134.31 53.6296 134.305 53.6591 134.295 53.6867C134.285 53.7143 134.268 53.7394 134.248 53.7603C134.227 53.7812 134.202 53.7974 134.174 53.8079C134.147 53.8184 134.117 53.823 134.088 53.8212H129.2C129.147 53.8152 129.099 53.7885 129.066 53.7471C129.033 53.7057 129.018 53.6528 129.024 53.6001V31.7361C129.018 31.6835 129.033 31.6307 129.066 31.5893C129.099 31.5478 129.147 31.5212 129.2 31.5152H133.432C133.524 31.5018 133.619 31.521 133.699 31.5692C133.779 31.6175 133.84 31.6921 133.872 31.7802L134.313 33.1022C134.325 33.1421 134.347 33.1779 134.378 33.2062C134.409 33.2345 134.446 33.2541 134.487 33.2631C134.528 33.272 134.57 33.27 134.61 33.2572C134.649 33.2444 134.685 33.2212 134.713 33.1901C135.334 32.514 136.091 31.9763 136.934 31.6117C137.777 31.2472 138.687 31.064 139.606 31.0741H142.031C142.06 31.0725 142.09 31.0771 142.117 31.0877C142.145 31.0982 142.169 31.1145 142.19 31.1354C142.211 31.1563 142.227 31.1812 142.238 31.2088C142.248 31.2363 142.252 31.2658 142.251 31.2952V35.9241C142.252 35.9534 142.248 35.9829 142.238 36.0104C142.227 36.0379 142.211 36.0629 142.19 36.0836C142.169 36.1044 142.144 36.1206 142.117 36.131C142.089 36.1414 142.06 36.1459 142.031 36.1442L139.157 36.1452Z" fill="white"/>
<path d="M160.837 41.3911C160.837 37.5111 159.074 33.764 153.961 33.72C149.024 33.72 147.084 36.0571 147.084 41.3471V53.6C147.085 53.6295 147.081 53.659 147.071 53.6866C147.06 53.7142 147.044 53.7393 147.023 53.7602C147.003 53.7811 146.978 53.7973 146.95 53.8078C146.922 53.8183 146.893 53.8229 146.863 53.8211H144.219C144.189 53.823 144.159 53.8186 144.132 53.8082C144.104 53.7977 144.079 53.7815 144.058 53.7606C144.037 53.7396 144.021 53.7145 144.01 53.6868C144 53.6592 143.996 53.6296 143.998 53.6V23.007C143.996 22.9776 144 22.9482 144.011 22.9206C144.021 22.893 144.037 22.868 144.058 22.8472C144.079 22.8264 144.104 22.8102 144.132 22.7999C144.16 22.7895 144.189 22.7852 144.219 22.7871H146.863C146.893 22.7853 146.922 22.7898 146.95 22.8002C146.977 22.8107 147.002 22.8268 147.023 22.8476C147.044 22.8684 147.06 22.8934 147.07 22.9208C147.081 22.9483 147.085 22.9777 147.084 23.007V33.7191C147.086 33.7646 147.102 33.8085 147.129 33.8448C147.157 33.8811 147.195 33.9083 147.238 33.9227C147.281 33.9371 147.328 33.938 147.372 33.9254C147.415 33.9128 147.454 33.8873 147.483 33.8521C148.297 32.9464 149.298 32.2286 150.417 31.7488C151.536 31.2691 152.746 31.0389 153.964 31.074C160.708 31.119 163.927 35.7471 163.927 41.3901V53.6C163.928 53.6295 163.924 53.6591 163.913 53.6867C163.903 53.7143 163.887 53.7393 163.866 53.7602C163.845 53.7811 163.82 53.7973 163.792 53.8078C163.765 53.8183 163.735 53.8229 163.706 53.8211H161.06C161.031 53.8229 161.002 53.8183 160.974 53.8078C160.946 53.7973 160.921 53.7811 160.901 53.7602C160.88 53.7393 160.864 53.7142 160.853 53.6866C160.843 53.659 160.839 53.6295 160.841 53.6L160.837 41.3911Z" fill="white"/>
<path d="M176.437 54.2632C169.516 54.2632 165.505 49.5462 165.505 42.6692C165.505 35.7482 169.516 31.0312 176.437 31.0312C183.314 31.0312 187.37 35.7922 187.37 42.6692C187.37 49.5462 183.314 54.2632 176.437 54.2632ZM176.437 33.7202C171.544 33.7202 168.591 37.3792 168.591 42.6692C168.591 47.9592 171.544 51.6183 176.437 51.6183C181.33 51.6183 184.284 47.9592 184.284 42.6692C184.284 37.3792 181.33 33.7202 176.437 33.7202Z" fill="white"/>
<path d="M203.888 41.3911C203.888 37.3791 203.006 33.7201 197.937 33.7201C193.176 33.7201 192.074 37.4201 192.074 41.3911V53.6011C192.076 53.6306 192.071 53.6602 192.061 53.6879C192.05 53.7155 192.034 53.7407 192.013 53.7616C191.992 53.7825 191.967 53.7988 191.94 53.8092C191.912 53.8196 191.882 53.8241 191.853 53.8221H189.208C189.178 53.8239 189.149 53.8193 189.121 53.8088C189.094 53.7983 189.069 53.7821 189.048 53.7612C189.027 53.7403 189.011 53.7152 189.001 53.6876C188.99 53.66 188.986 53.6305 188.988 53.6011V31.7372C188.986 31.7078 188.99 31.6782 189.001 31.6506C189.011 31.623 189.027 31.5979 189.048 31.577C189.069 31.5561 189.094 31.5399 189.121 31.5294C189.149 31.5189 189.178 31.5144 189.208 31.5161H191.368C191.501 31.5161 191.589 31.5602 191.633 31.7372L192.074 34.1611C192.073 34.2143 192.092 34.266 192.125 34.3073C192.159 34.3485 192.206 34.3767 192.258 34.3871C192.31 34.3975 192.364 34.3894 192.411 34.3643C192.458 34.3391 192.495 34.2984 192.515 34.2491C193.141 33.2651 194.009 32.4571 195.035 31.9017C196.061 31.3463 197.211 31.0618 198.378 31.0751C203.227 31.0751 204.946 33.3681 205.783 34.7341C205.8 34.7784 205.831 34.8164 205.87 34.8431C205.909 34.8699 205.956 34.8843 206.003 34.8843C206.051 34.8843 206.097 34.8699 206.137 34.8431C206.176 34.8164 206.206 34.7784 206.224 34.7341C207.811 32.0451 209.971 31.0342 213.324 31.0342C219.624 31.0342 221.924 34.8252 221.924 41.3942V53.6041C221.926 53.6336 221.921 53.6631 221.911 53.6907C221.901 53.7183 221.884 53.7434 221.864 53.7643C221.843 53.7852 221.818 53.8014 221.79 53.8119C221.763 53.8224 221.733 53.8268 221.704 53.8251H219.059C219.029 53.8268 219 53.8224 218.972 53.8119C218.945 53.8014 218.92 53.7852 218.899 53.7643C218.878 53.7434 218.862 53.7183 218.852 53.6907C218.841 53.6631 218.837 53.6336 218.839 53.6041V41.3942C218.839 37.4702 217.693 33.6351 212.888 33.6351C207.862 33.6351 206.98 37.3822 206.98 41.3942V53.6041C206.982 53.6336 206.977 53.6631 206.967 53.6907C206.957 53.7183 206.94 53.7434 206.92 53.7643C206.899 53.7852 206.874 53.8014 206.846 53.8119C206.819 53.8224 206.789 53.8268 206.76 53.8251H204.115C204.085 53.8268 204.056 53.8224 204.028 53.8119C204.001 53.8014 203.976 53.7852 203.955 53.7643C203.934 53.7434 203.918 53.7183 203.908 53.6907C203.897 53.6631 203.893 53.6336 203.895 53.6041L203.888 41.3911Z" fill="white"/>
<path d="M227.067 43.8152C227.038 43.8134 227.008 43.818 226.981 43.8285C226.953 43.839 226.928 43.8552 226.907 43.8761C226.886 43.897 226.87 43.9221 226.86 43.9497C226.85 43.9773 226.845 44.0068 226.847 44.0363C226.813 45.0224 226.979 46.0053 227.334 46.9259C227.689 47.8465 228.227 48.6859 228.914 49.3939C229.601 50.1019 230.424 50.6638 231.334 51.046C232.244 51.4282 233.221 51.6229 234.208 51.6183C237.779 51.6183 239.763 49.8102 240.6 48.1792C240.629 48.1109 240.679 48.0532 240.742 48.0139C240.805 47.9746 240.879 47.9555 240.953 47.9592H243.774C243.906 47.9592 244.083 48.0032 244.038 48.1792C242.716 52.1912 238.969 54.2632 234.208 54.2632C227.816 54.2632 223.496 49.5462 223.496 42.6692C223.496 35.7482 227.596 31.0312 234.208 31.0312C240.82 31.0312 244.788 35.7922 244.788 42.6692C244.79 42.98 244.76 43.2902 244.7 43.5952C244.687 43.6562 244.653 43.711 244.605 43.7509C244.557 43.7907 244.497 43.8133 244.435 43.8152H227.067ZM234.208 33.6763C229.183 33.6763 226.847 38.3052 226.847 40.9502C226.845 40.9795 226.85 41.009 226.86 41.0365C226.871 41.064 226.887 41.089 226.908 41.1097C226.928 41.1305 226.953 41.1467 226.981 41.1571C227.008 41.1675 227.038 41.172 227.067 41.1703H241.217C241.247 41.1722 241.276 41.1677 241.304 41.1573C241.331 41.147 241.356 41.1309 241.377 41.1101C241.398 41.0893 241.414 41.0643 241.425 41.0367C241.435 41.0092 241.44 40.9796 241.438 40.9502C241.475 39.9888 241.313 39.0303 240.964 38.134C240.614 37.2378 240.083 36.4232 239.405 35.7408C238.727 35.0585 237.915 34.5232 237.021 34.168C236.127 33.8128 235.17 33.6454 234.208 33.6763Z" fill="white"/>
</svg>
