<svg width="264" height="127" viewBox="0 0 264 127" fill="none" xmlns="http://www.w3.org/2000/svg">
<path d="M56 45.7305H76.11C85.56 45.7305 91.61 49.4805 91.61 55.3505C91.61 59.4405 88.1 62.4905 82.22 63.8805C90.06 64.8605 94.26 68.1405 94.26 72.8105C94.26 78.8005 88.04 82.6005 77.55 82.6005H56V81.9705C56 81.2805 56.0601 80.8805 56.0601 80.8805L56.64 80.8205C58.71 80.5905 59.98 77.0705 59.98 71.9505V56.3905C59.98 51.2605 58.71 47.7505 56.64 47.5205L56.0601 47.4605C56.0601 47.4605 56 47.0605 56 46.3705V45.7405V45.7305ZM74.67 63.2405C79.57 63.2405 82.62 60.1905 82.62 55.3505C82.62 50.9105 80.09 48.0305 76.11 48.0305H69.02V63.2405H74.67ZM69.02 80.2905H76.62C81.92 80.2905 84.8 77.3505 84.8 72.8005C84.8 68.2505 81 65.3705 74.08 65.3705H69.01V80.2905H69.02Z" fill="white"/>
<path d="M111.31 67.8002V63.3102C111.31 60.3702 110.5 58.4702 109.24 58.4702C106.71 58.4702 105.5 61.2402 106.01 65.2702C104.45 65.6702 103.24 65.9002 101.98 65.9002C100.72 65.9002 99.4997 65.6702 97.8297 65.2702C97.0797 59.8502 102.67 55.8802 111.08 56.1702C116.44 56.3402 119.89 59.6802 119.89 65.2102V75.1802C119.89 77.6602 120.35 79.2702 122.14 79.2702C123.47 79.2702 124.16 78.8102 124.56 78.0602L125.42 79.1502C124.04 81.6802 121.73 83.3002 116.61 83.3002C114.31 83.3002 112.52 82.2602 111.89 80.4802C109.93 81.7502 106.99 83.0102 103.94 83.0102C99.6198 83.0102 96.7998 79.6702 96.7998 76.1002C96.7998 69.3602 106.25 68.0302 111.32 67.8002H111.31ZM108.95 78.9202C109.76 78.9202 110.62 78.6902 111.37 78.1702L111.31 69.4102C108.14 69.4102 104.91 70.9102 104.91 74.7702C104.91 77.4202 106.87 78.9202 108.94 78.9202H108.95Z" fill="white"/>
<path d="M125.14 82.6095V81.9795C125.14 81.2895 125.2 80.8895 125.2 80.8895L125.72 80.8295C127.79 80.5995 129.12 77.0795 129.12 71.9595V59.2895C129.12 52.0895 128.54 50.7095 125.72 49.1495L125.2 48.8595C125.2 48.8595 125.14 48.5695 125.14 48.2795L135.63 44.0195H137.24V68.1595L138.57 67.0095C144.39 61.9395 147.44 58.4295 146.69 58.1395C146.4 58.0195 146.46 57.9095 146.46 56.9895V56.3595H155.91V58.0895L155.22 58.1495C153.32 58.3195 149.34 60.6295 144.56 64.1995L151.24 73.1295C154.75 77.6195 158.21 80.6795 160.29 80.8495L160.98 80.9095V82.6395H144.16V82.0095C144.16 81.3195 144.22 80.9195 144.22 80.9195L144.51 80.8595C145.72 80.6295 144.05 77.0595 140.13 71.9895C139.15 70.7195 138.23 69.4595 137.25 68.1895V71.9895C137.25 77.1195 138.58 80.6295 140.59 80.8595L141.17 80.9195C141.17 80.9195 141.23 81.3195 141.23 82.0095V82.6395H125.16L125.14 82.6095Z" fill="white"/>
<path d="M165.18 54.6604C162.65 54.6604 160.86 52.7004 160.86 49.9904C160.86 47.2804 162.59 45.4404 165.3 45.4404C168.76 45.4404 170.54 48.7204 170.54 51.8904C170.54 57.5904 167.43 62.4304 162.47 64.3304L162.12 63.3504C165.06 62.2604 167.19 58.6804 166.84 54.3604C166.26 54.5304 165.69 54.6504 165.17 54.6504L165.18 54.6604Z" fill="white"/>
<path d="M172.55 71.31C172.55 61.98 177.97 56.04 186.43 56.04C188.04 56.04 189.54 56.62 190.81 57.54C190.69 51.84 190.06 50.45 187.47 49.13L186.89 48.84C186.89 48.84 186.83 48.61 186.83 48.26L197.26 44H198.87V67.39C198.87 74.53 199.45 75.92 202.27 77.47L202.79 77.76C202.79 77.76 202.85 77.99 202.85 78.34L192.42 82.6H190.81V78.68C188.56 81.27 185.8 82.89 183.32 82.89C176.69 82.89 172.55 78.4 172.55 71.31ZM187.76 77.76C189.03 77.76 190.12 77.47 190.81 77.07V61C189.72 59.39 188.04 58.35 186.03 58.35C182.98 58.35 181.02 62.15 181.02 68.14C181.02 74.13 183.67 77.76 187.76 77.76Z" fill="white"/>
</svg>
