<svg width="264" height="127" viewBox="0 0 264 127" fill="none" xmlns="http://www.w3.org/2000/svg">
<path d="M102.59 73.3303C102.59 78.4103 97.7303 81.9604 90.7703 81.9604C84.6703 81.9604 80.7902 79.4804 78.6102 77.4104L78.0703 76.8904L80.8502 74.2104L81.3502 74.6903C83.8202 77.0603 87.1603 78.3604 90.7803 78.3604C95.3403 78.3604 98.2903 76.4503 98.2903 73.4903C98.2903 70.5303 96.1603 69.5604 92.6903 68.2504L87.5603 66.3303C85.3303 65.4903 80.1302 63.5204 80.1302 58.3904C80.1302 53.7304 84.7103 50.3604 91.0103 50.3604C94.9303 50.3604 98.6403 51.7104 101.19 54.0704L101.74 54.5803L99.1302 57.1304L98.6302 56.7004C96.5402 54.8804 93.9803 53.9604 91.0103 53.9604C87.0203 53.9604 84.4403 55.6203 84.4403 58.1903C84.4403 61.0103 87.4103 62.1103 89.8103 62.9903L94.9403 64.9104C98.6503 66.3104 102.6 68.2403 102.6 73.3303H102.59Z" fill="white"/>
<path d="M131.881 50.8799V69.3399C131.881 77.4799 127.451 81.9599 119.401 81.9599C111.351 81.9599 106.971 77.4799 106.971 69.3399V50.8799H111.231V69.2199C111.231 75.2899 113.981 78.3699 119.401 78.3699C124.821 78.3699 127.761 75.2899 127.761 69.2199V50.8799H131.881Z" fill="white"/>
<path d="M162.7 50.8799V81.4399H158.69L144.5 61.0799L141.84 57.0699C141.84 57.0699 141.84 57.1399 141.84 57.1799C141.96 59.1399 142.08 61.1699 142.08 63.2699V81.4499H137.96V50.8899H141.97L156.2 71.2099L158.79 75.1999C158.66 73.0999 158.56 70.9799 158.56 68.8599V50.8799H162.68H162.7Z" fill="white"/>
<path d="M191.2 54.9699C188.37 52.2599 184.23 50.8799 178.89 50.8799H170.08V81.4399H178.94C189.35 81.4399 195.33 75.8399 195.33 66.0599C195.33 61.3199 193.94 57.5899 191.2 54.9699ZM174.34 54.3099H178.61C186.67 54.3099 190.92 58.3699 190.92 66.0599C190.92 71.4899 188.78 77.9699 178.61 77.9699H174.34V54.3199V54.3099Z" fill="white"/>
<path d="M221.46 77.9299V81.4399H200.54V50.8799H220.94V54.3599H204.81V63.5499H218.4V67.0199H204.81V77.9299H221.46Z" fill="white"/>
<path d="M241.201 67.9106C246.331 66.9006 249.241 63.8406 249.241 59.4006C249.241 52.3706 242.631 50.8906 237.091 50.8906H226.351V81.4506H230.611V68.3106H236.531L245.661 81.4506H250.611L241.211 67.9106H241.201ZM230.611 54.3206H236.431C240.631 54.3206 244.931 54.9206 244.931 59.4006C244.931 63.0306 242.071 64.8706 236.431 64.8706H230.611V54.3206Z" fill="white"/>
<path d="M19.7705 62.66H17.0605L17.0806 62.41C17.9606 48.72 29.3905 38 43.1105 38C56.8305 38 68.2605 48.72 69.1405 62.41L69.1605 62.66H66.4506L66.4305 62.44C65.5705 50.25 55.3305 40.7 43.1105 40.7C30.8905 40.7 20.6405 50.25 19.7805 62.44L19.7605 62.66H19.7705Z" fill="white"/>
<path d="M20.0002 76.3604H66.1603L65.9602 76.7204C65.5302 77.5004 65.0402 78.2904 64.5002 79.0604L64.4303 79.1604H21.7102L21.6403 79.0604C21.1003 78.2904 20.6103 77.5004 20.1803 76.7204L19.9902 76.3604H20.0002Z" fill="white"/>
<path d="M31.5195 87.5898H54.6395L53.5995 88.0499C50.2695 89.5199 46.7296 90.2598 43.0796 90.2598C39.4296 90.2598 35.8896 89.5099 32.5596 88.0499L31.5195 87.5898Z" fill="white"/>
<path d="M17.8206 70.7402H68.3306L68.2505 71.0402C68.0305 71.8402 67.7805 72.6302 67.4905 73.3802L67.4305 73.5402H18.7104L18.6505 73.3802C18.3605 72.6302 18.1105 71.8402 17.8905 71.0402L17.8105 70.7402H17.8206Z" fill="white"/>
<path d="M24.0002 81.9697H62.1603L61.7603 82.3797C60.9503 83.2097 60.0703 83.9997 59.1403 84.7197L59.0803 84.7697H27.0703L27.0103 84.7197C26.0803 83.9997 25.2003 83.2097 24.3903 82.3797L23.9902 81.9697H24.0002Z" fill="white"/>
<path d="M17 65.1201H69.15V65.3701C69.1 66.1201 69.03 66.9101 68.92 67.7101L68.89 67.9201H17.25L17.22 67.7101C17.11 66.9101 17.04 66.1201 17.01 65.3701V65.1201H17Z" fill="white"/>
</svg>
