<svg width="264" height="127" viewBox="0 0 264 127" fill="none" xmlns="http://www.w3.org/2000/svg">
<path d="M95.0826 36H99.3919C101.795 36 103.304 38.6018 102.102 40.6887L89.9422 61.8557C89.382 62.8223 88.3522 63.4276 87.2319 63.4276H83.1666C80.7725 63.4276 79.2728 60.8529 80.4382 58.766L92.3543 37.59C92.9054 36.6053 93.9533 36 95.0826 36Z" fill="white"/>
<path d="M77.9258 48.6568C79.1273 50.7437 82.1357 50.7437 83.3372 48.6568L85.6409 44.6728L87.9446 40.6887C89.1462 38.6018 87.6465 36 85.2344 36H76.0286C73.6255 36 72.1168 38.6018 73.3184 40.6887L75.6221 44.6728L77.9258 48.6568Z" fill="white"/>
<path d="M76.0388 87.0147L73.8797 90.7458C72.6781 92.8237 69.6698 92.8327 68.4682 90.7458L56.2179 69.6331C55.6578 68.6664 55.6578 67.4739 56.2179 66.4982L58.2506 62.9749C59.4431 60.9061 62.4334 60.888 63.653 62.9478L76.0208 83.8528C76.599 84.8285 76.599 86.03 76.0388 87.0057V87.0147Z" fill="white"/>
<path d="M73.6448 65.8301C71.2417 65.8301 69.733 68.4319 70.9346 70.5188L73.2383 74.5028L75.542 78.4869C76.7435 80.5738 79.7519 80.5738 80.9534 78.4869L83.2572 74.5028L85.5609 70.5188C86.7624 68.4319 85.2627 65.8301 82.8506 65.8301H78.2522H73.6539H73.6448Z" fill="white"/>
<path d="M41.5824 44.474L39.4232 40.7429C38.2217 38.656 39.7213 36.0542 42.1244 36.0542L66.5347 36C67.6549 36 68.6848 36.5963 69.2449 37.5629L71.2776 41.0862C72.4701 43.155 70.9975 45.7478 68.6035 45.7749L44.3197 46.0369C43.1905 46.046 42.1425 45.4497 41.5824 44.474Z" fill="white"/>
<path d="M61.1143 53.0022C62.3159 50.9153 60.8162 48.3135 58.4041 48.3135H53.8057H49.2073C46.8042 48.3135 45.2955 50.9153 46.4971 53.0022L48.8008 56.9862L51.1045 60.9703C52.306 63.0572 55.3144 63.0572 56.5159 60.9703L58.8196 56.9862L61.1234 53.0022H61.1143Z" fill="white"/>
<path d="M112.301 69.1371V57.1397C112.301 53.4538 113.358 50.8068 115.472 49.1897C117.586 47.5816 121.01 46.7686 125.744 46.7686C130.225 46.7686 133.459 47.5455 135.446 49.0903C137.434 50.6442 138.428 53.3183 138.428 57.1307V63.8521H118.011V68.4414C118.011 70.5374 118.742 72.0461 120.206 72.9675C121.669 73.889 123.937 74.3498 126.991 74.3498C129.881 74.3498 133.296 73.8439 137.235 72.8411V77.1775C133.378 78.0176 129.719 78.4332 126.241 78.4332C116.945 78.4332 112.292 75.3345 112.292 69.1371H112.301ZM132.781 60.1481V55.3691C132.781 53.5261 132.221 52.2613 131.119 51.5657C130.008 50.8701 128.111 50.5268 125.437 50.5268C122.763 50.5268 120.956 50.8701 119.781 51.5657C118.607 52.2523 118.02 53.5261 118.02 55.3691V60.1481H132.781Z" fill="white"/>
<path d="M143.279 47.4009H148.935V51.1049C149.522 48.214 152.846 46.7686 158.926 46.7686C162.82 46.7686 165.557 47.4732 167.129 48.8735C168.701 50.2738 169.487 52.4872 169.487 55.5046V77.8098H163.832V55.8117C163.832 55.0167 163.769 54.3663 163.642 53.8604C163.516 53.3544 163.263 52.8576 162.892 52.3517C162.052 51.3037 160.191 50.7797 157.3 50.7797C155.078 50.7797 153.37 50.9333 152.178 51.2495C150.985 51.5657 150.145 52.0806 149.666 52.7853C149.188 53.499 148.944 54.5018 148.944 55.8027V77.7918H143.288V47.4009H143.279Z" fill="white"/>
<path d="M173.118 73.971L190.211 51.2231H173.751V47.3926H196.625V51.2231L179.532 73.971H196.995V77.8015H173.118V73.971Z" fill="white"/>
<path d="M211.603 78.2442L199.85 47.3926H206.011L214.494 72.2094H214.62L222.281 47.3926H228L212.732 90.8739H206.824L211.603 78.2442Z" fill="white"/>
</svg>
