<svg width="191" height="51" viewBox="0 0 191 51" fill="none" xmlns="http://www.w3.org/2000/svg">
<path d="M68.8326 27.998H48.1196C48.4379 29.8589 49.414 31.5435 50.87 32.7451C52.326 33.9468 54.1652 34.5854 56.0526 34.5449C58.9555 34.683 61.7988 33.6905 63.9846 31.7754L67.6356 35.4258C65.1806 37.6928 60.8996 39.3262 56.0526 39.3262C48.1826 39.3262 42.5166 33.786 42.5166 25.916C42.5166 18.11 48.1826 12.5703 56.0526 12.5703C63.8586 12.5703 69.0206 18.11 69.0206 25.916C69.0208 26.6143 68.9579 27.3111 68.8326 27.998ZM56.0526 17.3594C54.1651 17.3187 52.3259 17.9575 50.8698 19.1592C49.4137 20.3609 48.4377 22.0453 48.1196 23.9062H63.6066C63.3928 22.069 62.4988 20.3779 61.1006 19.167C59.7025 17.9561 57.9015 17.3134 56.0526 17.3643V17.3594Z" fill="white"/>
<path d="M75.947 34.2988C77.2615 34.9279 78.7086 35.23 80.165 35.1797C84.065 35.3687 86.271 34.0473 86.083 31.6553C85.894 29.3883 82.557 28.6339 80.542 28.2549C76.198 27.4369 70.407 26.4922 69.777 20.7002C69.6203 19.4001 69.8619 18.0826 70.47 16.9229C72.043 14.0229 75.317 12.7051 80.291 12.7051C86.271 12.7051 90.301 15.16 91.371 18.874L87.216 20.8887C86.835 19.8542 86.1557 18.9559 85.264 18.3076C83.8442 17.3769 82.1775 16.8946 80.48 16.9229C77.58 16.7969 74.751 17.7412 75.191 20.3232C75.569 22.2752 78.906 22.9052 80.983 23.4082C84.949 24.2902 90.741 25.2969 91.371 31.0889C91.516 32.565 91.2316 34.0518 90.552 35.3701C88.601 38.5811 84.635 39.6509 79.598 39.4619C73.68 39.2099 69.84 37.1956 68.707 32.9766L72.925 31.0889C73.5129 32.4879 74.586 33.6277 75.947 34.2988Z" fill="white"/>
<path d="M92.8818 4.40039C92.8818 3.49865 93.2401 2.63372 93.8777 1.99609C94.5153 1.35847 95.3801 1 96.2819 1C97.1836 1 98.0484 1.35847 98.686 1.99609C99.3236 2.63372 99.6819 3.49865 99.6819 4.40039C99.6819 5.30213 99.3236 6.16609 98.686 6.80371C98.0484 7.44133 97.1836 7.7998 96.2819 7.7998C95.3801 7.7998 94.5153 7.44133 93.8777 6.80371C93.2401 6.16609 92.8818 5.30213 92.8818 4.40039ZM93.5739 38.6475V13.2764H98.9879V38.6475H93.5739Z" fill="white"/>
<path d="M125.3 22.1497C125.3 27.6897 120.075 31.7816 113.527 31.7816C112.979 31.7731 112.432 31.731 111.89 31.6556L109.183 34.8665C111.017 34.587 112.869 34.4392 114.724 34.4251C122.53 34.4251 126.371 37.9516 125.678 42.9886C124.986 47.9616 119.319 50.9888 112.017 50.6058C106.665 50.3528 102.069 48.6546 99.2988 46.0726L102.199 41.8548C105.021 44.5142 108.773 45.96 112.65 45.8831C116.05 45.8831 120.142 45.2532 120.331 42.4202C120.52 39.5202 116.742 38.7679 113.846 38.7679C110.891 38.8569 107.99 39.5884 105.346 40.9105L102.072 37.3216L107.801 30.7113C104.15 29.1373 101.695 25.9897 101.695 22.1497C101.695 16.6097 106.92 12.5804 113.53 12.5804C115.661 12.5419 117.772 12.9945 119.7 13.9027L126.436 12.5804V16.4808H123.226C124.57 18.0633 125.305 20.0734 125.3 22.1497ZM113.527 17.1751C109.627 17.1751 107.106 19.4427 107.106 22.1497C107.106 24.9197 109.624 27.1234 113.527 27.1234C117.305 27.1234 119.886 24.9237 119.886 22.1497C119.889 19.4427 117.308 17.1761 113.53 17.1761L113.527 17.1751Z" fill="white"/>
<path d="M142.552 12.579C149.852 12.579 152.94 17.4891 152.94 23.5331V38.6415H147.526V24.8553C147.526 20.8263 145.448 17.4891 141.419 17.4891C135.501 17.4891 134.053 22.966 134.053 26.996V38.6415H128.639V13.2714H134.053V18.245C134.731 16.5523 135.906 15.1051 137.423 14.0936C138.94 13.0822 140.728 12.5539 142.552 12.579Z" fill="white"/>
<path d="M155.709 4.40039C155.709 3.49865 156.067 2.63372 156.705 1.99609C157.342 1.35847 158.207 1 159.109 1C160.011 1 160.875 1.35847 161.513 1.99609C162.151 2.63372 162.509 3.49865 162.509 4.40039C162.509 5.30213 162.151 6.16609 161.513 6.80371C160.875 7.44133 160.011 7.7998 159.109 7.7998C158.207 7.7998 157.342 7.44133 156.705 6.80371C156.067 6.16609 155.709 5.30213 155.709 4.40039ZM156.402 38.6475V13.2764H161.816V38.6475H156.402Z" fill="white"/>
<path d="M190.02 27.998H169.307C169.626 29.8588 170.602 31.5435 172.058 32.7451C173.514 33.9467 175.353 34.5852 177.24 34.5449C180.143 34.683 182.986 33.6905 185.172 31.7754L188.824 35.4258C186.368 37.6928 182.087 39.3262 177.24 39.3262C169.37 39.3262 163.704 33.786 163.704 25.916C163.704 18.11 169.37 12.5703 177.24 12.5703C185.046 12.5703 190.209 18.11 190.209 25.916C190.209 26.6143 190.146 27.3112 190.02 27.998ZM177.24 17.3594C175.353 17.3189 173.514 17.9575 172.057 19.1592C170.601 20.3608 169.625 22.0454 169.307 23.9062H184.794C184.58 22.069 183.686 20.3779 182.288 19.167C180.89 17.9561 179.089 17.3134 177.24 17.3643V17.3594Z" fill="white"/>
<path fill-rule="evenodd" clip-rule="evenodd" d="M41.715 19.8633C41.7553 23.6925 40.7528 27.4598 38.815 30.7627C37.8811 32.3289 36.7262 33.7528 35.386 34.9893C32.1527 37.9325 28.0135 39.6865 23.6499 39.9629C23.1033 40.0049 22.5503 40.0264 21.991 40.0264C21.378 40.0264 20.7599 40.0032 20.1369 39.9512C19.901 39.9308 19.6696 39.8742 19.451 39.7832C19.3379 39.7365 19.2291 39.68 19.126 39.6143C18.8217 39.4207 18.5694 39.1552 18.391 38.8418C17.829 37.8538 16.9439 36.3018 16.1199 34.8828C15.4929 33.8038 14.901 32.7996 14.52 32.1826C13.1177 29.9616 11.8361 27.6666 10.681 25.3076C10.0695 23.9963 9.65467 22.6023 9.44995 21.1699C9.35747 20.5885 9.31066 20.0009 9.30995 19.4121C9.30632 17.4043 9.90552 15.4418 11.03 13.7783L11.037 13.7676C11.9588 12.4015 13.2021 11.2829 14.6575 10.5098C16.1129 9.73664 17.7359 9.33306 19.384 9.33398H19.503C19.695 9.33398 19.885 9.34435 20.072 9.36035C20.288 9.37235 20.501 9.39285 20.711 9.42285L20.889 9.44922C21.048 9.47022 21.207 9.4973 21.364 9.5293L21.47 9.5498C23.7298 10.0293 25.7564 11.2703 27.2105 13.0654C28.6647 14.8605 29.4581 17.101 29.4579 19.4111C29.4357 21.1011 29.082 22.7704 28.417 24.3242C28.4128 24.3375 28.4071 24.3503 28.3999 24.3623C27.4641 26.5073 26.2034 28.4949 24.662 30.2559C23.976 31.0559 23.293 31.7766 22.668 32.3896L20.517 28.877C20.709 28.594 22.261 26.096 22.776 25.043C22.783 25.026 22.79 25.012 22.797 24.998C23.7089 23.2708 24.2254 21.3625 24.309 19.4111C24.3079 18.1054 23.789 16.8533 22.8661 15.9297C21.9432 15.006 20.6917 14.4865 19.386 14.4844C18.0803 14.4865 16.8287 15.006 15.9058 15.9297C14.9829 16.8533 14.464 18.1054 14.463 19.4111C14.4812 20.5345 14.6756 21.6478 15.039 22.7109V22.7246C16.0119 25.3062 17.3382 27.7408 18.9799 29.958C19.128 30.171 19.261 30.3669 19.38 30.5469C19.401 30.5869 19.427 30.6241 19.451 30.6641C20.051 31.6441 20.759 32.8167 21.283 33.6787C21.534 34.0927 21.74 34.4353 21.871 34.6533C21.971 34.8143 22.03 34.9092 22.032 34.9092C22.283 34.9092 22.532 34.9026 22.779 34.8906C26.164 34.8097 29.4058 33.5088 31.908 31.2275C32.5912 30.5997 33.2176 29.9129 33.78 29.1748C35.7886 26.5835 36.8308 23.3727 36.727 20.0957C36.609 17.1413 35.5796 14.2963 33.78 11.9502C31.9804 9.57558 29.5257 7.77919 26.718 6.78223C25.1684 6.2319 23.5363 5.95018 21.892 5.94922C21.244 5.92722 20.5269 5.92922 19.7169 5.94922H5.11696V34.9492H13.979L16.0359 38.4717C16.1144 38.619 16.1557 38.7833 16.1563 38.9502C16.1569 39.1171 16.1167 39.2819 16.0392 39.4297C15.9617 39.5775 15.8494 39.7043 15.7118 39.7988C15.5743 39.8933 15.4157 39.9524 15.25 39.9717C15.2135 39.9764 15.1767 39.9796 15.14 39.9795L2.83995 40.0469C2.47901 40.0492 2.12117 39.9802 1.78702 39.8438C1.45287 39.7073 1.14902 39.5063 0.89296 39.252C0.636896 38.9976 0.43367 38.6946 0.294998 38.3613C0.156327 38.0281 0.0849531 37.6705 0.0849609 37.3096V0.915039L18.457 0.828125H18.511H19.452H19.7209C19.9479 0.828125 20.173 0.827985 20.396 0.833985H20.449C27.315 0.955985 32.19 2.827 35.959 6.625C37.0571 7.75105 38.0172 9.0043 38.819 10.3574C40.6039 13.2161 41.6029 16.495 41.715 19.8633Z" fill="white"/>
</svg>
