<svg width="368" height="228" viewBox="0 0 368 228" fill="none" xmlns="http://www.w3.org/2000/svg">
<path d="M184.212 70.7044L197.998 98.5298L228.824 102.991L206.517 124.651L211.784 155.234L184.212 140.794L156.639 155.234L161.904 124.651L139.596 102.991L170.423 98.5298L184.21 70.7044M184.21 57.7275L179.04 68.1606L166.595 93.2793L138.768 97.3068L127.209 98.98L135.573 107.101L155.709 126.653L150.956 154.261L148.981 165.728L159.319 160.314L184.21 147.279L209.099 160.314L219.437 165.728L217.462 154.261L212.709 126.653L232.846 107.101L241.209 98.98L229.652 97.3068L201.823 93.2793L189.378 68.1606L184.21 57.7275Z" fill="url(#paint0_linear_163_53)"/>
<path d="M235.994 23H132.494C113.443 23 98 38.4433 98 57.4935V168.869C98 187.919 113.443 203.362 132.494 203.362H235.994C255.044 203.362 270.487 187.919 270.487 168.869V57.4935C270.487 38.4433 255.044 23 235.994 23Z" stroke="black" stroke-width="4.502" stroke-miterlimit="10"/>
<defs>
<linearGradient id="paint0_linear_163_53" x1="127.209" y1="111.728" x2="241.209" y2="111.728" gradientUnits="userSpaceOnUse">
<stop stop-color="#00FFA6"/>
<stop offset="1" stop-color="#5199FF"/>
</linearGradient>
</defs>
</svg>
