<svg width="266" height="154" viewBox="0 0 266 154" fill="none" xmlns="http://www.w3.org/2000/svg">
<path d="M101.261 68.5431H83.8941C83.5129 68.5393 83.1348 68.6114 82.7818 68.7555C82.4289 68.8996 82.1083 69.113 81.8388 69.3825C81.5693 69.6521 81.3563 69.9729 81.2123 70.3258C81.0683 70.6788 80.9962 71.0569 81.0002 71.4381V117.747C80.9962 118.129 81.0683 118.507 81.2123 118.86C81.3563 119.213 81.5693 119.533 81.8388 119.803C82.1083 120.072 82.4289 120.286 82.7818 120.43C83.1348 120.574 83.5129 120.646 83.8941 120.642H101.261C101.642 120.646 102.02 120.574 102.373 120.43C102.726 120.286 103.047 120.073 103.317 119.803C103.586 119.534 103.8 119.213 103.944 118.86C104.088 118.507 104.16 118.129 104.156 117.747L104.151 71.4381C104.156 71.057 104.085 70.6785 103.941 70.3254C103.798 69.9723 103.585 69.6514 103.316 69.3817C103.047 69.112 102.726 68.8991 102.373 68.7551C102.02 68.6111 101.642 68.5389 101.261 68.5431Z" fill="white"/>
<path d="M184.992 74.0275C184.992 69.3103 181.755 64.5434 175.57 64.5434H147.531C151.534 57.3782 152.714 47.3029 149.929 39.9284C147.885 34.5062 143.973 31.3408 138.919 31.0196L138.833 31.0112C137.251 30.9149 135.693 31.4421 134.494 32.4802C133.295 33.5182 132.55 34.9845 132.419 36.5649C131.697 43.8805 128.494 56.8144 123.902 61.4061C120.036 65.2723 116.725 66.894 111.241 69.576C110.449 69.9639 109.581 70.3893 108.663 70.8439C108.68 71.0438 108.689 71.2405 108.689 71.4422V117.277C109.352 117.503 110.006 117.729 110.649 117.949C119.706 121.069 127.531 123.763 139.493 123.763H162.162C168.347 123.763 171.583 118.988 171.583 114.279C171.586 112.873 171.297 111.481 170.737 110.192C172.747 109.853 174.582 108.837 175.937 107.314C177.48 105.523 178.317 103.23 178.29 100.867C178.291 99.4636 178.004 98.0753 177.447 96.7877C182.415 95.9281 185 91.666 185 87.4537C183.348 85.6108 182.434 83.2232 182.432 80.7481C182.431 78.2731 183.342 75.8847 184.992 74.0396V74.0275Z" fill="white"/>
</svg>
