<svg width="315" height="127" viewBox="0 0 315 127" fill="none" xmlns="http://www.w3.org/2000/svg">
<path d="M124.081 68.2958C124.111 70.3058 123.341 72.2258 121.901 73.6958C120.431 75.1858 118.401 76.0458 116.321 76.0458H104.141C101.351 76.0458 98.7907 74.5258 97.4607 72.0858L97.3606 71.8958L97.5505 71.7958L101.871 69.4258L102.061 69.3258L102.161 69.5158C102.561 70.2358 103.321 70.6958 104.141 70.6958H116.391C117.581 70.6958 118.591 69.8058 118.701 68.6658C118.761 68.0258 118.561 67.4158 118.131 66.9358C117.701 66.4658 117.101 66.1958 116.471 66.1958H104.291C102.211 66.1958 100.181 65.3358 98.7207 63.8458C97.2807 62.3758 96.5005 60.4658 96.5405 58.4458C96.6105 54.3258 100.031 50.9658 104.151 50.9658H116.471C119.251 50.9658 121.811 52.4858 123.151 54.9258L123.25 55.1158L123.061 55.2158L118.731 57.5858L118.541 57.6858L118.441 57.4958C118.051 56.7758 117.291 56.3258 116.461 56.3258H104.211C103.021 56.3258 102.001 57.2158 101.901 58.3558C101.841 58.9958 102.041 59.6158 102.481 60.0858C102.911 60.5558 103.511 60.8258 104.141 60.8258H116.461C120.581 60.8258 124.001 64.1758 124.071 68.3058L124.081 68.2958Z" fill="white"/>
<path d="M155.441 59.8066V67.2066C155.441 72.0766 151.471 76.0466 146.601 76.0466H136.471V72.9666L136.531 72.9066L138.681 70.7566L138.741 70.6966H146.591C148.511 70.6966 150.071 69.1366 150.071 67.2166V59.8166C150.071 57.8966 148.511 56.3366 146.591 56.3366H133.25V85.9165H127.891V50.9766H146.591C151.461 50.9766 155.431 54.9466 155.431 59.8166L155.441 59.8066Z" fill="white"/>
<path d="M177.95 50.9658H168.09C163.21 50.9658 159.25 54.9358 159.25 59.8058V67.2058C159.25 72.0758 163.22 76.0458 168.09 76.0458H177.95C182.83 76.0458 186.79 72.0758 186.79 67.2058V59.8058C186.79 54.9358 182.83 50.9658 177.95 50.9658ZM164.61 59.8058C164.61 57.8858 166.17 56.3258 168.09 56.3258H177.95C179.87 56.3258 181.43 57.8858 181.43 59.8058V67.2058C181.43 69.1258 179.87 70.6858 177.95 70.6858H168.09C166.17 70.6858 164.61 69.1258 164.61 67.2058V59.8058Z" fill="white"/>
<path d="M210.75 50.9658V54.0458L210.681 54.1058L208.471 56.2658L208.401 56.3258H195.961V76.0458H190.601V50.9658H210.75Z" fill="white"/>
<path d="M229.121 50.9661V56.3261H219.911V66.3461C219.911 68.7361 221.86 70.6861 224.25 70.6861H226.841L229.121 72.9661V76.0461H224.26C218.91 76.0461 214.561 71.6961 214.561 66.3461V46.0361H219.921V50.9661H229.131H229.121Z" fill="white"/>
<path d="M238.3 46.0361H232.94V51.3961H238.3V46.0361Z" fill="white"/>
<path d="M238.3 55.8965H232.94V76.0465H238.3V55.8965Z" fill="white"/>
<path d="M260.81 50.9658H250.95C246.07 50.9658 242.11 54.9358 242.11 59.8058V67.2058C242.11 72.0758 246.07 76.0458 250.95 76.0458H260.81C265.69 76.0458 269.65 72.0758 269.65 67.2058V59.8058C269.65 54.9358 265.68 50.9658 260.81 50.9658ZM247.47 59.8058C247.47 57.8858 249.03 56.3258 250.95 56.3258H260.81C262.73 56.3258 264.29 57.8858 264.29 59.8058V67.2058C264.29 69.1258 262.73 70.6858 260.81 70.6858H250.95C249.03 70.6858 247.47 69.1258 247.47 67.2058V59.8058Z" fill="white"/>
<path d="M71.1501 54.7759C73.3001 52.6659 76.06 51.2559 79.04 50.8559C79.17 50.8359 79.3002 50.8259 79.4302 50.8059C79.9702 50.7359 80.5201 50.7059 81.0601 50.7159C81.3401 50.7159 81.6201 50.7359 81.9001 50.7559C82.0201 50.7559 82.14 50.7759 82.25 50.7859C87.95 51.3159 92.3101 56.1659 92.3101 61.8859C92.3101 64.9159 91.3401 67.9459 89.4001 70.4659C89.3301 70.5559 89.2502 70.6459 89.1602 70.7259L76 83.8859L75.5901 84.2459C73.4901 85.8359 71.05 86.7559 68.54 87.0059C68.51 87.0059 68.4802 87.0059 68.4502 87.0159C67.6902 87.1059 66.9101 87.1159 66.1401 87.0459C63.3001 86.8559 60.5102 85.8059 58.1802 83.9059C57.8202 83.6059 57.4701 83.2959 57.1301 82.9559L50.3501 76.1159C50.7701 76.5359 53.8002 77.2759 56.4402 77.1459C59.3202 77.0059 61.7002 75.8659 61.9702 75.7159L63.1702 76.9159C63.6202 77.3659 64.1202 77.7159 64.6602 77.9759C66.1002 78.6759 67.79 78.7159 69.26 78.0959C69.9 77.8259 70.5 77.4259 71.02 76.9059L82.1301 65.7959C84.4501 63.4859 84.5701 61.5359 83.4001 59.9159C83.3701 59.8759 83.3401 59.8359 83.3101 59.7959C83.2901 59.7659 83.27 59.7459 83.25 59.7159C82.62 58.9559 81.7302 58.5059 80.7402 58.4559C79.7602 58.4059 78.8101 58.7759 78.1201 59.4659L65.1602 72.3159C63.0102 74.4259 60.25 75.8359 57.27 76.2359C57.14 76.2559 57.0101 76.2659 56.8801 76.2859C56.3401 76.3559 55.79 76.3859 55.25 76.3759C54.97 76.3759 54.6902 76.3559 54.4102 76.3359C54.2902 76.3359 54.1701 76.3159 54.0601 76.3059C48.3601 75.7759 44 70.9259 44 65.2059C44 62.1759 44.9702 59.1459 46.9102 56.6259C46.9802 56.5359 47.0601 56.4459 47.1501 56.3659L60.3101 43.2059L60.7202 42.8459C62.8202 41.2559 65.26 40.3359 67.77 40.0859C67.8 40.0859 67.8301 40.0859 67.8601 40.0759C68.6201 39.9859 69.4002 39.9759 70.1702 40.0459C73.0102 40.2359 75.8001 41.2859 78.1301 43.1859C78.4901 43.4859 78.8402 43.7959 79.1802 44.1359L85.9602 50.9759C85.5402 50.5559 82.5101 49.8159 79.8701 49.9459C76.9901 50.0859 74.6101 51.2259 74.3401 51.3759L73.1401 50.1759C72.6901 49.7259 72.1901 49.3759 71.6501 49.1159C70.2101 48.4159 68.52 48.3759 67.05 48.9959C66.41 49.2659 65.81 49.6659 65.29 50.1859L54.1802 61.2959C51.8602 63.6059 51.7402 65.5559 52.9102 67.1759C52.9402 67.2159 52.97 67.2559 53 67.2959C53.02 67.3259 53.0401 67.3459 53.0601 67.3759C53.6901 68.1359 54.5801 68.5859 55.5701 68.6359C56.5501 68.6859 57.5002 68.3159 58.1902 67.6259L71.1501 54.7759Z" fill="white"/>
</svg>
