<svg width="315" height="127" viewBox="0 0 315 127" fill="none" xmlns="http://www.w3.org/2000/svg">
<path d="M125.59 73.3303C125.59 78.4103 120.73 81.9604 113.77 81.9604C107.67 81.9604 103.79 79.4804 101.61 77.4104L101.07 76.8904L103.85 74.2104L104.35 74.6903C106.82 77.0603 110.16 78.3604 113.78 78.3604C118.34 78.3604 121.29 76.4503 121.29 73.4903C121.29 70.5303 119.16 69.5604 115.69 68.2504L110.56 66.3303C108.33 65.4903 103.13 63.5204 103.13 58.3904C103.13 53.7304 107.71 50.3604 114.01 50.3604C117.93 50.3604 121.64 51.7104 124.19 54.0704L124.74 54.5803L122.13 57.1304L121.63 56.7004C119.54 54.8804 116.98 53.9604 114.01 53.9604C110.02 53.9604 107.44 55.6203 107.44 58.1903C107.44 61.0103 110.41 62.1103 112.81 62.9903L117.94 64.9104C121.65 66.3104 125.6 68.2403 125.6 73.3303H125.59Z" fill="white"/>
<path d="M154.881 50.8799V69.3399C154.881 77.4799 150.451 81.9599 142.401 81.9599C134.351 81.9599 129.971 77.4799 129.971 69.3399V50.8799H134.231V69.2199C134.231 75.2899 136.981 78.3699 142.401 78.3699C147.821 78.3699 150.761 75.2899 150.761 69.2199V50.8799H154.881Z" fill="white"/>
<path d="M185.7 50.8799V81.4399H181.69L167.5 61.0799L164.84 57.0699C164.84 57.0699 164.84 57.1399 164.84 57.1799C164.96 59.1399 165.08 61.1699 165.08 63.2699V81.4499H160.96V50.8899H164.97L179.2 71.2099L181.79 75.1999C181.66 73.0999 181.56 70.9799 181.56 68.8599V50.8799H185.68H185.7Z" fill="white"/>
<path d="M214.2 54.9699C211.37 52.2599 207.23 50.8799 201.89 50.8799H193.08V81.4399H201.94C212.35 81.4399 218.33 75.8399 218.33 66.0599C218.33 61.3199 216.94 57.5899 214.2 54.9699ZM197.34 54.3099H201.61C209.67 54.3099 213.92 58.3699 213.92 66.0599C213.92 71.4899 211.78 77.9699 201.61 77.9699H197.34V54.3199V54.3099Z" fill="white"/>
<path d="M244.46 77.9299V81.4399H223.54V50.8799H243.94V54.3599H227.81V63.5499H241.4V67.0199H227.81V77.9299H244.46Z" fill="white"/>
<path d="M264.201 67.9106C269.331 66.9006 272.241 63.8406 272.241 59.4006C272.241 52.3706 265.631 50.8906 260.091 50.8906H249.351V81.4506H253.611V68.3106H259.531L268.661 81.4506H273.611L264.211 67.9106H264.201ZM253.611 54.3206H259.431C263.631 54.3206 267.931 54.9206 267.931 59.4006C267.931 63.0306 265.071 64.8706 259.431 64.8706H253.611V54.3206Z" fill="white"/>
<path d="M42.7705 62.66H40.0605L40.0806 62.41C40.9606 48.72 52.3905 38 66.1105 38C79.8305 38 91.2605 48.72 92.1405 62.41L92.1605 62.66H89.4506L89.4305 62.44C88.5705 50.25 78.3305 40.7 66.1105 40.7C53.8905 40.7 43.6405 50.25 42.7805 62.44L42.7605 62.66H42.7705Z" fill="white"/>
<path d="M43.0002 76.3604H89.1603L88.9602 76.7204C88.5302 77.5004 88.0402 78.2904 87.5002 79.0604L87.4303 79.1604H44.7102L44.6403 79.0604C44.1003 78.2904 43.6103 77.5004 43.1803 76.7204L42.9902 76.3604H43.0002Z" fill="white"/>
<path d="M54.5195 87.5898H77.6395L76.5995 88.0499C73.2695 89.5199 69.7296 90.2598 66.0796 90.2598C62.4296 90.2598 58.8896 89.5099 55.5596 88.0499L54.5195 87.5898Z" fill="white"/>
<path d="M40.8206 70.7402H91.3306L91.2505 71.0402C91.0305 71.8402 90.7805 72.6302 90.4905 73.3802L90.4305 73.5402H41.7104L41.6505 73.3802C41.3605 72.6302 41.1105 71.8402 40.8905 71.0402L40.8105 70.7402H40.8206Z" fill="white"/>
<path d="M47.0002 81.9697H85.1603L84.7603 82.3797C83.9503 83.2097 83.0703 83.9997 82.1403 84.7197L82.0803 84.7697H50.0703L50.0103 84.7197C49.0803 83.9997 48.2003 83.2097 47.3903 82.3797L46.9902 81.9697H47.0002Z" fill="white"/>
<path d="M40 65.1201H92.15V65.3701C92.1 66.1201 92.03 66.9101 91.92 67.7101L91.89 67.9201H40.25L40.22 67.7101C40.11 66.9101 40.04 66.1201 40.01 65.3701V65.1201H40Z" fill="white"/>
</svg>
