<svg width="315" height="127" viewBox="0 0 315 127" fill="none" xmlns="http://www.w3.org/2000/svg">
<path d="M143.49 53.5323C143.84 53.3323 144.14 53.1523 144.44 52.9823C145.62 52.2923 146.79 51.5923 148.05 51.0623C150.37 50.0923 152.75 49.8023 155.22 50.3623C156.33 50.6223 157.36 51.0623 158.27 51.7523C158.94 52.2523 159.49 52.8523 159.91 53.5823C159.96 53.6623 160.01 53.7423 160.06 53.8223C160.06 53.8323 160.09 53.8323 160.12 53.8523C160.27 53.8223 160.37 53.6923 160.49 53.6023C162.93 51.7223 165.67 50.5623 168.74 50.1923C170.15 50.0223 171.56 49.9723 172.94 50.3923C176.02 51.3123 177.85 53.4023 178.56 56.5023C178.71 57.1723 178.76 57.8523 178.76 58.5323C178.76 64.3723 178.76 70.2023 178.76 76.0423C178.76 76.7023 178.82 76.6223 178.18 76.6323C177.28 76.6323 176.37 76.6323 175.47 76.6323C175.13 76.6323 175.13 76.6323 175.11 76.2923C175.11 76.1623 175.11 76.0423 175.11 75.9123C175.11 70.1823 175.11 64.4623 175.11 58.7323C175.11 58.0123 175.03 57.3123 174.79 56.6323C174.18 54.9323 172.76 53.8523 170.95 53.7823C167.52 53.6423 164.3 54.3623 161.39 56.2523C161.09 56.4523 160.97 56.6423 160.97 57.0123C160.98 63.3523 160.97 69.7023 160.97 76.0423C160.97 76.7123 161.02 76.6323 160.39 76.6323C159.49 76.6323 158.58 76.6323 157.68 76.6323C157.32 76.6323 157.32 76.6323 157.31 76.2623C157.31 76.1323 157.31 76.0123 157.31 75.8823C157.31 70.1223 157.31 64.3723 157.31 58.6123C157.31 57.7423 157.17 56.9023 156.76 56.1323C156.01 54.6923 154.81 53.8923 153.2 53.8023C151.06 53.6723 149 54.0523 147.02 54.8923C145.92 55.3623 144.86 55.8823 143.78 56.3823C143.56 56.4823 143.46 56.6123 143.48 56.8523C143.49 56.9823 143.48 57.1023 143.48 57.2323C143.48 63.3823 143.48 69.5423 143.48 75.6923C143.48 75.8223 143.48 75.9423 143.48 76.0723C143.48 76.7023 143.51 76.6423 142.92 76.6423C142 76.6423 141.08 76.6423 140.16 76.6423C139.82 76.6423 139.82 76.6323 139.81 76.3023C139.81 76.2223 139.81 76.1423 139.81 76.0623C139.81 67.7023 139.81 59.3423 139.81 50.9923C139.81 50.3423 139.74 50.4023 140.39 50.3923C140.95 50.3923 141.5 50.4023 142.06 50.3923C142.31 50.3923 142.42 50.4723 142.5 50.7123C142.76 51.5123 143.04 52.3023 143.32 53.0923C143.37 53.2223 143.42 53.3623 143.49 53.5523V53.5323Z" fill="white"/>
<path d="M82.1801 63.5419C82.1801 67.8119 82.1801 72.0719 82.1801 76.3419C82.1801 76.7019 82.08 76.9019 81.76 77.0919C74.32 81.3719 66.89 85.6619 59.46 89.9519C59.2 90.1019 59.01 90.1219 58.73 89.9519C51.29 85.6419 43.84 81.3519 36.39 77.0619C36.11 76.9019 36 76.7219 36 76.3919C36 67.8119 36 59.2319 36 50.6519C36 50.3119 36.13 50.1419 36.4 49.9919C43.84 45.7119 51.2701 41.4219 58.6901 37.1219C59.0001 36.9419 59.21 36.9719 59.5 37.1419C66.91 41.4319 74.33 45.7119 81.76 49.9819C82.06 50.1519 82.17 50.3419 82.17 50.6919C82.16 54.9719 82.17 59.2619 82.17 63.5419H82.1801ZM80.28 63.5419C80.28 59.6219 80.28 55.7119 80.28 51.7919C80.28 51.4419 80.17 51.2619 79.87 51.0919C73.09 47.1919 66.3201 43.2819 59.5601 39.3719C59.2101 39.1719 58.97 39.1819 58.62 39.3819C51.87 43.2919 45.11 47.1919 38.35 51.0819C38.04 51.2619 37.91 51.4419 37.91 51.8219C37.92 59.6419 37.92 67.4619 37.91 75.2719C37.91 75.6419 38.03 75.8319 38.34 76.0119C45.14 79.9219 51.94 83.8519 58.74 87.7819C59.01 87.9419 59.2 87.9319 59.47 87.7819C66.25 83.8619 73.04 79.9419 79.83 76.0419C80.18 75.8419 80.29 75.6219 80.29 75.2219C80.27 71.3319 80.28 67.4519 80.28 63.5619V63.5419Z" fill="white"/>
<path d="M200.7 73.512C199.84 73.912 198.98 74.322 198.11 74.702C196.17 75.542 194.2 76.272 192.11 76.672C190.63 76.962 189.16 77.062 187.68 76.642C185.11 75.912 183.38 73.812 183.24 71.142C183.16 69.642 183.17 68.132 183.24 66.622C183.3 65.462 183.64 64.372 184.3 63.412C185.27 61.992 186.65 61.232 188.31 60.932C189.16 60.782 190.02 60.822 190.87 60.822C193.98 60.822 197.09 60.822 200.2 60.822C200.3 60.822 200.39 60.822 200.49 60.822C200.67 60.822 200.75 60.742 200.74 60.562C200.72 59.212 200.84 57.862 200.66 56.522C200.41 54.642 199.29 53.622 197.4 53.492C196.19 53.412 194.99 53.472 193.78 53.502C191.05 53.572 188.33 53.742 185.61 53.942C185.18 53.972 184.75 53.992 184.33 54.032C184.09 54.062 184.03 53.952 184.03 53.742C184.03 53.062 184.04 52.382 184.03 51.692C184.03 51.442 184.12 51.342 184.36 51.272C185.46 50.982 186.58 50.742 187.71 50.572C190.91 50.072 194.14 49.872 197.38 49.892C198.52 49.892 199.62 50.142 200.65 50.632C202.58 51.552 203.68 53.112 204.16 55.162C204.34 55.942 204.4 56.732 204.4 57.522C204.4 63.712 204.4 69.892 204.4 76.082C204.4 76.182 204.4 76.272 204.4 76.372C204.4 76.552 204.33 76.632 204.15 76.622C203.4 76.622 202.66 76.622 201.91 76.622C201.67 76.622 201.63 76.472 201.58 76.302C201.36 75.542 201.14 74.782 200.9 74.022C200.85 73.842 200.84 73.642 200.68 73.502L200.7 73.512ZM200.75 67.252C200.75 66.252 200.75 65.252 200.75 64.252C200.75 64.142 200.75 64.032 200.75 63.922C200.75 63.772 200.69 63.682 200.53 63.692C200.42 63.692 200.31 63.702 200.2 63.712C199.13 63.792 198.05 63.872 196.98 63.952C195 64.092 193.03 64.222 191.05 64.372C190.48 64.412 189.91 64.412 189.35 64.532C188.11 64.782 187.3 65.482 186.99 66.722C186.91 67.062 186.87 67.412 186.87 67.762C186.87 68.542 186.87 69.312 186.87 70.092C186.87 70.442 186.91 70.792 186.97 71.132C187.19 72.362 187.98 73.082 189.23 73.212C190.14 73.302 191.04 73.212 191.93 73.072C194.84 72.622 197.64 71.782 200.43 70.852C200.72 70.752 200.78 70.612 200.78 70.332C200.77 69.302 200.78 68.272 200.78 67.242L200.75 67.252Z" fill="white"/>
<path d="M247.46 73.5117C247.23 73.5417 247.091 73.6417 246.931 73.7217C244.601 74.8517 242.221 75.8517 239.701 76.4817C238.511 76.7717 237.31 76.9718 236.08 76.9118C235.02 76.8618 234.011 76.6218 233.071 76.1018C231.251 75.1018 230.26 73.5417 229.99 71.5117C229.8 70.1417 229.941 68.7518 229.911 67.3818C229.901 66.8118 229.97 66.2417 230.08 65.6817C230.6 63.0917 232.471 61.3217 235.071 60.9217C235.921 60.7917 236.78 60.8217 237.63 60.8217C240.74 60.8217 243.85 60.8217 246.96 60.8217C246.99 60.8217 247.021 60.8217 247.061 60.8217C247.431 60.8217 247.441 60.8218 247.451 60.4618C247.471 59.5118 247.52 58.5617 247.46 57.6117C247.43 57.1817 247.44 56.7617 247.36 56.3317C247.02 54.6017 245.97 53.6517 244.21 53.5017C243.45 53.4317 242.691 53.4717 241.931 53.4817C239.391 53.5017 236.861 53.6617 234.321 53.8117C233.241 53.8717 232.17 53.9617 231.09 54.0417C230.77 54.0617 230.76 54.0617 230.76 53.7517C230.76 53.0717 230.76 52.3917 230.76 51.7017C230.76 51.4417 230.85 51.3517 231.09 51.2817C232.19 50.9917 233.311 50.7517 234.441 50.5817C237.631 50.0817 240.841 49.8917 244.061 49.9017C244.991 49.9017 245.89 50.0717 246.76 50.3917C249.11 51.2617 250.441 53.0018 250.931 55.4118C251.071 56.0818 251.13 56.7617 251.13 57.4417C251.13 63.6417 251.13 69.8417 251.13 76.0417C251.13 76.6817 251.191 76.6217 250.541 76.6217C249.941 76.6217 249.33 76.6117 248.73 76.6217C248.48 76.6217 248.371 76.5318 248.301 76.3018C248.081 75.5218 247.85 74.7517 247.62 73.9817C247.58 73.8317 247.52 73.6817 247.47 73.5117H247.46ZM247.451 67.2317C247.451 66.5217 247.451 65.8017 247.451 65.0917C247.451 64.7117 247.451 64.3317 247.451 63.9517C247.451 63.7417 247.361 63.6617 247.161 63.6917C247.081 63.7017 247.001 63.7018 246.921 63.7118C245.831 63.7918 244.741 63.8818 243.651 63.9618C241.671 64.1018 239.69 64.2318 237.72 64.3818C237.15 64.4218 236.58 64.4317 236.02 64.5417C234.67 64.8017 233.73 65.7717 233.63 67.1417C233.54 68.3717 233.53 69.6118 233.63 70.8518C233.75 72.3118 234.601 73.1117 236.061 73.2317C236.941 73.3017 237.801 73.2117 238.671 73.0717C241.551 72.6217 244.33 71.8017 247.08 70.8717C247.45 70.7417 247.451 70.7417 247.451 70.3317C247.451 69.3017 247.451 68.2718 247.451 67.2418V67.2317Z" fill="white"/>
<path d="M130.71 73.4717C129.59 74.0117 128.54 74.5217 127.45 74.9617C125.7 75.6817 123.93 76.3117 122.06 76.6717C120.56 76.9617 119.07 77.0517 117.58 76.6217C115.11 75.9017 113.42 73.8717 113.22 71.3017C113.09 69.6717 113.09 68.0317 113.22 66.4017C113.45 63.4617 115.47 61.3417 118.39 60.9017C119.2 60.7817 120 60.8117 120.81 60.8117C123.92 60.8117 127.03 60.8117 130.14 60.8117C130.22 60.8117 130.3 60.8117 130.38 60.8117C130.63 60.8417 130.71 60.7317 130.71 60.4817C130.71 59.4717 130.75 58.4517 130.71 57.4417C130.71 57.1917 130.68 56.9317 130.65 56.6817C130.48 54.7917 129.33 53.6417 127.43 53.4917C126.32 53.4017 125.21 53.4717 124.1 53.4917C121.24 53.5617 118.39 53.7317 115.54 53.9417C115.11 53.9717 114.68 53.9917 114.26 54.0317C114.04 54.0517 113.98 53.9717 113.98 53.7717C113.98 53.0617 113.98 52.3417 113.98 51.6317C113.98 51.4017 114.09 51.3417 114.28 51.2917C115.21 51.0317 116.16 50.8317 117.11 50.6717C120.48 50.1017 123.88 49.8917 127.3 49.9017C128.13 49.9017 128.94 50.0417 129.73 50.3017C132.19 51.1117 133.61 52.8317 134.15 55.3317C134.3 56.0117 134.36 56.7117 134.36 57.4117C134.36 63.6417 134.36 69.8817 134.36 76.1117C134.36 76.6717 134.39 76.6317 133.85 76.6317C133.25 76.6317 132.64 76.6317 132.04 76.6317C131.63 76.6317 131.63 76.6317 131.52 76.2517C131.29 75.4917 131.07 74.7317 130.84 73.9717C130.8 73.8217 130.74 73.6717 130.68 73.4717H130.71ZM130.73 67.2417C130.73 66.1917 130.73 65.1517 130.73 64.1017C130.73 63.6817 130.73 63.6817 130.3 63.7017C130.25 63.7017 130.21 63.7017 130.16 63.7117C128.63 63.8217 127.09 63.9417 125.56 64.0517C123.65 64.1917 121.73 64.3117 119.82 64.4617C118.11 64.5917 117.02 65.5717 116.89 67.1517C116.79 68.3617 116.78 69.5917 116.89 70.8117C117.03 72.3517 117.89 73.1317 119.44 73.2317C120.28 73.2917 121.12 73.1917 121.95 73.0617C124.82 72.6017 127.6 71.7917 130.35 70.8617C130.73 70.7317 130.73 70.7217 130.73 70.3317C130.73 69.3017 130.73 68.2717 130.73 67.2417Z" fill="white"/>
<path d="M277.19 50.4722C277.11 50.6222 276.97 50.7222 276.84 50.8422C273.24 54.2822 269.64 57.7322 266.05 61.1722C265.58 61.6222 265.61 61.4822 266 61.9922C269.64 66.6922 273.28 71.4022 276.92 76.1022C277.03 76.2522 277.14 76.3922 277.26 76.5522C277.09 76.6622 276.94 76.6222 276.81 76.6322C275.6 76.6322 274.4 76.6322 273.19 76.6322C272.87 76.6322 272.67 76.5322 272.47 76.2822C269.19 72.1622 265.9 68.0522 262.62 63.9322C262.58 63.8822 262.53 63.8422 262.5 63.7822C262.31 63.4622 262.05 63.3422 261.67 63.3722C261.28 63.4022 260.88 63.3822 260.48 63.3722C260.28 63.3722 260.19 63.4422 260.2 63.6522C260.2 63.7822 260.2 63.9022 260.2 64.0322C260.2 67.9922 260.2 71.9622 260.2 75.9222C260.2 76.0522 260.2 76.1722 260.2 76.3022C260.21 76.5222 260.14 76.6122 259.9 76.6122C258.88 76.6122 257.87 76.6122 256.85 76.6122C256.63 76.6122 256.52 76.5522 256.54 76.3222C256.54 76.2122 256.54 76.1022 256.54 75.9922C256.54 63.5322 256.54 51.0622 256.54 38.6022C256.54 37.8922 256.46 37.9822 257.18 37.9822C258.05 37.9822 258.93 37.9822 259.8 37.9822C260.18 37.9822 260.18 37.9822 260.19 38.3822C260.19 38.5122 260.19 38.6322 260.19 38.7622C260.19 45.5322 260.19 52.3022 260.19 59.0722C260.19 59.7622 260.11 59.7022 260.83 59.7022C261.15 59.7022 261.47 59.6922 261.78 59.7022C262.06 59.7222 262.25 59.6222 262.45 59.4322C265.27 56.8022 268.09 54.1722 270.91 51.5522C271.27 51.2222 271.63 50.8822 271.99 50.5422C272.12 50.4122 272.26 50.3522 272.45 50.3522C273.97 50.3522 275.5 50.3522 277.02 50.3522C277.06 50.3522 277.12 50.3522 277.17 50.4422L277.19 50.4722Z" fill="white"/>
<path d="M98.3903 61.7817C98.3903 59.4217 98.3903 57.0517 98.3903 54.6917C98.3903 54.5817 98.3903 54.4717 98.3903 54.3617C98.3837 54.1284 98.257 54.0084 98.0103 54.0017C97.9103 54.0017 97.8203 54.0017 97.7203 54.0017C96.4703 54.0017 95.2103 54.0017 93.9603 54.0017C93.5103 54.0017 93.5103 54.0017 93.5103 53.5717C93.5103 53.0917 93.5103 52.6217 93.5103 52.1417C93.5103 51.8417 93.3803 51.4817 93.5803 51.2617C93.7603 51.0717 94.1203 51.1217 94.4003 51.0617C95.6003 50.8317 96.8003 50.6317 98.0003 50.4017C98.4003 50.3317 98.4104 50.3217 98.4504 49.9317C98.6204 48.5317 98.7904 47.1317 98.9504 45.7317C99.0504 44.9317 99.1503 44.1317 99.2403 43.3217C99.2603 43.1117 99.3304 43.0117 99.5604 43.0117C100.31 43.0117 101.05 43.0117 101.8 43.0117C102 43.0117 102.09 43.0917 102.08 43.2917C102.08 43.4017 102.08 43.5117 102.08 43.6217C102.08 45.6517 102.08 47.6817 102.08 49.7117C102.08 49.8217 102.08 49.9317 102.08 50.0417C102.07 50.2317 102.14 50.3417 102.35 50.3317C102.46 50.3317 102.57 50.3317 102.68 50.3317C104.85 50.3317 107.03 50.3317 109.2 50.3317C109.77 50.3317 109.72 50.2917 109.72 50.8417C109.72 51.7117 109.72 52.5817 109.72 53.4617C109.72 54.0217 109.77 53.9817 109.22 53.9817C107.05 53.9817 104.87 53.9817 102.7 53.9817C102.59 53.9817 102.48 53.9817 102.37 53.9817C102.17 53.9717 102.07 54.0517 102.09 54.2517C102.09 54.3417 102.09 54.4417 102.09 54.5417C102.09 58.8717 102.09 63.2017 102.09 67.5317C102.09 68.4717 102.15 69.4017 102.39 70.3117C102.44 70.4917 102.49 70.6817 102.56 70.8617C102.92 71.9017 103.61 72.5817 104.69 72.8417C106.07 73.1817 107.46 73.5217 108.85 73.8617C109.31 73.9717 109.31 73.9617 109.31 74.4417C109.31 75.0417 109.31 75.6517 109.31 76.2517C109.31 76.4917 109.23 76.5917 108.98 76.5817C107.38 76.5617 105.77 76.6517 104.17 76.5317C102.21 76.3817 100.71 75.4717 99.7303 73.7517C99.0803 72.6017 98.7603 71.3417 98.5903 70.0517C98.4403 68.9617 98.4003 67.8717 98.4003 66.7817C98.4003 65.1117 98.4003 63.4517 98.4003 61.7817H98.3903Z" fill="white"/>
<path d="M213.57 53.6516C214.24 53.2616 214.9 52.8816 215.56 52.5016C216.28 52.0916 217.01 51.7116 217.75 51.3516C219.97 50.3016 222.31 49.9216 224.74 50.1216C225.32 50.1716 225.91 50.1916 226.49 50.3316C226.94 50.4416 226.95 50.4416 226.95 50.8916C226.95 51.8316 226.95 52.7616 226.95 53.7016C226.95 54.0916 226.95 54.0816 226.55 54.0316C224.13 53.7116 221.71 53.6616 219.32 54.2716C218.3 54.5316 217.33 54.9016 216.37 55.3316C215.53 55.7116 214.71 56.1216 213.87 56.4916C213.59 56.6116 213.48 56.7816 213.52 57.0716C213.54 57.1816 213.52 57.2916 213.52 57.4016C213.52 63.6216 213.52 69.8416 213.52 76.0516C213.52 76.6716 213.58 76.6216 212.97 76.6216C212.05 76.6216 211.13 76.6216 210.21 76.6216C209.88 76.6216 209.87 76.6116 209.86 76.2716C209.86 76.1616 209.86 76.0516 209.86 75.9416C209.86 67.6416 209.86 59.3516 209.86 51.0516C209.86 50.5983 210.09 50.3716 210.55 50.3716C211.01 50.3716 211.47 50.3716 211.93 50.3716C212.51 50.3716 212.42 50.3216 212.59 50.8316C212.85 51.6116 213.1 52.4016 213.36 53.1816C213.41 53.3316 213.42 53.5016 213.59 53.6416L213.57 53.6516Z" fill="white"/>
<path d="M45.3298 65.6018C46.0998 65.6918 46.8699 65.7818 47.6399 65.8718C48.0499 65.9218 48.4699 65.9318 48.8699 66.0118C49.1699 66.0718 49.3698 65.9818 49.5898 65.7818C52.6298 63.1318 55.6698 60.4918 58.7198 57.8518C58.7898 57.7918 58.8699 57.7318 58.9299 57.6618C59.0399 57.5518 59.1499 57.5518 59.2599 57.6618C59.3199 57.7218 59.3799 57.7618 59.4399 57.8218C63.7999 61.6118 68.1599 65.4018 72.5199 69.1918C72.6499 69.3018 72.7999 69.3918 72.8999 69.5818C72.6099 69.7418 72.2799 69.6918 71.9799 69.7418C71.0999 69.8618 70.2098 69.9418 69.3298 70.0618C68.9998 70.1018 68.7699 70.0218 68.5199 69.8018C65.5299 67.1918 62.5399 64.5918 59.5399 61.9918C59.3999 61.8718 59.2498 61.7518 59.0798 61.6018C54.4698 65.6018 49.8798 69.6018 45.2198 73.6418C45.7598 73.8018 46.2498 73.7918 46.7198 73.8618C47.4298 73.9618 48.1399 74.0118 48.8499 74.1118C49.1499 74.1518 49.3498 74.0918 49.5798 73.8918C52.4098 71.4218 55.2498 68.9518 58.0898 66.4918C58.3098 66.3018 58.5199 66.1118 58.7399 65.9318C59.1399 65.5918 59.0498 65.5918 59.4598 65.9518C60.2798 66.6618 61.0899 67.3618 61.8999 68.0718C65.4399 71.1518 68.9899 74.2318 72.5299 77.3118C72.6599 77.4218 72.8199 77.5018 72.8999 77.7218C72.5999 77.7618 72.3199 77.8018 72.0399 77.8418C71.1399 77.9418 70.2399 78.0418 69.3499 78.1518C69.0099 78.1918 68.7599 78.1118 68.4899 77.8818C65.5399 75.3018 62.5799 72.7318 59.6199 70.1618C59.4799 70.0418 59.3299 69.9218 59.1599 69.7818C59.0399 69.9818 59.0798 70.1718 59.0798 70.3518C59.0798 73.1318 59.0798 75.9018 59.0798 78.6818C59.0798 80.8118 59.0798 82.9318 59.0798 85.0618C59.0798 85.2318 59.1099 85.4018 59.0399 85.5618C58.8499 85.5618 58.7298 85.4518 58.5898 85.3718C52.4898 81.8518 46.3899 78.3318 40.2899 74.8218C39.9899 74.6518 39.8799 74.4718 39.8799 74.1218C39.8899 67.0318 39.8899 59.9418 39.8799 52.8518C39.8799 52.5218 39.9799 52.3418 40.2699 52.1818C46.4199 48.6418 52.56 45.1018 58.7 41.5618C59.18 41.2818 59.0799 41.3318 59.4199 41.6318C63.8399 45.4718 68.2599 49.3118 72.6799 53.1518C72.7499 53.2118 72.8199 53.2818 72.9099 53.3618C72.7899 53.4818 72.6399 53.4818 72.5099 53.4918C71.4399 53.6118 70.3699 53.7318 69.2999 53.8718C68.9899 53.9118 68.7699 53.8318 68.5299 53.6218C65.5399 51.0118 62.5499 48.4118 59.5499 45.8118C59.4699 45.7418 59.3699 45.6718 59.2999 45.5918C59.1499 45.4218 59.0299 45.4518 58.8699 45.5918C58.0599 46.3018 57.2399 47.0118 56.4299 47.7118C52.8399 50.8318 49.2399 53.9518 45.6499 57.0818C45.5199 57.1918 45.3699 57.2818 45.2799 57.4618C45.7999 57.5918 46.3099 57.6018 46.8099 57.6718C47.4999 57.7618 48.1999 57.8118 48.8899 57.9118C49.1699 57.9518 49.3599 57.8918 49.5699 57.7018C52.2099 55.3918 54.8599 53.1018 57.5099 50.8018C57.9299 50.4418 58.3499 50.0718 58.7699 49.7118C59.1399 49.3918 59.0799 49.4118 59.4199 49.7118C60.9999 51.0818 62.5799 52.4618 64.1599 53.8318C66.9499 56.2518 69.7399 58.6818 72.5299 61.1118C72.6599 61.2218 72.8199 61.3118 72.8999 61.5018C72.5399 61.6518 72.1499 61.6218 71.7799 61.6718C70.9799 61.7818 70.1699 61.8518 69.3699 61.9618C69.0299 62.0018 68.7799 61.9418 68.5099 61.7018C65.5399 59.1018 62.5499 56.5118 59.5699 53.9218C59.4199 53.7918 59.2799 53.6318 59.0599 53.5318C54.4699 57.5218 49.8799 61.5118 45.2799 65.5018C45.2899 65.5318 45.3099 65.5718 45.3199 65.6018H45.3298Z" fill="white"/>
</svg>
