<svg width="315" height="127" viewBox="0 0 315 127" fill="none" xmlns="http://www.w3.org/2000/svg">
<path d="M75.3501 74.0647C74.1401 74.6047 72.91 75.0047 71.67 75.2947C71.48 75.3347 71.2801 75.3847 71.0901 75.4147C70.9001 75.4547 70.7 75.4847 70.51 75.5247C70.21 75.5747 69.92 75.6147 69.62 75.6547C61.11 76.6847 52.58 72.1347 48.92 63.8947L47 59.5747C50.35 58.0847 53.88 57.5947 57.28 57.9647C56.91 59.2047 56.65 60.4947 56.51 61.8047L56.39 62.9647L57.55 63.0847L62.25 63.5847C64.47 63.8247 66.6701 63.7147 68.8201 63.2647C69.1101 63.5347 69.38 63.8047 69.65 64.0947C69.82 64.2647 69.98 64.4447 70.14 64.6247C70.31 64.8147 70.48 65.0147 70.64 65.2147C71.74 66.5647 72.68 68.0847 73.42 69.7547L75.3401 74.0747L75.3501 74.0647Z" fill="white"/>
<path d="M85.1301 66.4646C85.7201 71.3146 84.5402 76.3946 81.4402 80.6546L78.6602 84.4746C75.7002 82.3146 73.5001 79.5046 72.1301 76.3846C73.3901 76.0846 74.6302 75.6646 75.8402 75.1246L76.9102 74.6546L76.4402 73.5846L74.5201 69.2646C73.6101 67.2246 72.4202 65.3746 70.9502 63.7346C71.0402 63.3546 71.1401 62.9746 71.2501 62.6046C71.3201 62.3746 71.3902 62.1446 71.4702 61.9146C71.5502 61.6746 71.6401 61.4246 71.7301 61.1846C72.3501 59.5546 73.1901 57.9846 74.2701 56.5046L77.0502 52.6846C78.1202 53.4646 79.0902 54.3246 79.9502 55.2546C80.0902 55.4046 80.2202 55.5446 80.3502 55.6946C80.4802 55.8446 80.6101 55.9946 80.7301 56.1446C83.2001 59.1346 84.6901 62.7346 85.1401 66.4646H85.1301Z" fill="white"/>
<path d="M84.4102 44.6147C84.0202 48.2547 82.6802 51.5647 80.6702 54.3247C79.7802 53.3847 78.8001 52.5147 77.7301 51.7447L76.7902 51.0547L76.1002 51.9947L73.3202 55.8147C72.0102 57.6147 71.0002 59.5847 70.3102 61.6647C69.9402 61.7747 69.5602 61.8847 69.1802 61.9747C68.9502 62.0347 68.7101 62.0847 68.4801 62.1347C68.2301 62.1847 67.9802 62.2347 67.7202 62.2747C66.0002 62.5547 64.2101 62.6147 62.4001 62.4147L57.7002 61.9147C57.8402 60.6047 58.1001 59.3347 58.4801 58.1147C58.5401 57.9247 58.6002 57.7347 58.6602 57.5547C58.7202 57.3647 58.7901 57.1847 58.8601 56.9947C59.8701 54.2847 61.4502 51.8847 63.4302 49.8947C67.5602 45.7547 73.4601 43.4447 79.7301 44.1147L84.4302 44.6147H84.4102Z" fill="white"/>
<path d="M131.76 48.8447H137.92V79.4847H131.76V48.8447Z" fill="white"/>
<path d="M161.83 48.8447V54.9447H154.3V79.4847H148.12V54.9447H140.57V48.8447H161.82H161.83Z" fill="white"/>
<path d="M172.58 48.2148L186.57 79.4848H179.9L177.83 74.8248H167.34L165.27 79.4848H158.62L172.59 48.2148H172.58ZM175.39 69.3948L172.6 62.9148L169.77 69.3948H175.4H175.39Z" fill="white"/>
<path d="M195.39 48.8447V73.3647H207.71V79.4847H189.229V48.8447H195.39Z" fill="white"/>
<path d="M210.37 48.8447H216.53V79.4847H210.37V48.8447Z" fill="white"/>
<path d="M240.44 48.8447V54.9447H232.91V79.4847H226.73V54.9447H219.18V48.8447H240.43H240.44Z" fill="white"/>
<path d="M248.92 48.8447L254.51 59.4747L260.1 48.8447H267.08L257.57 66.3547V79.4947H251.45V66.3547L241.96 48.8447H248.92Z" fill="white"/>
<path d="M118.039 66.3253C115.889 58.8753 120.179 51.0953 127.629 48.9453C129.779 56.3953 125.489 64.1753 118.039 66.3253Z" fill="white"/>
<path d="M114.67 80.2753L100.85 48.9453H107.37L114.65 65.7353L117.96 72.8553L114.67 80.2753Z" fill="white"/>
</svg>
